<?xml version="1.0" encoding="UTF-8" standalone="no"?>
<svg width="744px" height="165px" viewBox="0 0 744 165" version="1.1" xmlns="http://www.w3.org/2000/svg" xmlns:xlink="http://www.w3.org/1999/xlink">
    <!-- Generator: Sketch 47 (45396) - http://www.bohemiancoding.com/sketch -->
    <title>Page 1</title>
    <desc>Created with Sketch.</desc>
    <defs></defs>
    <g id="Welcome" stroke="none" stroke-width="1" fill="none" fill-rule="evenodd">
        <g id="Desktop" transform="translate(-130.000000, -201.000000)" fill="#3F3A3A">
            <g id="Page-1" transform="translate(130.000000, 179.000000)">
                <polygon id="Fill-1" points="712.3392 28.9494 712.3392 186.5484 743.4622 158.9634 743.4622 28.9494 727.9012 22.0494"></polygon>
                <polygon id="Fill-2" points="596.1931 62.4556 586.4891 64.4566 586.4891 31.2496 565.1991 22.0486 543.9091 31.2496 543.9091 109.8736 544.0241 109.8526 543.9091 110.4446 576.8111 103.9626 586.4891 102.2236 586.4891 102.0556 596.1931 100.1436"></polygon>
                <polygon id="Fill-3" points="693.5718 22.049 678.0108 28.95 678.0108 75.014 665.1738 79.543 660.6948 122.142 678.0108 116.317 678.0108 186.549 709.1328 158.963 709.1328 28.95"></polygon>
                <g id="Group-16" transform="translate(0.000000, 0.771000)">
                    <path d="M41.748,112.827 L44.812,112.827 L44.812,48.457 L41.748,48.457 L41.748,112.827 Z M134.512,121.273 L134.512,30.479 L113.223,21.278 L91.933,30.479 L91.933,143.198 L64.521,143.198 L64.521,134.431 C77.675,127.005 86.561,112.907 86.561,96.725 L86.561,64.559 C86.561,40.655 67.184,21.278 43.281,21.278 L43.281,21.278 C19.377,21.278 0,40.655 0,64.559 L0,96.725 C0,112.837 8.811,126.883 21.871,134.334 L21.871,143.198 L0,143.198 L0,185.778 L80.475,185.778 L91.933,168.092 L91.933,185.778 L144.217,152.474 L144.217,114.786 L134.512,121.273 Z" id="Fill-4"></path>
                    <polygon id="Fill-6" points="294.9076 131.7417 150.6906 131.7417 150.6906 174.3207 195.8556 174.3207 189.9836 185.7777 244.5586 185.7777 250.4316 174.3207 294.9076 174.3207"></polygon>
                    <path d="M254.9836,77.445 L190.6136,77.445 L190.6136,72.381 L254.9836,72.381 L254.9836,77.445 Z M241.2716,21.278 L204.3266,21.278 C174.7046,21.278 150.6906,45.291 150.6906,74.914 L150.6906,74.914 C150.6906,104.536 174.7046,128.549 204.3266,128.549 L241.2716,128.549 C270.8946,128.549 294.9076,104.536 294.9076,74.914 L294.9076,74.914 C294.9076,45.291 270.8946,21.278 241.2716,21.278 L241.2716,21.278 Z" id="Fill-7"></path>
                    <polygon id="Fill-8" points="423.147 21.278 401.857 30.479 401.857 36.548 394.084 38.387 389.497 68.13 402.741 66.105 402.741 69.169 393.216 70.742 388.32 102.494 401.857 100.104 401.857 109.103 444.437 101.452 444.437 30.479"></polygon>
                    <path d="M340.279,68.511 L346.722,68.511 L346.722,62.163 L340.279,62.163 L340.279,68.511 Z M343.501,21.278 L343.501,21.278 C319.597,21.278 300.22,40.655 300.22,64.559 L300.22,66.115 C300.22,90.018 319.597,109.395 343.501,109.395 L343.501,109.395 C367.404,109.395 386.781,90.018 386.781,66.115 L386.781,64.559 C386.781,40.655 367.404,21.278 343.501,21.278 L343.501,21.278 Z" id="Fill-9"></path>
                    <path d="M349.121,150.474 L398.604,150.474 L398.604,147.41 L349.121,147.41 L349.121,150.474 Z M409.135,112.106 L338.589,112.106 C318.245,112.106 301.754,128.598 301.754,148.942 L301.754,148.942 C301.754,169.286 318.245,185.778 338.589,185.778 L409.135,185.778 C429.478,185.778 445.97,169.286 445.97,148.942 L445.97,148.942 C445.97,128.598 429.478,112.106 409.135,112.106 L409.135,112.106 Z" id="Fill-10"></path>
                    <polygon id="Fill-11" points="535.0843 59.3907 506.2723 71.1107 516.3003 61.1567 527.5133 28.9457 484.9333 28.9457 451.9763 112.2467 499.5863 88.8527 540.3073 109.1797 540.3073 63.7527"></polygon>
                    <polygon id="Fill-12" points="667.8442 135.9893 651.5662 142.6113 651.5932 142.3913 639.0322 147.5013 652.1222 138.0773 665.6312 27.8793 645.4352 27.8793 624.5852 27.8793 604.2132 27.8793 604.2132 51.1213 604.2132 65.1903 619.2132 60.3793 598.4842 185.7783 634.3422 166.4473 673.0672 185.7783 673.0672 140.3513"></polygon>
                    <path d="M499.343,150.474 L548.826,150.474 L548.826,147.41 L499.343,147.41 L499.343,150.474 Z M559.357,112.106 L488.812,112.106 C468.468,112.106 451.976,128.598 451.976,148.942 L451.976,148.942 C451.976,169.286 468.468,185.778 488.812,185.778 L559.357,185.778 C579.701,185.778 596.193,169.286 596.193,148.942 L596.193,148.942 C596.193,128.598 579.701,112.106 559.357,112.106 L559.357,112.106 Z" id="Fill-13"></path>
                </g>
            </g>
        </g>
    </g>
</svg>