<svg xmlns="http://www.w3.org/2000/svg" xmlns:xlink="http://www.w3.org/1999/xlink" viewBox="0 0 3675.87 813.33"><defs><style>.cls-1,.cls-2{fill:none;}.cls-2{stroke:#231815;stroke-miterlimit:10;}.cls-3{fill:url(#새_패턴_2);}</style><pattern id="새_패턴_2" data-name="새 패턴 2" width="11.97" height="11.97" patternTransform="translate(471.21 -1397.81) scale(5.56)" patternUnits="userSpaceOnUse" viewBox="0 0 11.97 11.97"><rect class="cls-1" width="11.97" height="11.97"/><rect class="cls-2" x="2.99" y="2.99" width="5.99" height="5.99"/><polyline class="cls-2" points="11.97 2.99 8.97 2.99 8.97 0"/><polyline class="cls-2" points="2.99 0 2.99 2.99 0 2.99"/><polyline class="cls-2" points="8.97 11.97 8.97 8.97 11.97 8.97"/><polyline class="cls-2" points="0 8.97 2.99 8.97 2.99 11.97"/></pattern></defs><title>Asset 2</title><g id="Layer_2" data-name="Layer 2"><g id="레이어_1" data-name="레이어 1"><polygon class="cls-3" points="3675.87 676.94 3521.99 813.33 3521.99 34.12 3598.93 0 3675.87 34.12 3675.87 676.94"/><polygon class="cls-3" points="2947.73 199.78 2899.75 209.68 2899.75 45.49 2794.49 0 2689.23 45.49 2689.23 434.23 2689.8 434.13 2689.23 437.05 2851.9 405 2899.75 396.4 2899.75 395.57 2947.73 386.12 2947.73 199.78"/><polygon class="cls-3" points="3429.2 0 3352.26 34.12 3352.26 261.87 3288.79 284.27 3266.64 494.88 3352.26 466.08 3352.26 813.33 3506.14 676.94 3506.14 34.12 3429.2 0"/><path class="cls-3" d="M665.06,494.4V45.49L559.8,0,454.54,45.49V602.81H319V559.46A213.87,213.87,0,0,0,428,373V214C428,95.81,332.17,0,214,0h0C95.81,0,0,95.81,0,214V373A213.86,213.86,0,0,0,108.13,559v43.83H0V813.33H397.89l56.65-87.44v87.44L713,648.67V462.33Zm-443.5-41.76H206.42V134.38h15.15Z"/><polygon class="cls-3" points="1458.1 546.16 745.05 546.16 745.05 756.68 968.36 756.68 939.33 813.33 1209.16 813.33 1238.2 756.68 1458.1 756.68 1458.1 546.16"/><path class="cls-3" d="M1192.91,0H1010.24C863.78,0,745.06,118.73,745.06,265.19h0c0,146.46,118.73,265.19,265.19,265.19h182.67c146.46,0,265.19-118.73,265.19-265.19h0C1458.1,118.73,1339.37,0,1192.91,0Zm67.79,277.7H942.45v-25h318.26Z"/><polygon class="cls-3" points="2092.15 0 1986.89 45.49 1986.89 75.5 1948.45 84.59 1925.78 231.65 1991.26 221.64 1991.26 236.78 1944.16 244.56 1919.95 401.55 1986.89 389.74 1986.89 434.23 2197.41 396.4 2197.41 45.49 2092.15 0"/><path class="cls-3" d="M1698.36,0h0c-118.18,0-214,95.81-214,214v7.69c0,118.18,95.81,214,214,214h0c118.18,0,214-95.81,214-214V214C1912.35,95.81,1816.54,0,1698.36,0Zm15.93,233.53h-31.86V202.14h31.86Z"/><path class="cls-3" d="M2022.87,449.08H1674.07A182.13,182.13,0,0,0,1491.95,631.2h0a182.12,182.12,0,0,0,182.12,182.12h348.79A182.13,182.13,0,0,0,2205,631.2h0A182.13,182.13,0,0,0,2022.87,449.08Zm-52.07,189.7H1726.14V623.63H1970.8Z"/><polygon class="cls-3" points="2645.6 188.44 2503.14 246.39 2552.72 197.17 2608.16 37.91 2397.64 37.91 2234.69 449.77 2470.08 334.11 2671.42 434.61 2671.42 210.01 2645.6 188.44"/><polygon class="cls-3" points="3301.99 567.16 3221.51 599.9 3221.64 598.82 3159.54 624.08 3224.26 577.49 3291.05 32.64 3191.2 32.64 3088.11 32.64 2987.39 32.64 2987.39 147.56 2987.39 217.11 3061.55 193.33 2959.06 813.33 3136.35 717.76 3327.82 813.33 3327.82 588.73 3301.99 567.16"/><path class="cls-3" d="M2765.61,449.08H2416.81A182.13,182.13,0,0,0,2234.69,631.2h0a182.13,182.13,0,0,0,182.13,182.12h348.79A182.13,182.13,0,0,0,2947.73,631.2h0A182.13,182.13,0,0,0,2765.61,449.08Zm-52.07,189.7H2468.88V623.63h244.66Z"/></g></g></svg>