<svg xmlns="http://www.w3.org/2000/svg" viewBox="0 0 445.87 618.11"><defs><style>.cls-1{fill:#3e3a39;}.cls-2{fill:#fff;}</style></defs><title>about-thumb-b</title><g id="Layer_2" data-name="Layer 2"><g id="레이어_1" data-name="레이어 1"><path class="cls-1" d="M419.5,95.09V36.6l-16.19-7-57.86-25L334.81,0,324.17,4.6l-57.86,25-13.15,5.68A117,117,0,0,0,171.73,2.4h-54A117.59,117.59,0,0,0,.28,119.85v.85a116.67,116.67,0,0,0,19,64.05H.28V335.87h22A101.86,101.86,0,0,0,17,455.05H0V606.17H103l-6.12,11.93H305.49l6.12-11.93h134V455.05H428.85A102.09,102.09,0,0,0,357.93,298l.92-.47,72.35-36.79,14.67-7.46V82.07Z"/><polygon class="cls-2" points="418.76 485.15 26.83 485.15 26.83 582.61 146.9 582.61 140.78 594.54 289.1 594.54 295.21 582.61 418.76 582.61 418.76 485.15"/><path class="cls-2" d="M343.41,323.75H102.47A75.35,75.35,0,0,0,27.11,399.1h0a75.35,75.35,0,0,0,75.35,75.35H343.41a75.35,75.35,0,0,0,75.35-75.35h0A75.35,75.35,0,0,0,343.41,323.75ZM308,406.9H137.83V391.31H308Z"/><rect class="cls-2" x="115.48" y="369.33" width="250.08" height="62.91"/><path class="cls-1" d="M345.44,322.48h-245A76.63,76.63,0,0,0,23.8,399.1h0a76.63,76.63,0,0,0,76.63,76.63h245a76.63,76.63,0,0,0,76.63-76.63h0A76.63,76.63,0,0,0,345.44,322.48Zm-36,84.55H136.39V391.18H309.48Z"/><path class="cls-2" d="M419,125.24l-26.37,13v-84l-57.86-25L277,54.23V211.58h-74.5V206a90.65,90.65,0,0,0,59.9-85.27v-.85a90.62,90.62,0,0,0-90.62-90.62h-54a90.62,90.62,0,0,0-90.62,90.62v.85a90.66,90.66,0,0,0,59.44,85.11v5.77H27.11V309h218.7L277,268.56V309l69.74-35.46L419,236.79ZM159.63,136.38H129.84v-32.2h29.79Z"/><polygon class="cls-2" points="343.15 379.21 364.59 376.16 343.15 373.11 352.06 361.25 340.56 369.88 337.14 325.96 333.73 369.88 322.23 361.25 331.14 373.11 309.7 376.16 331.14 379.21 322.23 391.07 333.73 382.44 337.14 426.35 340.56 382.44 352.06 391.07 343.15 379.21"/><path class="cls-2" d="M357,349.74s4.31-1.34,5.28-2.18,2.31-8.26,2.31-8.26,1.73,7.76,2.77,8.65c.86.74,4.83,1.79,4.83,1.79s-4.31,1.34-5.29,2.18-2.31,8.26-2.31,8.26-1.39-7.47-2.31-8.26S357,349.74,357,349.74Z"/><path class="cls-2" d="M93.88,426.35s4.31-1.34,5.28-2.18,2.31-8.26,2.31-8.26,1.73,7.76,2.77,8.65c.86.74,4.83,1.79,4.83,1.79s-4.31,1.34-5.29,2.18-2.31,8.26-2.31,8.26-1.39-7.47-2.31-8.26S93.88,426.35,93.88,426.35Z"/><path class="cls-2" d="M152,347.49s4.31-1.34,5.28-2.18,2.31-8.26,2.31-8.26,1.73,7.76,2.77,8.65c.86.74,4.83,1.79,4.83,1.79s-4.31,1.34-5.29,2.18-2.31,8.26-2.31,8.26-1.39-7.47-2.31-8.26S152,347.49,152,347.49Z"/><path class="cls-2" d="M354.87,426.35s6.05-1.88,7.43-3.06,3.25-11.61,3.25-11.61,2.44,10.91,3.89,12.16c1.21,1,6.79,2.51,6.79,2.51s-6.05,1.88-7.43,3.06S365.56,441,365.56,441s-2-10.5-3.25-11.61S354.87,426.35,354.87,426.35Z"/><path class="cls-2" d="M259.84,446.91s6.05-1.88,7.43-3.06,3.25-11.61,3.25-11.61,2.44,10.91,3.89,12.16c1.21,1,6.79,2.51,6.79,2.51s-6.05,1.88-7.43,3.06-3.25,11.61-3.25,11.61-2-10.5-3.25-11.61S259.84,446.91,259.84,446.91Z"/><path class="cls-2" d="M61.69,383.44s11.28-3.51,13.84-5.71,6.06-21.63,6.06-21.63,4.54,20.33,7.25,22.65c2.26,1.94,12.64,4.68,12.64,4.68S90.2,387,87.64,389.15c-2.41,2.07-6.06,21.63-6.06,21.63s-3.64-19.56-6.06-21.63C73,387,61.69,383.44,61.69,383.44Z"/></g></g></svg>