<svg xmlns="http://www.w3.org/2000/svg" viewBox="0 0 1146.79 274.4"><defs><style>.cls-1{fill:#3c3c3b;}</style></defs><title>about-intro-b</title><g id="Layer_2" data-name="Layer 2"><g id="Layer_1-2" data-name="Layer 1"><path class="cls-1" d="M242.8,270.4H180.4l-14.4-52H76.8l-14.4,52H0L81.2,4h80ZM90.4,168.4h61.2L121.2,56.8Z"/><path class="cls-1" d="M378.4,270.4H264.8V4H370c55.6,0,76,22.4,76,58.4V89.6c0,19.2-8.4,32.8-29.6,42,22,5.2,39.2,24.4,39.2,49.2v26C455.6,244.4,431.6,270.4,378.4,270.4ZM386,71.2c0-11.6-7.2-18.8-24-18.8H324.8v60.8H362c16,0,24-8,24-18.8Zm9.6,111.2c0-14.8-9.2-22.4-25.2-22.4H324.8v62H362c18.8,0,33.6-4,33.6-23.2Z"/><path class="cls-1" d="M686,192.8c0,40.4-28,81.6-103.2,81.6s-103.2-41.2-103.2-81.6V81.6c0-40.4,28-81.6,103.2-81.6S686,41.2,686,81.6Zm-60-106c0-20.8-13.2-33.6-43.2-33.6S539.6,66,539.6,86.8V187.6c0,20.8,13.2,33.6,43.2,33.6S626,208.4,626,187.6Z"/><path class="cls-1" d="M922.79,4V192.8c0,40.4-25.2,81.6-100.4,81.6S722,233.2,722,192.8V4h60V187.2c0,21.6,10.4,34,40.4,34s40.4-12.4,40.4-34V4Z"/><path class="cls-1" d="M1075.19,57.2V270.4h-60V57.2h-71.6V4h203.2V57.2Z"/></g></g></svg>