<svg xmlns="http://www.w3.org/2000/svg" xmlns:xlink="http://www.w3.org/1999/xlink" viewBox="0 0 1146.79 274.4"><defs><style>.cls-1,.cls-3,.cls-5{fill:none;}.cls-2{fill:#3e3a39;}.cls-3,.cls-5{stroke:#3e3a39;stroke-miterlimit:10;}.cls-4{fill:#fff;}.cls-5{stroke-width:3px;}.cls-6{fill:url(#새_패턴_9);}.cls-7{fill:url(#새_패턴_11);}.cls-8{fill:url(#새_패턴_4);}.cls-9{fill:url(#새_패턴_12);}</style><pattern id="새_패턴_9" data-name="새 패턴 9" width="35" height="448.67" patternTransform="translate(-38.13 453.36)" patternUnits="userSpaceOnUse" viewBox="0 0 35 448.67"><rect class="cls-1" width="35" height="448.67"/><line class="cls-5" x1="141.85" y1="0.35" x2="33.15" y2="448.31"/><line class="cls-5" x1="134.85" y1="0.35" x2="26.15" y2="448.31"/><line class="cls-5" x1="127.85" y1="0.35" x2="19.15" y2="448.31"/><line class="cls-5" x1="120.85" y1="0.35" x2="12.15" y2="448.31"/><line class="cls-5" x1="113.85" y1="0.35" x2="5.15" y2="448.31"/><line class="cls-5" x1="106.85" y1="0.35" x2="-1.85" y2="448.31"/><line class="cls-5" x1="99.85" y1="0.35" x2="-8.85" y2="448.31"/><line class="cls-5" x1="92.85" y1="0.35" x2="-15.85" y2="448.31"/><line class="cls-5" x1="85.85" y1="0.35" x2="-22.85" y2="448.31"/><line class="cls-5" x1="78.85" y1="0.35" x2="-29.85" y2="448.31"/><line class="cls-5" x1="71.85" y1="0.35" x2="-36.85" y2="448.31"/><line class="cls-5" x1="64.85" y1="0.35" x2="-43.85" y2="448.31"/><line class="cls-5" x1="57.85" y1="0.35" x2="-50.85" y2="448.31"/><line class="cls-5" x1="50.85" y1="0.35" x2="-57.85" y2="448.31"/><line class="cls-5" x1="43.85" y1="0.35" x2="-64.85" y2="448.31"/><line class="cls-5" x1="36.85" y1="0.35" x2="-71.85" y2="448.31"/><line class="cls-5" x1="29.85" y1="0.35" x2="-78.85" y2="448.31"/><line class="cls-5" x1="22.85" y1="0.35" x2="-85.85" y2="448.31"/><line class="cls-5" x1="15.85" y1="0.35" x2="-92.85" y2="448.31"/><line class="cls-5" x1="8.85" y1="0.35" x2="-99.85" y2="448.31"/><line class="cls-5" x1="1.85" y1="0.35" x2="-106.85" y2="448.31"/></pattern><pattern id="새_패턴_11" data-name="새 패턴 11" width="23.78" height="24.92" patternTransform="translate(-23.12 4.86)" patternUnits="userSpaceOnUse" viewBox="0 0 23.78 24.92"><rect class="cls-1" width="23.78" height="24.92"/><polygon class="cls-2" points="23.78 0 17.83 12.46 23.78 24.92 29.72 12.46 23.78 0"/><polygon class="cls-2" points="11.89 0 5.94 12.46 11.89 24.92 17.83 12.46 11.89 0"/><polygon class="cls-2" points="0 0 -5.94 12.46 0 24.92 5.94 12.46 0 0"/></pattern><pattern id="새_패턴_4" data-name="새 패턴 4" width="83" height="140" patternTransform="translate(-91.13 62.02)" patternUnits="userSpaceOnUse" viewBox="0 0 83 140"><rect class="cls-1" width="83" height="140"/><rect class="cls-2" x="40.28" y="103.45" width="85.44" height="73.11"/><polygon class="cls-4" points="71.37 140.35 75.29 139.79 71.37 139.23 73 137.06 70.89 138.64 70.27 130.6 69.64 138.64 67.53 137.06 69.17 139.23 65.24 139.79 69.17 140.35 67.53 142.52 69.64 140.94 70.27 148.99 70.89 140.94 73 142.52 71.37 140.35"/><polygon class="cls-4" points="46.57 133.53 47.59 133.38 46.57 133.24 46.99 132.67 46.45 133.08 46.28 130.99 46.12 133.08 45.58 132.67 46 133.24 44.98 133.38 46 133.53 45.58 134.09 46.12 133.68 46.28 135.77 46.45 133.68 46.99 134.09 46.57 133.53"/><polygon class="cls-4" points="65.55 123.78 66.96 123.57 65.55 123.37 66.13 122.59 65.37 123.16 65.15 120.26 64.92 123.16 64.16 122.59 64.75 123.37 63.34 123.57 64.75 123.78 64.16 124.56 64.92 123.99 65.15 126.89 65.37 123.99 66.13 124.56 65.55 123.78"/><polygon class="cls-4" points="77.91 111.8 81.27 111.33 77.91 110.85 79.31 108.98 77.5 110.34 76.97 103.45 76.43 110.34 74.63 108.98 76.02 110.85 72.66 111.33 76.02 111.8 74.63 113.67 76.43 112.31 76.97 119.2 77.5 112.31 79.31 113.67 77.91 111.8"/><path class="cls-4" d="M74.24,123.57a5.5,5.5,0,0,0-1.1.45,7.54,7.54,0,0,0-.48,1.72,8,8,0,0,0-.58-1.8,4.55,4.55,0,0,0-1-.37,5.5,5.5,0,0,0,1.1-.45,7.54,7.54,0,0,0,.48-1.72,7.54,7.54,0,0,0,.48,1.72A5.5,5.5,0,0,0,74.24,123.57Z"/><path class="cls-4" d="M44.19,119.37a7.28,7.28,0,0,0,1.45-.6,10,10,0,0,0,.64-2.27,10.52,10.52,0,0,0,.76,2.38,6,6,0,0,0,1.33.49,7.27,7.27,0,0,0-1.45.6,10,10,0,0,0-.64,2.27,10,10,0,0,0-.64-2.27A7.28,7.28,0,0,0,44.19,119.37Z"/><path class="cls-4" d="M80.39,117.56A7.06,7.06,0,0,0,81.8,117a9.67,9.67,0,0,0,.62-2.21,10.22,10.22,0,0,0,.74,2.31,5.87,5.87,0,0,0,1.29.48,7.06,7.06,0,0,0-1.41.58,9.69,9.69,0,0,0-.62,2.21,9.69,9.69,0,0,0-.62-2.21A7.06,7.06,0,0,0,80.39,117.56Z"/><path class="cls-4" d="M52.26,127.22a10.4,10.4,0,0,0,2.08-.86c.36-.31.91-3.25.91-3.25s.68,3.06,1.09,3.4a8.62,8.62,0,0,0,1.9.7,10.4,10.4,0,0,0-2.08.86c-.36.31-.91,3.25-.91,3.25s-.55-2.94-.91-3.25A10.4,10.4,0,0,0,52.26,127.22Z"/><path class="cls-4" d="M80.17,125.75a3.15,3.15,0,0,0,.63-.26,4.32,4.32,0,0,0,.28-1,4.56,4.56,0,0,0,.33,1,2.61,2.61,0,0,0,.58.21,3.15,3.15,0,0,0-.63.26,4.32,4.32,0,0,0-.28,1,4.32,4.32,0,0,0-.28-1A3.15,3.15,0,0,0,80.17,125.75Z"/><path class="cls-4" d="M62.94,129.39a3.15,3.15,0,0,0,.63-.26,4.32,4.32,0,0,0,.28-1,4.56,4.56,0,0,0,.33,1,2.61,2.61,0,0,0,.58.21,3.15,3.15,0,0,0-.63.26,4.32,4.32,0,0,0-.28,1,4.32,4.32,0,0,0-.28-1A3.15,3.15,0,0,0,62.94,129.39Z"/><path class="cls-4" d="M40.75,127.35a1.76,1.76,0,0,0,.35-.15,2.4,2.4,0,0,0,.15-.55,2.55,2.55,0,0,0,.18.58,1.46,1.46,0,0,0,.32.12,1.77,1.77,0,0,0-.35.15,2.41,2.41,0,0,0-.15.55,2.41,2.41,0,0,0-.15-.55A1.76,1.76,0,0,0,40.75,127.35Z"/><path class="cls-4" d="M53.05,140.17a1.76,1.76,0,0,0,.35-.15,2.4,2.4,0,0,0,.15-.55,2.55,2.55,0,0,0,.18.58,1.46,1.46,0,0,0,.32.12,1.77,1.77,0,0,0-.35.15,2.41,2.41,0,0,0-.15.55,2.41,2.41,0,0,0-.15-.55A1.76,1.76,0,0,0,53.05,140.17Z"/><path class="cls-4" d="M45.78,128.3a1.76,1.76,0,0,0,.35-.15,2.4,2.4,0,0,0,.15-.55,2.55,2.55,0,0,0,.18.58,1.46,1.46,0,0,0,.32.12,1.77,1.77,0,0,0-.35.15,2.41,2.41,0,0,0-.15.55,2.41,2.41,0,0,0-.15-.55A1.76,1.76,0,0,0,45.78,128.3Z"/><path class="cls-4" d="M49.5,113.06a1.76,1.76,0,0,0,.35-.15,2.4,2.4,0,0,0,.15-.55,2.55,2.55,0,0,0,.18.58,1.46,1.46,0,0,0,.32.12,1.77,1.77,0,0,0-.35.15,2.41,2.41,0,0,0-.15.55,2.41,2.41,0,0,0-.15-.55A1.76,1.76,0,0,0,49.5,113.06Z"/><path class="cls-4" d="M57.73,117.19a1.76,1.76,0,0,0,.35-.15,2.4,2.4,0,0,0,.15-.55,2.55,2.55,0,0,0,.18.58,1.46,1.46,0,0,0,.32.12,1.77,1.77,0,0,0-.35.15,2.41,2.41,0,0,0-.15.55,2.41,2.41,0,0,0-.15-.55A1.76,1.76,0,0,0,57.73,117.19Z"/><path class="cls-4" d="M55.58,106.78a1.76,1.76,0,0,0,.35-.15,2.4,2.4,0,0,0,.15-.55,2.55,2.55,0,0,0,.18.58,1.46,1.46,0,0,0,.32.12,1.77,1.77,0,0,0-.35.15,2.41,2.41,0,0,0-.15.55,2.41,2.41,0,0,0-.15-.55A1.76,1.76,0,0,0,55.58,106.78Z"/><path class="cls-4" d="M64.81,114.45a1.76,1.76,0,0,0,.35-.15,2.4,2.4,0,0,0,.15-.55,2.55,2.55,0,0,0,.18.58,1.46,1.46,0,0,0,.32.12,1.77,1.77,0,0,0-.35.15,2.41,2.41,0,0,0-.15.55,2.41,2.41,0,0,0-.15-.55A1.76,1.76,0,0,0,64.81,114.45Z"/><path class="cls-4" d="M71.08,107.48a1.76,1.76,0,0,0,.35-.15,2.4,2.4,0,0,0,.15-.55,2.55,2.55,0,0,0,.18.58,1.46,1.46,0,0,0,.32.12,1.77,1.77,0,0,0-.35.15,2.41,2.41,0,0,0-.15.55,2.41,2.41,0,0,0-.15-.55A1.76,1.76,0,0,0,71.08,107.48Z"/><path class="cls-4" d="M43.16,106.78a1.76,1.76,0,0,0,.35-.15,2.4,2.4,0,0,0,.15-.55,2.55,2.55,0,0,0,.18.58,1.46,1.46,0,0,0,.32.12,1.77,1.77,0,0,0-.35.15,2.41,2.41,0,0,0-.15.55,2.41,2.41,0,0,0-.15-.55A1.76,1.76,0,0,0,43.16,106.78Z"/><path class="cls-4" d="M61.27,108.17a1.76,1.76,0,0,0,.35-.15,2.4,2.4,0,0,0,.15-.55,2.55,2.55,0,0,0,.18.58,1.46,1.46,0,0,0,.32.12,1.77,1.77,0,0,0-.35.15,2.41,2.41,0,0,0-.15.55,2.41,2.41,0,0,0-.15-.55A1.76,1.76,0,0,0,61.27,108.17Z"/><path class="cls-4" d="M50,116.87a1.76,1.76,0,0,0,.35-.15,2.4,2.4,0,0,0,.15-.55,2.55,2.55,0,0,0,.18.58,1.46,1.46,0,0,0,.32.12,1.77,1.77,0,0,0-.35.15,2.41,2.41,0,0,0-.15.55,2.41,2.41,0,0,0-.15-.55A1.76,1.76,0,0,0,50,116.87Z"/><path class="cls-4" d="M59.86,111.33a1.76,1.76,0,0,0,.35-.15,2.4,2.4,0,0,0,.15-.55,2.55,2.55,0,0,0,.18.58,1.46,1.46,0,0,0,.32.12,1.77,1.77,0,0,0-.35.15,2.41,2.41,0,0,0-.15.55,2.41,2.41,0,0,0-.15-.55A1.76,1.76,0,0,0,59.86,111.33Z"/><path class="cls-4" d="M47.36,113.75a1.76,1.76,0,0,0,.35-.15,2.4,2.4,0,0,0,.15-.55,2.55,2.55,0,0,0,.18.58,1.46,1.46,0,0,0,.32.12,1.77,1.77,0,0,0-.35.15,2.41,2.41,0,0,0-.15.55,2.41,2.41,0,0,0-.15-.55A1.76,1.76,0,0,0,47.36,113.75Z"/><polygon class="cls-4" points="79.85 134.06 80.87 133.91 79.85 133.76 80.27 133.2 79.73 133.61 79.56 131.52 79.4 133.61 78.85 133.2 79.28 133.76 78.26 133.91 79.28 134.06 78.85 134.62 79.4 134.21 79.56 136.3 79.73 134.21 80.27 134.62 79.85 134.06"/><path class="cls-4" d="M82.55,140.09a1.76,1.76,0,0,0,.35-.15,2.4,2.4,0,0,0,.15-.55,2.55,2.55,0,0,0,.18.58,1.46,1.46,0,0,0,.32.12,1.77,1.77,0,0,0-.35.15,2.41,2.41,0,0,0-.15.55,2.41,2.41,0,0,0-.15-.55A1.76,1.76,0,0,0,82.55,140.09Z"/><path class="cls-4" d="M80.75,129.9a1.76,1.76,0,0,0,.35-.15,2.41,2.41,0,0,0,.15-.55,2.55,2.55,0,0,0,.18.58,1.46,1.46,0,0,0,.32.12,1.77,1.77,0,0,0-.35.15,2.41,2.41,0,0,0-.15.55,2.41,2.41,0,0,0-.15-.55A1.76,1.76,0,0,0,80.75,129.9Z"/><path class="cls-4" d="M57.1,115.15a1.76,1.76,0,0,0-.35.15,2.4,2.4,0,0,0-.15.55,2.55,2.55,0,0,0-.18-.58,1.46,1.46,0,0,0-.32-.12,1.77,1.77,0,0,0,.35-.15,2.41,2.41,0,0,0,.15-.55,2.4,2.4,0,0,0,.15.55A1.76,1.76,0,0,0,57.1,115.15Z"/><path class="cls-4" d="M75.89,134.08a1.76,1.76,0,0,0,.35-.15,2.4,2.4,0,0,0,.15-.55,2.55,2.55,0,0,0,.18.58,1.46,1.46,0,0,0,.32.12,1.77,1.77,0,0,0-.35.15,2.41,2.41,0,0,0-.15.55,2.41,2.41,0,0,0-.15-.55A1.76,1.76,0,0,0,75.89,134.08Z"/><path class="cls-4" d="M75.25,132a1.76,1.76,0,0,0-.35.15,2.4,2.4,0,0,0-.15.55,2.55,2.55,0,0,0-.18-.58,1.46,1.46,0,0,0-.32-.12,1.77,1.77,0,0,0,.35-.15,2.41,2.41,0,0,0,.15-.55,2.4,2.4,0,0,0,.15.55A1.76,1.76,0,0,0,75.25,132Z"/><rect class="cls-2" x="-42.72" y="103.45" width="85.44" height="73.11"/><polygon class="cls-4" points="16.15 126.62 22.31 125.75 16.15 124.87 18.71 121.46 15.4 123.94 14.42 111.33 13.44 123.94 10.14 121.46 12.7 124.87 6.54 125.75 12.7 126.62 10.14 130.03 13.44 127.55 14.42 140.17 15.4 127.55 18.71 130.03 16.15 126.62"/><path class="cls-4" d="M42.72,125.07a6.84,6.84,0,0,0-1.37.56,9.37,9.37,0,0,0-.6,2.14,9.89,9.89,0,0,0-.72-2.24,5.66,5.66,0,0,0-1.25-.46,6.84,6.84,0,0,0,1.37-.56,9.38,9.38,0,0,0,.6-2.14,9.38,9.38,0,0,0,.6,2.14A6.84,6.84,0,0,0,42.72,125.07Z"/><path class="cls-4" d="M19.72,115.15a4.4,4.4,0,0,0,.88-.36,6,6,0,0,0,.38-1.37,6.36,6.36,0,0,0,.46,1.44,3.64,3.64,0,0,0,.8.3,4.39,4.39,0,0,0-.88.36,6,6,0,0,0-.38,1.37,6,6,0,0,0-.38-1.37A4.4,4.4,0,0,0,19.72,115.15Z"/><path class="cls-4" d="M-2.61,117.56A7.06,7.06,0,0,0-1.2,117a9.67,9.67,0,0,0,.62-2.21,10.22,10.22,0,0,0,.74,2.31,5.87,5.87,0,0,0,1.29.48,7.06,7.06,0,0,0-1.41.58,9.69,9.69,0,0,0-.62,2.21,9.69,9.69,0,0,0-.62-2.21A7.06,7.06,0,0,0-2.61,117.56Z"/><path class="cls-4" d="M9,143.83a10.4,10.4,0,0,0,2.08-.86c.36-.31.91-3.25.91-3.25s.68,3.06,1.09,3.4a8.62,8.62,0,0,0,1.9.7,10.4,10.4,0,0,0-2.08.86c-.36.31-.91,3.25-.91,3.25s-.55-2.94-.91-3.25A10.4,10.4,0,0,0,9,143.83Z"/><path class="cls-4" d="M27.6,109.57A7.06,7.06,0,0,0,29,109a9.67,9.67,0,0,0,.62-2.21,10.22,10.22,0,0,0,.74,2.31,5.87,5.87,0,0,0,1.29.48,7.06,7.06,0,0,0-1.41.58,9.69,9.69,0,0,0-.62,2.21,9.69,9.69,0,0,0-.62-2.21A7.06,7.06,0,0,0,27.6,109.57Z"/><path class="cls-4" d="M8.83,140.17a3.15,3.15,0,0,0,.63-.26,4.32,4.32,0,0,0,.28-1,4.56,4.56,0,0,0,.33,1,2.61,2.61,0,0,0,.58.21,3.15,3.15,0,0,0-.63.26,4.32,4.32,0,0,0-.28,1,4.32,4.32,0,0,0-.28-1A3.15,3.15,0,0,0,8.83,140.17Z"/><path class="cls-4" d="M21.4,120.35a3.15,3.15,0,0,0,.63-.26,4.32,4.32,0,0,0,.28-1,4.56,4.56,0,0,0,.33,1,2.61,2.61,0,0,0,.58.21,3.15,3.15,0,0,0-.63.26,4.32,4.32,0,0,0-.28,1,4.32,4.32,0,0,0-.28-1A3.15,3.15,0,0,0,21.4,120.35Z"/><path class="cls-4" d="M23.21,127.22a3.15,3.15,0,0,0,.63-.26,4.32,4.32,0,0,0,.28-1,4.56,4.56,0,0,0,.33,1,2.61,2.61,0,0,0,.58.21,3.15,3.15,0,0,0-.63.26,4.32,4.32,0,0,0-.28,1,4.32,4.32,0,0,0-.28-1A3.15,3.15,0,0,0,23.21,127.22Z"/><path class="cls-4" d="M28.72,129a3.15,3.15,0,0,0,.63-.26,4.32,4.32,0,0,0,.28-1,4.56,4.56,0,0,0,.33,1,2.61,2.61,0,0,0,.58.21,3.15,3.15,0,0,0-.63.26,4.32,4.32,0,0,0-.28,1,4.32,4.32,0,0,0-.28-1A3.15,3.15,0,0,0,28.72,129Z"/><path class="cls-4" d="M22.31,138.92a3.15,3.15,0,0,0,.63-.26,4.32,4.32,0,0,0,.28-1,4.56,4.56,0,0,0,.33,1,2.61,2.61,0,0,0,.58.21,3.15,3.15,0,0,0-.63.26,4.32,4.32,0,0,0-.28,1,4.32,4.32,0,0,0-.28-1A3.15,3.15,0,0,0,22.31,138.92Z"/><path class="cls-4" d="M19.24,109.57a2.68,2.68,0,0,0,.54-.22,3.67,3.67,0,0,0,.23-.84,3.88,3.88,0,0,0,.28.88,2.22,2.22,0,0,0,.49.18,2.68,2.68,0,0,0-.54.22,3.67,3.67,0,0,0-.23.84,3.67,3.67,0,0,0-.23-.84A2.68,2.68,0,0,0,19.24,109.57Z"/><path class="cls-4" d="M.46,138.66a2.68,2.68,0,0,0,.54-.22,3.67,3.67,0,0,0,.23-.84,3.88,3.88,0,0,0,.28.88,2.22,2.22,0,0,0,.49.18,2.68,2.68,0,0,0-.54.22,3.67,3.67,0,0,0-.23.84,3.67,3.67,0,0,0-.23-.84A2.68,2.68,0,0,0,.46,138.66Z"/><path class="cls-4" d="M20,129a1.76,1.76,0,0,0,.35-.15,2.4,2.4,0,0,0,.15-.55,2.55,2.55,0,0,0,.18.58A1.46,1.46,0,0,0,21,129a1.77,1.77,0,0,0-.35.15,2.41,2.41,0,0,0-.15.55,2.4,2.4,0,0,0-.15-.55A1.76,1.76,0,0,0,20,129Z"/><path class="cls-4" d="M30,132.32a1.76,1.76,0,0,0,.35-.15,2.4,2.4,0,0,0,.15-.55,2.55,2.55,0,0,0,.18.58,1.46,1.46,0,0,0,.32.12,1.77,1.77,0,0,0-.35.15,2.41,2.41,0,0,0-.15.55,2.41,2.41,0,0,0-.15-.55A1.76,1.76,0,0,0,30,132.32Z"/><path class="cls-4" d="M20,140.17a1.76,1.76,0,0,0,.35-.15,2.4,2.4,0,0,0,.15-.55,2.55,2.55,0,0,0,.18.58,1.46,1.46,0,0,0,.32.12,1.77,1.77,0,0,0-.35.15,2.41,2.41,0,0,0-.15.55,2.41,2.41,0,0,0-.15-.55A1.76,1.76,0,0,0,20,140.17Z"/><path class="cls-4" d="M18.47,137.6a1.76,1.76,0,0,0,.35-.15,2.4,2.4,0,0,0,.15-.55,2.55,2.55,0,0,0,.18.58,1.46,1.46,0,0,0,.32.12,1.77,1.77,0,0,0-.35.15,2.41,2.41,0,0,0-.15.55,2.41,2.41,0,0,0-.15-.55A1.76,1.76,0,0,0,18.47,137.6Z"/><path class="cls-4" d="M16.14,133.38a1.76,1.76,0,0,0,.35-.15,2.4,2.4,0,0,0,.15-.55,2.55,2.55,0,0,0,.18.58,1.46,1.46,0,0,0,.32.12,1.77,1.77,0,0,0-.35.15,2.41,2.41,0,0,0-.15.55,2.41,2.41,0,0,0-.15-.55A1.76,1.76,0,0,0,16.14,133.38Z"/><path class="cls-4" d="M36.37,113.75a1.76,1.76,0,0,0,.35-.15,2.4,2.4,0,0,0,.15-.55,2.55,2.55,0,0,0,.18.58,1.46,1.46,0,0,0,.32.12,1.77,1.77,0,0,0-.35.15,2.41,2.41,0,0,0-.15.55,2.41,2.41,0,0,0-.15-.55A1.76,1.76,0,0,0,36.37,113.75Z"/><path class="cls-4" d="M6.54,110.63a1.76,1.76,0,0,0,.35-.15,2.4,2.4,0,0,0,.15-.55,2.55,2.55,0,0,0,.18.58,1.46,1.46,0,0,0,.32.12,1.77,1.77,0,0,0-.35.15,2.41,2.41,0,0,0-.15.55,2.41,2.41,0,0,0-.15-.55A1.76,1.76,0,0,0,6.54,110.63Z"/><path class="cls-4" d="M32.53,122.37a1.76,1.76,0,0,0,.35-.15,2.4,2.4,0,0,0,.15-.55,2.55,2.55,0,0,0,.18.58,1.46,1.46,0,0,0,.32.12,1.77,1.77,0,0,0-.35.15,2.41,2.41,0,0,0-.15.55,2.41,2.41,0,0,0-.15-.55A1.76,1.76,0,0,0,32.53,122.37Z"/><path class="cls-4" d="M38.28,136.91a1.76,1.76,0,0,0,.35-.15,2.4,2.4,0,0,0,.15-.55,2.55,2.55,0,0,0,.18.58,1.46,1.46,0,0,0,.32.12,1.77,1.77,0,0,0-.35.15,2.41,2.41,0,0,0-.15.55,2.41,2.41,0,0,0-.15-.55A1.76,1.76,0,0,0,38.28,136.91Z"/><path class="cls-4" d="M10.24,135.77a1.76,1.76,0,0,0,.35-.15,2.4,2.4,0,0,0,.15-.55,2.55,2.55,0,0,0,.18.58,1.46,1.46,0,0,0,.32.12,1.77,1.77,0,0,0-.35.15,2.41,2.41,0,0,0-.15.55,2.41,2.41,0,0,0-.15-.55A1.76,1.76,0,0,0,10.24,135.77Z"/><path class="cls-4" d="M.77,133.55a3.15,3.15,0,0,0,.63-.26,4.32,4.32,0,0,0,.28-1,4.56,4.56,0,0,0,.33,1,2.61,2.61,0,0,0,.58.21,3.15,3.15,0,0,0-.63.26,4.32,4.32,0,0,0-.28,1,4.32,4.32,0,0,0-.28-1A3.15,3.15,0,0,0,.77,133.55Z"/><path class="cls-4" d="M6.63,139.75a1.76,1.76,0,0,0,.35-.15,2.4,2.4,0,0,0,.15-.55,2.55,2.55,0,0,0,.18.58,1.46,1.46,0,0,0,.32.12,1.77,1.77,0,0,0-.35.15,2.41,2.41,0,0,0-.15.55A2.4,2.4,0,0,0,7,139.9,1.76,1.76,0,0,0,6.63,139.75Z"/><path class="cls-4" d="M-.45,140.09a1.76,1.76,0,0,0,.35-.15,2.4,2.4,0,0,0,.15-.55,2.55,2.55,0,0,0,.18.58,1.46,1.46,0,0,0,.32.12,1.77,1.77,0,0,0-.35.15,2.41,2.41,0,0,0-.15.55,2.41,2.41,0,0,0-.15-.55A1.76,1.76,0,0,0-.45,140.09Z"/><path class="cls-4" d="M4.82,116.87a1.76,1.76,0,0,0,.35-.15,2.4,2.4,0,0,0,.15-.55,2.55,2.55,0,0,0,.18.58,1.46,1.46,0,0,0,.32.12,1.77,1.77,0,0,0-.35.15,2.41,2.41,0,0,0-.15.55,2.41,2.41,0,0,0-.15-.55A1.76,1.76,0,0,0,4.82,116.87Z"/><path class="cls-4" d="M4.19,114.82a1.76,1.76,0,0,0-.35.15,2.4,2.4,0,0,0-.15.55,2.55,2.55,0,0,0-.18-.58,1.46,1.46,0,0,0-.32-.12,1.77,1.77,0,0,0,.35-.15,2.41,2.41,0,0,0,.15-.55,2.4,2.4,0,0,0,.15.55A1.76,1.76,0,0,0,4.19,114.82Z"/><rect class="cls-2" x="81.78" y="33.45" width="85.44" height="73.11"/><path class="cls-4" d="M82.25,57.35a1.76,1.76,0,0,0,.35-.15,2.4,2.4,0,0,0,.15-.55,2.55,2.55,0,0,0,.18.58,1.46,1.46,0,0,0,.32.12,1.77,1.77,0,0,0-.35.15,2.41,2.41,0,0,0-.15.55,2.41,2.41,0,0,0-.15-.55A1.76,1.76,0,0,0,82.25,57.35Z"/><rect class="cls-2" x="-1.22" y="33.45" width="85.44" height="73.11"/><polygon class="cls-4" points="29.87 70.35 33.79 69.79 29.87 69.23 31.5 67.06 29.39 68.64 28.77 60.6 28.14 68.64 26.04 67.06 27.67 69.23 23.74 69.79 27.67 70.35 26.04 72.52 28.14 70.94 28.77 78.99 29.39 70.94 31.5 72.52 29.87 70.35"/><polygon class="cls-4" points="57.65 56.62 63.81 55.75 57.65 54.87 60.21 51.46 56.91 53.94 55.92 41.33 54.94 53.94 51.64 51.46 54.2 54.87 48.04 55.75 54.2 56.62 51.64 60.03 54.94 57.55 55.92 70.17 56.91 57.55 60.21 60.03 57.65 56.62"/><polygon class="cls-4" points="7.39 85.48 10.76 85 7.39 84.52 8.79 82.66 6.99 84.02 6.45 77.12 5.92 84.02 4.11 82.66 5.51 84.52 2.15 85 5.51 85.48 4.11 87.34 5.92 85.99 6.45 92.88 6.99 85.99 8.79 87.34 7.39 85.48"/><polygon class="cls-4" points="32.1 99.15 35.47 98.67 32.1 98.2 33.5 96.33 31.7 97.69 31.16 90.8 30.62 97.69 28.82 96.33 30.22 98.2 26.85 98.67 30.22 99.15 28.82 101.02 30.62 99.66 31.16 106.55 31.7 99.66 33.5 101.02 32.1 99.15"/><polygon class="cls-4" points="53.98 86.6 55.81 86.34 53.98 86.08 54.74 85.07 53.76 85.81 53.46 82.04 53.17 85.81 52.19 85.07 52.95 86.08 51.11 86.34 52.95 86.6 52.19 87.62 53.17 86.88 53.46 90.64 53.76 86.88 54.74 87.62 53.98 86.6"/><polygon class="cls-4" points="22.8 77.64 25.06 77.31 22.8 76.99 23.74 75.74 22.52 76.65 22.16 72.01 21.8 76.65 20.59 75.74 21.53 76.99 19.26 77.31 21.53 77.64 20.59 78.89 21.8 77.98 22.16 82.62 22.52 77.98 23.74 78.89 22.8 77.64"/><polygon class="cls-4" points="63.54 95.18 65.8 94.85 63.54 94.53 64.48 93.28 63.26 94.19 62.9 89.55 62.54 94.19 61.33 93.28 62.27 94.53 60 94.85 62.27 95.18 61.33 96.43 62.54 95.52 62.9 100.16 63.26 95.52 64.48 96.43 63.54 95.18"/><polygon class="cls-4" points="68.59 84.86 70 84.66 68.59 84.46 69.18 83.68 68.42 84.25 68.19 81.35 67.97 84.25 67.21 83.68 67.8 84.46 66.38 84.66 67.8 84.86 67.21 85.65 67.97 85.08 68.19 87.98 68.42 85.08 69.18 85.65 68.59 84.86"/><polygon class="cls-4" points="14.04 89.85 15.06 89.7 14.04 89.56 14.46 89 13.91 89.41 13.75 87.32 13.59 89.41 13.04 89 13.46 89.56 12.45 89.7 13.46 89.85 13.04 90.42 13.59 90 13.75 92.09 13.91 90 14.46 90.42 14.04 89.85"/><polygon class="cls-4" points="5.07 63.52 6.09 63.38 5.07 63.23 5.5 62.67 4.95 63.08 4.79 60.99 4.62 63.08 4.08 62.67 4.5 63.23 3.48 63.38 4.5 63.52 4.08 64.09 4.62 63.68 4.79 65.77 4.95 63.68 5.5 64.09 5.07 63.52"/><polygon class="cls-4" points="24.05 53.77 25.46 53.57 24.05 53.37 24.63 52.59 23.87 53.16 23.65 50.26 23.42 53.16 22.66 52.59 23.25 53.37 21.84 53.57 23.25 53.77 22.66 54.56 23.42 53.99 23.65 56.89 23.87 53.99 24.63 54.56 24.05 53.77"/><polygon class="cls-4" points="36.41 41.8 39.77 41.33 36.41 40.85 37.81 38.98 36 40.34 35.47 33.45 34.93 40.34 33.13 38.98 34.52 40.85 31.16 41.33 34.52 41.8 33.13 43.67 34.93 42.31 35.47 49.2 36 42.31 37.81 43.67 36.41 41.8"/><path class="cls-4" d="M32.74,53.57a5.5,5.5,0,0,0-1.1.45,7.54,7.54,0,0,0-.48,1.72,8,8,0,0,0-.58-1.8,4.55,4.55,0,0,0-1-.37,5.5,5.5,0,0,0,1.1-.45,7.54,7.54,0,0,0,.48-1.72,7.54,7.54,0,0,0,.48,1.72A5.5,5.5,0,0,0,32.74,53.57Z"/><path class="cls-4" d="M40.92,74.93a4.67,4.67,0,0,0-.93.39,6.4,6.4,0,0,0-.41,1.46,6.76,6.76,0,0,0-.49-1.53,3.88,3.88,0,0,0-.85-.32,4.67,4.67,0,0,0,.93-.39,6.4,6.4,0,0,0,.41-1.46A6.41,6.41,0,0,0,40,74.54,4.67,4.67,0,0,0,40.92,74.93Z"/><path class="cls-4" d="M84.22,55.07a6.84,6.84,0,0,0-1.37.56,9.37,9.37,0,0,0-.6,2.14,9.89,9.89,0,0,0-.72-2.24,5.66,5.66,0,0,0-1.25-.46,6.84,6.84,0,0,0,1.37-.56,9.38,9.38,0,0,0,.6-2.14,9.38,9.38,0,0,0,.6,2.14A6.84,6.84,0,0,0,84.22,55.07Z"/><path class="cls-4" d="M57.64,94.7"/><path class="cls-4" d="M2.69,49.37a7.28,7.28,0,0,0,1.45-.6,10,10,0,0,0,.64-2.27,10.52,10.52,0,0,0,.76,2.38,6,6,0,0,0,1.33.49,7.27,7.27,0,0,0-1.45.6,10,10,0,0,0-.64,2.27A10,10,0,0,0,4.15,50,7.28,7.28,0,0,0,2.69,49.37Z"/><path class="cls-4" d="M61.22,45.15a4.4,4.4,0,0,0,.88-.36,6,6,0,0,0,.38-1.37,6.36,6.36,0,0,0,.46,1.44,3.64,3.64,0,0,0,.8.3,4.39,4.39,0,0,0-.88.36,6,6,0,0,0-.38,1.37,6,6,0,0,0-.38-1.37A4.4,4.4,0,0,0,61.22,45.15Z"/><path class="cls-4" d="M8,98.68a7.06,7.06,0,0,0,1.41-.58A9.67,9.67,0,0,0,10,95.88a10.22,10.22,0,0,0,.74,2.31,5.87,5.87,0,0,0,1.29.48,7.06,7.06,0,0,0-1.41.58,9.69,9.69,0,0,0-.62,2.21,9.69,9.69,0,0,0-.62-2.21A7.06,7.06,0,0,0,8,98.68Z"/><path class="cls-4" d="M72.51,94.7a7.06,7.06,0,0,0,1.41-.58,9.67,9.67,0,0,0,.62-2.21,10.22,10.22,0,0,0,.74,2.31,5.87,5.87,0,0,0,1.29.48,7.06,7.06,0,0,0-1.41.58,9.69,9.69,0,0,0-.62,2.21,9.69,9.69,0,0,0-.62-2.21A7.06,7.06,0,0,0,72.51,94.7Z"/><path class="cls-4" d="M73,81.87a7.06,7.06,0,0,0,1.41-.58A9.67,9.67,0,0,0,75,79.08a10.22,10.22,0,0,0,.74,2.31,5.87,5.87,0,0,0,1.29.48,7.06,7.06,0,0,0-1.41.58A9.69,9.69,0,0,0,75,84.66a9.69,9.69,0,0,0-.62-2.21A7.06,7.06,0,0,0,73,81.87Z"/><path class="cls-4" d="M38.89,47.56A7.06,7.06,0,0,0,40.3,47a9.67,9.67,0,0,0,.62-2.21,10.22,10.22,0,0,0,.74,2.31,5.87,5.87,0,0,0,1.29.48,7.06,7.06,0,0,0-1.41.58,9.69,9.69,0,0,0-.62,2.21,9.69,9.69,0,0,0-.62-2.21A7.06,7.06,0,0,0,38.89,47.56Z"/><path class="cls-4" d="M10.76,57.22a10.4,10.4,0,0,0,2.08-.86c.36-.31.91-3.25.91-3.25s.68,3.06,1.09,3.4a8.62,8.62,0,0,0,1.9.7,10.4,10.4,0,0,0-2.08.86c-.36.31-.91,3.25-.91,3.25s-.55-2.94-.91-3.25A10.4,10.4,0,0,0,10.76,57.22Z"/><path class="cls-4" d="M50.47,73.83A10.4,10.4,0,0,0,52.55,73c.36-.31.91-3.25.91-3.25s.68,3.06,1.09,3.4a8.62,8.62,0,0,0,1.9.7,10.4,10.4,0,0,0-2.08.86c-.36.31-.91,3.25-.91,3.25s-.55-2.94-.91-3.25A10.4,10.4,0,0,0,50.47,73.83Z"/><path class="cls-4" d="M69.1,39.57A7.06,7.06,0,0,0,70.51,39a9.67,9.67,0,0,0,.62-2.21,10.22,10.22,0,0,0,.74,2.31,5.87,5.87,0,0,0,1.29.48,7.06,7.06,0,0,0-1.41.58,9.69,9.69,0,0,0-.62,2.21,9.69,9.69,0,0,0-.62-2.21A7.06,7.06,0,0,0,69.1,39.57Z"/><path class="cls-4" d="M39.79,89.71a7.06,7.06,0,0,0,1.41-.58,9.67,9.67,0,0,0,.62-2.21,10.22,10.22,0,0,0,.74,2.31,5.87,5.87,0,0,0,1.29.48,7.06,7.06,0,0,0-1.41.58,9.69,9.69,0,0,0-.62,2.21,9.69,9.69,0,0,0-.62-2.21A7.06,7.06,0,0,0,39.79,89.71Z"/><path class="cls-4" d="M59.36,101.94a3.15,3.15,0,0,0,.63-.26,4.32,4.32,0,0,0,.28-1,4.56,4.56,0,0,0,.33,1,2.61,2.61,0,0,0,.58.21,3.15,3.15,0,0,0-.63.26,4.32,4.32,0,0,0-.28,1,4.32,4.32,0,0,0-.28-1A3.15,3.15,0,0,0,59.36,101.94Z"/><path class="cls-4" d="M18,89.34a3.15,3.15,0,0,0,.63-.26,4.32,4.32,0,0,0,.28-1,4.56,4.56,0,0,0,.33,1,2.61,2.61,0,0,0,.58.21,3.15,3.15,0,0,0-.63.26,4.32,4.32,0,0,0-.28,1,4.32,4.32,0,0,0-.28-1A3.15,3.15,0,0,0,18,89.34Z"/><path class="cls-4" d="M68.19,102.63a3.15,3.15,0,0,0,.63-.26,4.32,4.32,0,0,0,.28-1,4.56,4.56,0,0,0,.33,1,2.61,2.61,0,0,0,.58.21,3.15,3.15,0,0,0-.63.26,4.32,4.32,0,0,0-.28,1,4.32,4.32,0,0,0-.28-1A3.15,3.15,0,0,0,68.19,102.63Z"/><path class="cls-4" d="M50.33,70.17a3.15,3.15,0,0,0,.63-.26,4.32,4.32,0,0,0,.28-1,4.56,4.56,0,0,0,.33,1,2.61,2.61,0,0,0,.58.21,3.15,3.15,0,0,0-.63.26,4.32,4.32,0,0,0-.28,1,4.32,4.32,0,0,0-.28-1A3.15,3.15,0,0,0,50.33,70.17Z"/><path class="cls-4" d="M38.67,55.75a3.15,3.15,0,0,0,.63-.26,4.32,4.32,0,0,0,.28-1,4.56,4.56,0,0,0,.33,1,2.61,2.61,0,0,0,.58.21,3.15,3.15,0,0,0-.63.26,4.32,4.32,0,0,0-.28,1,4.32,4.32,0,0,0-.28-1A3.15,3.15,0,0,0,38.67,55.75Z"/><path class="cls-4" d="M62.9,50.35a3.15,3.15,0,0,0,.63-.26,4.32,4.32,0,0,0,.28-1,4.56,4.56,0,0,0,.33,1,2.61,2.61,0,0,0,.58.21,3.15,3.15,0,0,0-.63.26,4.32,4.32,0,0,0-.28,1,4.32,4.32,0,0,0-.28-1A3.15,3.15,0,0,0,62.9,50.35Z"/><path class="cls-4" d="M21.44,59.39a3.15,3.15,0,0,0,.63-.26,4.32,4.32,0,0,0,.28-1,4.56,4.56,0,0,0,.33,1,2.61,2.61,0,0,0,.58.21,3.15,3.15,0,0,0-.63.26,4.32,4.32,0,0,0-.28,1,4.32,4.32,0,0,0-.28-1A3.15,3.15,0,0,0,21.44,59.39Z"/><path class="cls-4" d="M8.1,75.62a3.15,3.15,0,0,0,.63-.26,4.32,4.32,0,0,0,.28-1,4.56,4.56,0,0,0,.33,1,2.61,2.61,0,0,0,.58.21,3.15,3.15,0,0,0-.63.26,4.32,4.32,0,0,0-.28,1,4.32,4.32,0,0,0-.28-1A3.15,3.15,0,0,0,8.1,75.62Z"/><path class="cls-4" d="M64.71,57.22a3.15,3.15,0,0,0,.63-.26,4.32,4.32,0,0,0,.28-1A4.56,4.56,0,0,0,66,57a2.61,2.61,0,0,0,.58.21,3.15,3.15,0,0,0-.63.26,4.32,4.32,0,0,0-.28,1,4.32,4.32,0,0,0-.28-1A3.15,3.15,0,0,0,64.71,57.22Z"/><path class="cls-4" d="M70.22,59a3.15,3.15,0,0,0,.63-.26,4.32,4.32,0,0,0,.28-1,4.56,4.56,0,0,0,.33,1A2.61,2.61,0,0,0,72,59a3.15,3.15,0,0,0-.63.26,4.32,4.32,0,0,0-.28,1,4.32,4.32,0,0,0-.28-1A3.15,3.15,0,0,0,70.22,59Z"/><path class="cls-4" d="M63.81,68.92a3.15,3.15,0,0,0,.63-.26,4.32,4.32,0,0,0,.28-1,4.56,4.56,0,0,0,.33,1,2.61,2.61,0,0,0,.58.21,3.15,3.15,0,0,0-.63.26,4.32,4.32,0,0,0-.28,1,4.32,4.32,0,0,0-.28-1A3.15,3.15,0,0,0,63.81,68.92Z"/><path class="cls-4" d="M60.48,89.71a2.68,2.68,0,0,0,.54-.22,3.67,3.67,0,0,0,.23-.84,3.88,3.88,0,0,0,.28.88,2.22,2.22,0,0,0,.49.18,2.68,2.68,0,0,0-.54.22,3.67,3.67,0,0,0-.23.84,3.67,3.67,0,0,0-.23-.84A2.68,2.68,0,0,0,60.48,89.71Z"/><path class="cls-4" d="M41.05,94.7a2.68,2.68,0,0,0,.54-.22,3.67,3.67,0,0,0,.23-.84,3.88,3.88,0,0,0,.28.88,2.22,2.22,0,0,0,.49.18,2.68,2.68,0,0,0-.54.22,3.67,3.67,0,0,0-.23.84,3.67,3.67,0,0,0-.23-.84A2.68,2.68,0,0,0,41.05,94.7Z"/><path class="cls-4" d="M60.74,39.57a2.68,2.68,0,0,0,.54-.22,3.67,3.67,0,0,0,.23-.84,3.88,3.88,0,0,0,.28.88,2.22,2.22,0,0,0,.49.18,2.68,2.68,0,0,0-.54.22,3.67,3.67,0,0,0-.23.84,3.67,3.67,0,0,0-.23-.84A2.68,2.68,0,0,0,60.74,39.57Z"/><path class="cls-4" d="M61.25,78.37a2.68,2.68,0,0,0,.54-.22,3.67,3.67,0,0,0,.23-.84,3.88,3.88,0,0,0,.28.88,2.22,2.22,0,0,0,.49.18,2.68,2.68,0,0,0-.54.22,3.67,3.67,0,0,0-.23.84,3.67,3.67,0,0,0-.23-.84A2.68,2.68,0,0,0,61.25,78.37Z"/><path class="cls-4" d="M42,68.66a2.68,2.68,0,0,0,.54-.22,3.67,3.67,0,0,0,.23-.84,3.88,3.88,0,0,0,.28.88,2.22,2.22,0,0,0,.49.18,2.68,2.68,0,0,0-.54.22,3.67,3.67,0,0,0-.23.84,3.67,3.67,0,0,0-.23-.84A2.68,2.68,0,0,0,42,68.66Z"/><path class="cls-4" d="M23.81,95.55a1.76,1.76,0,0,0,.35-.15,2.4,2.4,0,0,0,.15-.55,2.55,2.55,0,0,0,.18.58,1.46,1.46,0,0,0,.32.12,1.77,1.77,0,0,0-.35.15,2.41,2.41,0,0,0-.15.55,2.4,2.4,0,0,0-.15-.55A1.76,1.76,0,0,0,23.81,95.55Z"/><path class="cls-4" d="M3,92.06a1.76,1.76,0,0,0,.35-.15,2.4,2.4,0,0,0,.15-.55,2.55,2.55,0,0,0,.18.58,1.46,1.46,0,0,0,.32.12,1.77,1.77,0,0,0-.35.15,2.41,2.41,0,0,0-.15.55,2.4,2.4,0,0,0-.15-.55A1.76,1.76,0,0,0,3,92.06Z"/><path class="cls-4" d="M61.51,59a1.76,1.76,0,0,0,.35-.15A2.4,2.4,0,0,0,62,58.3a2.55,2.55,0,0,0,.18.58,1.46,1.46,0,0,0,.32.12,1.77,1.77,0,0,0-.35.15,2.41,2.41,0,0,0-.15.55,2.4,2.4,0,0,0-.15-.55A1.76,1.76,0,0,0,61.51,59Z"/><path class="cls-4" d="M-.75,57.35A1.76,1.76,0,0,0-.4,57.2a2.4,2.4,0,0,0,.15-.55,2.55,2.55,0,0,0,.18.58,1.46,1.46,0,0,0,.32.12,1.77,1.77,0,0,0-.35.15A2.41,2.41,0,0,0-.25,58a2.41,2.41,0,0,0-.15-.55A1.76,1.76,0,0,0-.75,57.35Z"/><path class="cls-4" d="M11.55,70.17A1.76,1.76,0,0,0,11.9,70a2.4,2.4,0,0,0,.15-.55,2.55,2.55,0,0,0,.18.58,1.46,1.46,0,0,0,.32.12,1.77,1.77,0,0,0-.35.15,2.41,2.41,0,0,0-.15.55,2.41,2.41,0,0,0-.15-.55A1.76,1.76,0,0,0,11.55,70.17Z"/><path class="cls-4" d="M6.37,70.86a1.76,1.76,0,0,0,.35-.15,2.4,2.4,0,0,0,.15-.55,2.55,2.55,0,0,0,.18.58,1.46,1.46,0,0,0,.32.12A1.77,1.77,0,0,0,7,71a2.41,2.41,0,0,0-.15.55A2.41,2.41,0,0,0,6.72,71,1.76,1.76,0,0,0,6.37,70.86Z"/><path class="cls-4" d="M15.73,82.57a1.76,1.76,0,0,0,.35-.15,2.4,2.4,0,0,0,.15-.55,2.55,2.55,0,0,0,.18.58,1.46,1.46,0,0,0,.32.12,1.77,1.77,0,0,0-.35.15,2.41,2.41,0,0,0-.15.55,2.41,2.41,0,0,0-.15-.55A1.76,1.76,0,0,0,15.73,82.57Z"/><path class="cls-4" d="M71.53,62.32a1.76,1.76,0,0,0,.35-.15,2.4,2.4,0,0,0,.15-.55,2.55,2.55,0,0,0,.18.58,1.46,1.46,0,0,0,.32.12,1.77,1.77,0,0,0-.35.15A2.41,2.41,0,0,0,72,63a2.41,2.41,0,0,0-.15-.55A1.76,1.76,0,0,0,71.53,62.32Z"/><path class="cls-4" d="M61.51,70.17a1.76,1.76,0,0,0,.35-.15,2.4,2.4,0,0,0,.15-.55,2.55,2.55,0,0,0,.18.58,1.46,1.46,0,0,0,.32.12,1.77,1.77,0,0,0-.35.15,2.41,2.41,0,0,0-.15.55,2.41,2.41,0,0,0-.15-.55A1.76,1.76,0,0,0,61.51,70.17Z"/><path class="cls-4" d="M34.86,79.43a1.76,1.76,0,0,0,.35-.15,2.4,2.4,0,0,0,.15-.55,2.55,2.55,0,0,0,.18.58,1.46,1.46,0,0,0,.32.12,1.77,1.77,0,0,0-.35.15,2.41,2.41,0,0,0-.15.55,2.41,2.41,0,0,0-.15-.55A1.76,1.76,0,0,0,34.86,79.43Z"/><path class="cls-4" d="M19.26,85.7a1.76,1.76,0,0,0,.35-.15,2.4,2.4,0,0,0,.15-.55,2.55,2.55,0,0,0,.18.58,1.46,1.46,0,0,0,.32.12,1.77,1.77,0,0,0-.35.15,2.41,2.41,0,0,0-.15.55,2.41,2.41,0,0,0-.15-.55A1.76,1.76,0,0,0,19.26,85.7Z"/><path class="cls-4" d="M22.74,85a1.76,1.76,0,0,0,.35-.15,2.4,2.4,0,0,0,.15-.55,2.55,2.55,0,0,0,.18.58,1.46,1.46,0,0,0,.32.12,1.77,1.77,0,0,0-.35.15,2.41,2.41,0,0,0-.15.55,2.41,2.41,0,0,0-.15-.55A1.76,1.76,0,0,0,22.74,85Z"/><path class="cls-4" d="M24.32,82.57a1.76,1.76,0,0,0,.35-.15,2.4,2.4,0,0,0,.15-.55,2.55,2.55,0,0,0,.18.58,1.46,1.46,0,0,0,.32.12,1.77,1.77,0,0,0-.35.15,2.41,2.41,0,0,0-.15.55,2.41,2.41,0,0,0-.15-.55A1.76,1.76,0,0,0,24.32,82.57Z"/><path class="cls-4" d="M15.44,74.93a1.76,1.76,0,0,0,.35-.15,2.4,2.4,0,0,0,.15-.55,2.55,2.55,0,0,0,.18.58,1.46,1.46,0,0,0,.32.12,1.77,1.77,0,0,0-.35.15,2.41,2.41,0,0,0-.15.55,2.41,2.41,0,0,0-.15-.55A1.76,1.76,0,0,0,15.44,74.93Z"/><path class="cls-4" d="M60,67.6a1.76,1.76,0,0,0,.35-.15,2.4,2.4,0,0,0,.15-.55,2.55,2.55,0,0,0,.18.58,1.46,1.46,0,0,0,.32.12,1.77,1.77,0,0,0-.35.15,2.41,2.41,0,0,0-.15.55,2.41,2.41,0,0,0-.15-.55A1.76,1.76,0,0,0,60,67.6Z"/><path class="cls-4" d="M57.64,63.38a1.76,1.76,0,0,0,.35-.15,2.4,2.4,0,0,0,.15-.55,2.55,2.55,0,0,0,.18.58,1.46,1.46,0,0,0,.32.12,1.77,1.77,0,0,0-.35.15,2.41,2.41,0,0,0-.15.55,2.41,2.41,0,0,0-.15-.55A1.76,1.76,0,0,0,57.64,63.38Z"/><path class="cls-4" d="M1.64,98.67A1.76,1.76,0,0,0,2,98.53,2.4,2.4,0,0,0,2.14,98a2.55,2.55,0,0,0,.18.58,1.46,1.46,0,0,0,.32.12,1.77,1.77,0,0,0-.35.15,2.41,2.41,0,0,0-.15.55A2.41,2.41,0,0,0,2,98.82,1.76,1.76,0,0,0,1.64,98.67Z"/><path class="cls-4" d="M1.66,101.94A1.76,1.76,0,0,0,2,101.8a2.4,2.4,0,0,0,.15-.55,2.55,2.55,0,0,0,.18.58,1.46,1.46,0,0,0,.32.12,1.77,1.77,0,0,0-.35.15,2.41,2.41,0,0,0-.15.55,2.41,2.41,0,0,0-.15-.55A1.76,1.76,0,0,0,1.66,101.94Z"/><path class="cls-4" d="M46.32,99.54a1.76,1.76,0,0,0,.35-.15,2.4,2.4,0,0,0,.15-.55,2.55,2.55,0,0,0,.18.58,1.46,1.46,0,0,0,.32.12,1.77,1.77,0,0,0-.35.15,2.41,2.41,0,0,0-.15.55,2.41,2.41,0,0,0-.15-.55A1.76,1.76,0,0,0,46.32,99.54Z"/><path class="cls-4" d="M16.74,95.88a1.76,1.76,0,0,0,.35-.15,2.4,2.4,0,0,0,.15-.55,2.55,2.55,0,0,0,.18.58,1.46,1.46,0,0,0,.32.12,1.77,1.77,0,0,0-.35.15,2.41,2.41,0,0,0-.15.55,2.41,2.41,0,0,0-.15-.55A1.76,1.76,0,0,0,16.74,95.88Z"/><path class="cls-4" d="M21.33,101.25a1.76,1.76,0,0,0,.35-.15,2.4,2.4,0,0,0,.15-.55,2.55,2.55,0,0,0,.18.58,1.46,1.46,0,0,0,.32.12,1.77,1.77,0,0,0-.35.15,2.41,2.41,0,0,0-.15.55,2.41,2.41,0,0,0-.15-.55A1.76,1.76,0,0,0,21.33,101.25Z"/><path class="cls-4" d="M77.87,43.75a1.76,1.76,0,0,0,.35-.15,2.4,2.4,0,0,0,.15-.55,2.55,2.55,0,0,0,.18.58,1.46,1.46,0,0,0,.32.12,1.77,1.77,0,0,0-.35.15,2.41,2.41,0,0,0-.15.55,2.41,2.41,0,0,0-.15-.55A1.76,1.76,0,0,0,77.87,43.75Z"/><path class="cls-4" d="M48,40.63a1.76,1.76,0,0,0,.35-.15,2.4,2.4,0,0,0,.15-.55,2.55,2.55,0,0,0,.18.58,1.46,1.46,0,0,0,.32.12,1.77,1.77,0,0,0-.35.15,2.41,2.41,0,0,0-.15.55,2.41,2.41,0,0,0-.15-.55A1.76,1.76,0,0,0,48,40.63Z"/><path class="cls-4" d="M4.28,58.3a1.76,1.76,0,0,0,.35-.15,2.4,2.4,0,0,0,.15-.55,2.55,2.55,0,0,0,.18.58,1.46,1.46,0,0,0,.32.12,1.77,1.77,0,0,0-.35.15,2.41,2.41,0,0,0-.15.55,2.41,2.41,0,0,0-.15-.55A1.76,1.76,0,0,0,4.28,58.3Z"/><path class="cls-4" d="M8,43.06a1.76,1.76,0,0,0,.35-.15,2.4,2.4,0,0,0,.15-.55,2.55,2.55,0,0,0,.18.58,1.46,1.46,0,0,0,.32.12,1.77,1.77,0,0,0-.35.15,2.41,2.41,0,0,0-.15.55,2.41,2.41,0,0,0-.15-.55A1.76,1.76,0,0,0,8,43.06Z"/><path class="cls-4" d="M48.24,83.87a1.76,1.76,0,0,0,.35-.15,2.4,2.4,0,0,0,.15-.55,2.55,2.55,0,0,0,.18.58,1.46,1.46,0,0,0,.32.12,1.77,1.77,0,0,0-.35.15,2.41,2.41,0,0,0-.15.55,2.41,2.41,0,0,0-.15-.55A1.76,1.76,0,0,0,48.24,83.87Z"/><path class="cls-4" d="M16.23,47.19a1.76,1.76,0,0,0,.35-.15,2.4,2.4,0,0,0,.15-.55,2.55,2.55,0,0,0,.18.58,1.46,1.46,0,0,0,.32.12,1.77,1.77,0,0,0-.35.15,2.41,2.41,0,0,0-.15.55,2.41,2.41,0,0,0-.15-.55A1.76,1.76,0,0,0,16.23,47.19Z"/><path class="cls-4" d="M14.08,36.78a1.76,1.76,0,0,0,.35-.15,2.4,2.4,0,0,0,.15-.55,2.55,2.55,0,0,0,.18.58,1.46,1.46,0,0,0,.32.12,1.77,1.77,0,0,0-.35.15,2.41,2.41,0,0,0-.15.55,2.41,2.41,0,0,0-.15-.55A1.76,1.76,0,0,0,14.08,36.78Z"/><path class="cls-4" d="M23.31,44.45a1.76,1.76,0,0,0,.35-.15,2.4,2.4,0,0,0,.15-.55,2.55,2.55,0,0,0,.18.58,1.46,1.46,0,0,0,.32.12,1.77,1.77,0,0,0-.35.15,2.41,2.41,0,0,0-.15.55,2.41,2.41,0,0,0-.15-.55A1.76,1.76,0,0,0,23.31,44.45Z"/><path class="cls-4" d="M29.58,37.48a1.76,1.76,0,0,0,.35-.15,2.4,2.4,0,0,0,.15-.55,2.55,2.55,0,0,0,.18.58,1.46,1.46,0,0,0,.32.12,1.77,1.77,0,0,0-.35.15,2.41,2.41,0,0,0-.15.55,2.41,2.41,0,0,0-.15-.55A1.76,1.76,0,0,0,29.58,37.48Z"/><path class="cls-4" d="M1.66,36.78A1.76,1.76,0,0,0,2,36.64a2.4,2.4,0,0,0,.15-.55,2.55,2.55,0,0,0,.18.58,1.46,1.46,0,0,0,.32.12,1.77,1.77,0,0,0-.35.15,2.41,2.41,0,0,0-.15.55A2.41,2.41,0,0,0,2,36.93,1.76,1.76,0,0,0,1.66,36.78Z"/><path class="cls-4" d="M19.77,38.17a1.76,1.76,0,0,0,.35-.15,2.4,2.4,0,0,0,.15-.55,2.55,2.55,0,0,0,.18.58,1.46,1.46,0,0,0,.32.12,1.77,1.77,0,0,0-.35.15,2.41,2.41,0,0,0-.15.55,2.41,2.41,0,0,0-.15-.55A1.76,1.76,0,0,0,19.77,38.17Z"/><path class="cls-4" d="M8.5,46.87a1.76,1.76,0,0,0,.35-.15A2.4,2.4,0,0,0,9,46.17a2.55,2.55,0,0,0,.18.58,1.46,1.46,0,0,0,.32.12,1.77,1.77,0,0,0-.35.15,2.41,2.41,0,0,0-.15.55A2.41,2.41,0,0,0,8.86,47,1.76,1.76,0,0,0,8.5,46.87Z"/><path class="cls-4" d="M18.36,41.33a1.76,1.76,0,0,0,.35-.15,2.4,2.4,0,0,0,.15-.55,2.55,2.55,0,0,0,.18.58,1.46,1.46,0,0,0,.32.12,1.77,1.77,0,0,0-.35.15,2.41,2.41,0,0,0-.15.55,2.41,2.41,0,0,0-.15-.55A1.76,1.76,0,0,0,18.36,41.33Z"/><path class="cls-4" d="M5.86,43.75a1.76,1.76,0,0,0,.35-.15,2.4,2.4,0,0,0,.15-.55,2.55,2.55,0,0,0,.18.58,1.46,1.46,0,0,0,.32.12,1.77,1.77,0,0,0-.35.15,2.41,2.41,0,0,0-.15.55,2.41,2.41,0,0,0-.15-.55A1.76,1.76,0,0,0,5.86,43.75Z"/><path class="cls-4" d="M74,52.37a1.76,1.76,0,0,0,.35-.15,2.4,2.4,0,0,0,.15-.55,2.55,2.55,0,0,0,.18.58,1.46,1.46,0,0,0,.32.12,1.77,1.77,0,0,0-.35.15,2.41,2.41,0,0,0-.15.55,2.41,2.41,0,0,0-.15-.55A1.76,1.76,0,0,0,74,52.37Z"/><path class="cls-4" d="M55.42,99.54a1.76,1.76,0,0,0,.35-.15,2.4,2.4,0,0,0,.15-.55,2.55,2.55,0,0,0,.18.58,1.46,1.46,0,0,0,.32.12,1.77,1.77,0,0,0-.35.15,2.41,2.41,0,0,0-.15.55,2.41,2.41,0,0,0-.15-.55A1.76,1.76,0,0,0,55.42,99.54Z"/><path class="cls-4" d="M79.78,103.19a1.76,1.76,0,0,0,.35-.15,2.4,2.4,0,0,0,.15-.55,2.55,2.55,0,0,0,.18.58,1.46,1.46,0,0,0,.32.12,1.77,1.77,0,0,0-.35.15,2.41,2.41,0,0,0-.15.55,2.41,2.41,0,0,0-.15-.55A1.76,1.76,0,0,0,79.78,103.19Z"/><path class="cls-4" d="M79.78,66.91a1.76,1.76,0,0,0,.35-.15,2.4,2.4,0,0,0,.15-.55,2.55,2.55,0,0,0,.18.58,1.46,1.46,0,0,0,.32.12,1.77,1.77,0,0,0-.35.15,2.41,2.41,0,0,0-.15.55,2.41,2.41,0,0,0-.15-.55A1.76,1.76,0,0,0,79.78,66.91Z"/><path class="cls-4" d="M51.74,65.77a1.76,1.76,0,0,0,.35-.15,2.4,2.4,0,0,0,.15-.55,2.55,2.55,0,0,0,.18.58,1.46,1.46,0,0,0,.32.12,1.77,1.77,0,0,0-.35.15,2.41,2.41,0,0,0-.15.55,2.41,2.41,0,0,0-.15-.55A1.76,1.76,0,0,0,51.74,65.77Z"/><path class="cls-4" d="M72.65,88.65A1.76,1.76,0,0,0,73,88.5a2.4,2.4,0,0,0,.15-.55,2.55,2.55,0,0,0,.18.58,1.46,1.46,0,0,0,.32.12,1.77,1.77,0,0,0-.35.15,2.41,2.41,0,0,0-.15.55,2.41,2.41,0,0,0-.15-.55A1.76,1.76,0,0,0,72.65,88.65Z"/><path class="cls-4" d="M14.93,85.7a1.76,1.76,0,0,0,.35-.15,2.41,2.41,0,0,0,.15-.55,2.55,2.55,0,0,0,.18.58,1.46,1.46,0,0,0,.32.12,1.77,1.77,0,0,0-.35.15,2.41,2.41,0,0,0-.15.55,2.41,2.41,0,0,0-.15-.55A1.76,1.76,0,0,0,14.93,85.7Z"/><polygon class="cls-4" points="38.35 64.06 39.37 63.91 38.35 63.77 38.77 63.2 38.23 63.61 38.06 61.52 37.9 63.61 37.35 63.2 37.78 63.77 36.76 63.91 37.78 64.06 37.35 64.62 37.9 64.21 38.06 66.3 38.23 64.21 38.77 64.62 38.35 64.06"/><path class="cls-4" d="M42.27,63.55a3.15,3.15,0,0,0,.63-.26,4.32,4.32,0,0,0,.28-1,4.56,4.56,0,0,0,.33,1,2.61,2.61,0,0,0,.58.21,3.15,3.15,0,0,0-.63.26,4.32,4.32,0,0,0-.28,1,4.32,4.32,0,0,0-.28-1A3.15,3.15,0,0,0,42.27,63.55Z"/><path class="cls-4" d="M48.13,69.75a1.76,1.76,0,0,0,.35-.15,2.4,2.4,0,0,0,.15-.55,2.55,2.55,0,0,0,.18.58,1.46,1.46,0,0,0,.32.12,1.77,1.77,0,0,0-.35.15,2.41,2.41,0,0,0-.15.55,2.4,2.4,0,0,0-.15-.55A1.76,1.76,0,0,0,48.13,69.75Z"/><path class="cls-4" d="M41.05,70.09a1.76,1.76,0,0,0,.35-.15,2.4,2.4,0,0,0,.15-.55,2.55,2.55,0,0,0,.18.58,1.46,1.46,0,0,0,.32.12,1.77,1.77,0,0,0-.35.15,2.41,2.41,0,0,0-.15.55,2.41,2.41,0,0,0-.15-.55A1.76,1.76,0,0,0,41.05,70.09Z"/><path class="cls-4" d="M45.64,75.45a1.76,1.76,0,0,0,.35-.15,2.4,2.4,0,0,0,.15-.55,2.55,2.55,0,0,0,.18.58,1.46,1.46,0,0,0,.32.12,1.77,1.77,0,0,0-.35.15,2.41,2.41,0,0,0-.15.55A2.41,2.41,0,0,0,46,75.6,1.76,1.76,0,0,0,45.64,75.45Z"/><path class="cls-4" d="M39.25,59.9a1.76,1.76,0,0,0,.35-.15,2.41,2.41,0,0,0,.15-.55,2.55,2.55,0,0,0,.18.58,1.46,1.46,0,0,0,.32.12,1.77,1.77,0,0,0-.35.15,2.41,2.41,0,0,0-.15.55A2.41,2.41,0,0,0,39.6,60,1.76,1.76,0,0,0,39.25,59.9Z"/><path class="cls-4" d="M35.66,101.09a3.92,3.92,0,0,0,.78-.32,5.37,5.37,0,0,0,.34-1.22,5.67,5.67,0,0,0,.41,1.28,3.25,3.25,0,0,0,.72.27,3.92,3.92,0,0,0-.78.32,5.37,5.37,0,0,0-.34,1.22,5.38,5.38,0,0,0-.34-1.22A3.92,3.92,0,0,0,35.66,101.09Z"/><path class="cls-4" d="M1,88.05a2.1,2.1,0,0,0,.42-.17,2.86,2.86,0,0,0,.18-.66,3,3,0,0,0,.22.69,1.74,1.74,0,0,0,.38.14,2.1,2.1,0,0,0-.42.17,2.88,2.88,0,0,0-.18.66,2.87,2.87,0,0,0-.18-.66A2.1,2.1,0,0,0,1,88.05Z"/><path class="cls-4" d="M47.57,78.37"/><path class="cls-4" d="M15.6,45.15a1.76,1.76,0,0,0-.35.15,2.4,2.4,0,0,0-.15.55,2.55,2.55,0,0,0-.18-.58,1.46,1.46,0,0,0-.32-.12,1.77,1.77,0,0,0,.35-.15,2.41,2.41,0,0,0,.15-.55,2.4,2.4,0,0,0,.15.55A1.76,1.76,0,0,0,15.6,45.15Z"/><path class="cls-4" d="M34.39,64.08a1.76,1.76,0,0,0,.35-.15,2.4,2.4,0,0,0,.15-.55,2.55,2.55,0,0,0,.18.58,1.46,1.46,0,0,0,.32.12,1.77,1.77,0,0,0-.35.15,2.41,2.41,0,0,0-.15.55,2.41,2.41,0,0,0-.15-.55A1.76,1.76,0,0,0,34.39,64.08Z"/><path class="cls-4" d="M33.75,62a1.76,1.76,0,0,0-.35.15,2.4,2.4,0,0,0-.15.55,2.55,2.55,0,0,0-.18-.58,1.46,1.46,0,0,0-.32-.12,1.77,1.77,0,0,0,.35-.15,2.41,2.41,0,0,0,.15-.55,2.4,2.4,0,0,0,.15.55A1.76,1.76,0,0,0,33.75,62Z"/><path class="cls-4" d="M46.32,46.87a1.76,1.76,0,0,0,.35-.15,2.4,2.4,0,0,0,.15-.55,2.55,2.55,0,0,0,.18.58,1.46,1.46,0,0,0,.32.12A1.77,1.77,0,0,0,47,47a2.41,2.41,0,0,0-.15.55,2.41,2.41,0,0,0-.15-.55A1.76,1.76,0,0,0,46.32,46.87Z"/><path class="cls-4" d="M45.69,44.82a1.76,1.76,0,0,0-.35.15,2.4,2.4,0,0,0-.15.55,2.55,2.55,0,0,0-.18-.58,1.46,1.46,0,0,0-.32-.12,1.77,1.77,0,0,0,.35-.15,2.41,2.41,0,0,0,.15-.55,2.4,2.4,0,0,0,.15.55A1.76,1.76,0,0,0,45.69,44.82Z"/><path class="cls-4" d="M40.92,81.87a3.15,3.15,0,0,0,.63-.26,4.31,4.31,0,0,0,.28-1,4.55,4.55,0,0,0,.33,1,2.61,2.61,0,0,0,.57.21,3.15,3.15,0,0,0-.63.26,4.31,4.31,0,0,0-.28,1,4.31,4.31,0,0,0-.28-1A3.15,3.15,0,0,0,40.92,81.87Z"/><rect class="cls-2" x="-84.22" y="33.45" width="85.44" height="73.11"/><path class="cls-4" d="M1.22,55.07a6.84,6.84,0,0,0-1.37.56,9.37,9.37,0,0,0-.6,2.14,9.89,9.89,0,0,0-.72-2.24,5.66,5.66,0,0,0-1.25-.46,6.84,6.84,0,0,0,1.37-.56,9.38,9.38,0,0,0,.6-2.14,9.38,9.38,0,0,0,.6,2.14A6.84,6.84,0,0,0,1.22,55.07Z"/><rect class="cls-2" x="40.28" y="-36.55" width="85.44" height="73.11"/><polygon class="cls-4" points="71.37 0.35 75.29 -0.21 71.37 -0.77 73 -2.94 70.89 -1.36 70.27 -9.4 69.64 -1.36 67.53 -2.94 69.17 -0.77 65.24 -0.21 69.17 0.35 67.53 2.52 69.64 0.94 70.27 8.99 70.89 0.94 73 2.52 71.37 0.35"/><polygon class="cls-4" points="48.9 15.48 52.26 15 48.9 14.52 50.29 12.66 48.49 14.02 47.95 7.12 47.42 14.02 45.61 12.66 47.01 14.52 43.65 15 47.01 15.48 45.61 17.34 47.42 15.99 47.95 22.88 48.49 15.99 50.29 17.34 48.9 15.48"/><polygon class="cls-4" points="73.6 29.15 76.97 28.68 73.6 28.2 75 26.33 73.19 27.69 72.66 20.8 72.12 27.69 70.32 26.33 71.72 28.2 68.35 28.68 71.72 29.15 70.32 31.02 72.12 29.66 72.66 36.55 73.19 29.66 75 31.02 73.6 29.15"/><polygon class="cls-4" points="64.3 7.64 66.56 7.32 64.3 6.99 65.24 5.74 64.02 6.65 63.66 2.01 63.3 6.65 62.09 5.74 63.03 6.99 60.76 7.32 63.03 7.64 62.09 8.89 63.3 7.98 63.66 12.62 64.02 7.98 65.24 8.89 64.3 7.64"/><polygon class="cls-4" points="55.54 19.85 56.56 19.7 55.54 19.56 55.96 19 55.41 19.41 55.25 17.32 55.09 19.41 54.54 19 54.97 19.56 53.95 19.7 54.97 19.85 54.54 20.41 55.09 20 55.25 22.09 55.41 20 55.96 20.41 55.54 19.85"/><path class="cls-4" d="M82.42,4.93a4.67,4.67,0,0,0-.93.39,6.4,6.4,0,0,0-.41,1.46,6.76,6.76,0,0,0-.49-1.53,3.88,3.88,0,0,0-.85-.32,4.67,4.67,0,0,0,.93-.39,6.4,6.4,0,0,0,.41-1.46,6.41,6.41,0,0,0,.41,1.46A4.67,4.67,0,0,0,82.42,4.93Z"/><path class="cls-4" d="M49.5,28.68a7.06,7.06,0,0,0,1.41-.58,9.67,9.67,0,0,0,.62-2.21,10.22,10.22,0,0,0,.74,2.31,5.87,5.87,0,0,0,1.29.48,7.06,7.06,0,0,0-1.41.58,9.69,9.69,0,0,0-.62,2.21,9.69,9.69,0,0,0-.62-2.21A7.06,7.06,0,0,0,49.5,28.68Z"/><path class="cls-4" d="M81.29,19.71a7.06,7.06,0,0,0,1.41-.58,9.67,9.67,0,0,0,.62-2.21,10.22,10.22,0,0,0,.74,2.31,5.87,5.87,0,0,0,1.29.48,7.06,7.06,0,0,0-1.41.58,9.69,9.69,0,0,0-.62,2.21,9.69,9.69,0,0,0-.62-2.21A7.06,7.06,0,0,0,81.29,19.71Z"/><path class="cls-4" d="M59.46,19.34a3.15,3.15,0,0,0,.63-.26,4.32,4.32,0,0,0,.28-1,4.56,4.56,0,0,0,.33,1,2.61,2.61,0,0,0,.58.21,3.15,3.15,0,0,0-.63.26,4.32,4.32,0,0,0-.28,1,4.32,4.32,0,0,0-.28-1A3.15,3.15,0,0,0,59.46,19.34Z"/><path class="cls-4" d="M49.6,5.62a3.15,3.15,0,0,0,.63-.26,4.32,4.32,0,0,0,.28-1,4.56,4.56,0,0,0,.33,1,2.61,2.61,0,0,0,.58.21,3.15,3.15,0,0,0-.63.26,4.32,4.32,0,0,0-.28,1,4.32,4.32,0,0,0-.28-1A3.15,3.15,0,0,0,49.6,5.62Z"/><path class="cls-4" d="M82.55,24.7a2.68,2.68,0,0,0,.54-.22,3.67,3.67,0,0,0,.23-.84,3.88,3.88,0,0,0,.28.88,2.22,2.22,0,0,0,.49.18,2.68,2.68,0,0,0-.54.22,3.67,3.67,0,0,0-.23.84,3.67,3.67,0,0,0-.23-.84A2.68,2.68,0,0,0,82.55,24.7Z"/><path class="cls-4" d="M65.31,25.55a1.76,1.76,0,0,0,.35-.15,2.4,2.4,0,0,0,.15-.55,2.55,2.55,0,0,0,.18.58,1.46,1.46,0,0,0,.32.12,1.77,1.77,0,0,0-.35.15,2.41,2.41,0,0,0-.15.55,2.4,2.4,0,0,0-.15-.55A1.76,1.76,0,0,0,65.31,25.55Z"/><path class="cls-4" d="M44.51,22.06a1.76,1.76,0,0,0,.35-.15,2.4,2.4,0,0,0,.15-.55,2.55,2.55,0,0,0,.18.58,1.46,1.46,0,0,0,.32.12,1.77,1.77,0,0,0-.35.15,2.41,2.41,0,0,0-.15.55,2.4,2.4,0,0,0-.15-.55A1.76,1.76,0,0,0,44.51,22.06Z"/><path class="cls-4" d="M53.05.17A1.76,1.76,0,0,0,53.4,0a2.4,2.4,0,0,0,.15-.55,2.55,2.55,0,0,0,.18.58,1.46,1.46,0,0,0,.32.12,1.77,1.77,0,0,0-.35.15,2.41,2.41,0,0,0-.15.55A2.41,2.41,0,0,0,53.4.31,1.76,1.76,0,0,0,53.05.17Z"/><path class="cls-4" d="M47.87.86a1.76,1.76,0,0,0,.35-.15,2.4,2.4,0,0,0,.15-.55,2.55,2.55,0,0,0,.18.58,1.46,1.46,0,0,0,.32.12,1.77,1.77,0,0,0-.35.15,2.41,2.41,0,0,0-.15.55A2.41,2.41,0,0,0,48.22,1,1.76,1.76,0,0,0,47.87.86Z"/><path class="cls-4" d="M57.23,12.57a1.76,1.76,0,0,0,.35-.15,2.4,2.4,0,0,0,.15-.55,2.55,2.55,0,0,0,.18.58,1.46,1.46,0,0,0,.32.12,1.77,1.77,0,0,0-.35.15,2.41,2.41,0,0,0-.15.55,2.41,2.41,0,0,0-.15-.55A1.76,1.76,0,0,0,57.23,12.57Z"/><path class="cls-4" d="M76.36,9.43a1.76,1.76,0,0,0,.35-.15,2.4,2.4,0,0,0,.15-.55,2.55,2.55,0,0,0,.18.58,1.46,1.46,0,0,0,.32.12,1.77,1.77,0,0,0-.35.15,2.41,2.41,0,0,0-.15.55,2.41,2.41,0,0,0-.15-.55A1.76,1.76,0,0,0,76.36,9.43Z"/><path class="cls-4" d="M60.76,15.7a1.76,1.76,0,0,0,.35-.15,2.4,2.4,0,0,0,.15-.55,2.55,2.55,0,0,0,.18.58,1.46,1.46,0,0,0,.32.12,1.77,1.77,0,0,0-.35.15,2.41,2.41,0,0,0-.15.55,2.41,2.41,0,0,0-.15-.55A1.76,1.76,0,0,0,60.76,15.7Z"/><path class="cls-4" d="M64.24,15a1.76,1.76,0,0,0,.35-.15,2.4,2.4,0,0,0,.15-.55,2.55,2.55,0,0,0,.18.58,1.46,1.46,0,0,0,.32.12,1.77,1.77,0,0,0-.35.15,2.41,2.41,0,0,0-.15.55,2.41,2.41,0,0,0-.15-.55A1.76,1.76,0,0,0,64.24,15Z"/><path class="cls-4" d="M65.82,12.57a1.76,1.76,0,0,0,.35-.15,2.4,2.4,0,0,0,.15-.55,2.55,2.55,0,0,0,.18.58,1.46,1.46,0,0,0,.32.12,1.77,1.77,0,0,0-.35.15,2.41,2.41,0,0,0-.15.55,2.41,2.41,0,0,0-.15-.55A1.76,1.76,0,0,0,65.82,12.57Z"/><path class="cls-4" d="M56.94,4.93a1.76,1.76,0,0,0,.35-.15,2.4,2.4,0,0,0,.15-.55,2.55,2.55,0,0,0,.18.58,1.46,1.46,0,0,0,.32.12,1.77,1.77,0,0,0-.35.15,2.41,2.41,0,0,0-.15.55,2.41,2.41,0,0,0-.15-.55A1.76,1.76,0,0,0,56.94,4.93Z"/><path class="cls-4" d="M43.14,28.67a1.76,1.76,0,0,0,.35-.15,2.4,2.4,0,0,0,.15-.55,2.55,2.55,0,0,0,.18.58,1.46,1.46,0,0,0,.32.12,1.77,1.77,0,0,0-.35.15,2.41,2.41,0,0,0-.15.55,2.41,2.41,0,0,0-.15-.55A1.76,1.76,0,0,0,43.14,28.67Z"/><path class="cls-4" d="M43.16,31.94a1.76,1.76,0,0,0,.35-.15,2.4,2.4,0,0,0,.15-.55,2.55,2.55,0,0,0,.18.58,1.46,1.46,0,0,0,.32.12,1.77,1.77,0,0,0-.35.15,2.41,2.41,0,0,0-.15.55,2.41,2.41,0,0,0-.15-.55A1.76,1.76,0,0,0,43.16,31.94Z"/><path class="cls-4" d="M58.24,25.88a1.76,1.76,0,0,0,.35-.15,2.4,2.4,0,0,0,.15-.55,2.55,2.55,0,0,0,.18.58,1.46,1.46,0,0,0,.32.12,1.77,1.77,0,0,0-.35.15,2.41,2.41,0,0,0-.15.55,2.41,2.41,0,0,0-.15-.55A1.76,1.76,0,0,0,58.24,25.88Z"/><path class="cls-4" d="M62.83,31.25a1.76,1.76,0,0,0,.35-.15,2.4,2.4,0,0,0,.15-.55,2.55,2.55,0,0,0,.18.58,1.46,1.46,0,0,0,.32.12,1.77,1.77,0,0,0-.35.15,2.41,2.41,0,0,0-.15.55,2.41,2.41,0,0,0-.15-.55A1.76,1.76,0,0,0,62.83,31.25Z"/><path class="cls-4" d="M56.43,15.7a1.76,1.76,0,0,0,.35-.15,2.41,2.41,0,0,0,.15-.55,2.55,2.55,0,0,0,.18.58,1.46,1.46,0,0,0,.32.12,1.77,1.77,0,0,0-.35.15,2.41,2.41,0,0,0-.15.55,2.41,2.41,0,0,0-.15-.55A1.76,1.76,0,0,0,56.43,15.7Z"/><path class="cls-4" d="M82.55.09a1.76,1.76,0,0,0,.35-.15,2.4,2.4,0,0,0,.15-.55,2.55,2.55,0,0,0,.18.58,1.46,1.46,0,0,0,.32.12,1.77,1.77,0,0,0-.35.15,2.41,2.41,0,0,0-.15.55,2.41,2.41,0,0,0-.15-.55A1.76,1.76,0,0,0,82.55.09Z"/><path class="cls-4" d="M77.16,31.09a3.92,3.92,0,0,0,.78-.32,5.37,5.37,0,0,0,.34-1.22,5.67,5.67,0,0,0,.41,1.28,3.25,3.25,0,0,0,.72.27,3.92,3.92,0,0,0-.78.32,5.37,5.37,0,0,0-.34,1.22,5.38,5.38,0,0,0-.34-1.22A3.92,3.92,0,0,0,77.16,31.09Z"/><path class="cls-4" d="M42.46,18.05a2.1,2.1,0,0,0,.42-.17,2.86,2.86,0,0,0,.18-.66,3,3,0,0,0,.22.69,1.74,1.74,0,0,0,.38.14,2.1,2.1,0,0,0-.42.17,2.88,2.88,0,0,0-.18.66,2.87,2.87,0,0,0-.18-.66A2.1,2.1,0,0,0,42.46,18.05Z"/><path class="cls-4" d="M82.42,11.87a3.15,3.15,0,0,0,.63-.26,4.31,4.31,0,0,0,.28-1,4.55,4.55,0,0,0,.33,1,2.61,2.61,0,0,0,.57.21,3.15,3.15,0,0,0-.63.26,4.31,4.31,0,0,0-.28,1,4.31,4.31,0,0,0-.28-1A3.15,3.15,0,0,0,82.42,11.87Z"/><rect class="cls-2" x="-42.72" y="-36.55" width="85.44" height="73.11"/><polygon class="cls-4" points="16.15 -13.38 22.31 -14.25 16.15 -15.13 18.71 -18.54 15.4 -16.06 14.42 -28.68 13.44 -16.06 10.14 -18.54 12.7 -15.13 6.54 -14.25 12.7 -13.38 10.14 -9.97 13.44 -12.45 14.42 0.17 15.4 -12.45 18.71 -9.97 16.15 -13.38"/><polygon class="cls-4" points="12.48 16.6 14.31 16.34 12.48 16.08 13.24 15.07 12.26 15.8 11.96 12.04 11.67 15.8 10.69 15.07 11.45 16.08 9.61 16.34 11.45 16.6 10.69 17.62 11.67 16.88 11.96 20.64 12.26 16.88 13.24 17.62 12.48 16.6"/><polygon class="cls-4" points="22.04 25.18 24.3 24.85 22.04 24.53 22.98 23.28 21.76 24.19 21.4 19.55 21.04 24.19 19.82 23.28 20.77 24.53 18.5 24.85 20.77 25.18 19.82 26.43 21.04 25.52 21.4 30.16 21.76 25.52 22.98 26.43 22.04 25.18"/><polygon class="cls-4" points="27.09 14.87 28.5 14.66 27.09 14.46 27.68 13.68 26.92 14.25 26.69 11.35 26.47 14.25 25.71 13.68 26.3 14.46 24.88 14.66 26.3 14.87 25.71 15.65 26.47 15.08 26.69 17.98 26.92 15.08 27.68 15.65 27.09 14.87"/><path class="cls-4" d="M16.14,24.7"/><path class="cls-4" d="M31,24.7a7.06,7.06,0,0,0,1.41-.58A9.67,9.67,0,0,0,33,21.91a10.22,10.22,0,0,0,.74,2.31,5.87,5.87,0,0,0,1.29.48,7.06,7.06,0,0,0-1.41.58A9.69,9.69,0,0,0,33,27.49a9.69,9.69,0,0,0-.62-2.21A7.06,7.06,0,0,0,31,24.7Z"/><path class="cls-4" d="M31.51,11.87a7.06,7.06,0,0,0,1.41-.58,9.67,9.67,0,0,0,.62-2.21,10.22,10.22,0,0,0,.74,2.31,5.87,5.87,0,0,0,1.29.48,7.06,7.06,0,0,0-1.41.58,9.69,9.69,0,0,0-.62,2.21,9.69,9.69,0,0,0-.62-2.21A7.06,7.06,0,0,0,31.51,11.87Z"/><path class="cls-4" d="M9,3.83A10.4,10.4,0,0,0,11.05,3c.36-.31.91-3.25.91-3.25s.68,3.06,1.09,3.4a8.62,8.62,0,0,0,1.9.7,10.4,10.4,0,0,0-2.08.86C12.51,5,12,7.94,12,7.94S11.42,5,11.05,4.69A10.4,10.4,0,0,0,9,3.83Z"/><path class="cls-4" d="M-1.71,19.71A7.06,7.06,0,0,0-.3,19.12a9.67,9.67,0,0,0,.62-2.21,10.22,10.22,0,0,0,.74,2.31,5.87,5.87,0,0,0,1.29.48,7.06,7.06,0,0,0-1.41.58A9.69,9.69,0,0,0,.32,22.5,9.69,9.69,0,0,0-.3,20.29,7.06,7.06,0,0,0-1.71,19.71Z"/><path class="cls-4" d="M17.86,31.94a3.15,3.15,0,0,0,.63-.26,4.32,4.32,0,0,0,.28-1,4.56,4.56,0,0,0,.33,1,2.61,2.61,0,0,0,.58.21,3.15,3.15,0,0,0-.63.26,4.32,4.32,0,0,0-.28,1,4.32,4.32,0,0,0-.28-1A3.15,3.15,0,0,0,17.86,31.94Z"/><path class="cls-4" d="M26.69,32.63a3.15,3.15,0,0,0,.63-.26,4.32,4.32,0,0,0,.28-1,4.56,4.56,0,0,0,.33,1,2.61,2.61,0,0,0,.58.21,3.15,3.15,0,0,0-.63.26,4.32,4.32,0,0,0-.28,1,4.32,4.32,0,0,0-.28-1A3.15,3.15,0,0,0,26.69,32.63Z"/><path class="cls-4" d="M8.83.17a3.15,3.15,0,0,0,.63-.26,4.32,4.32,0,0,0,.28-1,4.56,4.56,0,0,0,.33,1,2.61,2.61,0,0,0,.58.21A3.15,3.15,0,0,0,10,.43a4.32,4.32,0,0,0-.28,1,4.32,4.32,0,0,0-.28-1A3.15,3.15,0,0,0,8.83.17Z"/><path class="cls-4" d="M22.31-1.08a3.15,3.15,0,0,0,.63-.26,4.32,4.32,0,0,0,.28-1,4.56,4.56,0,0,0,.33,1,2.61,2.61,0,0,0,.58.21,3.15,3.15,0,0,0-.63.26,4.32,4.32,0,0,0-.28,1,4.32,4.32,0,0,0-.28-1A3.15,3.15,0,0,0,22.31-1.08Z"/><path class="cls-4" d="M19,19.71a2.68,2.68,0,0,0,.54-.22,3.67,3.67,0,0,0,.23-.84,3.88,3.88,0,0,0,.28.88,2.22,2.22,0,0,0,.49.18,2.68,2.68,0,0,0-.54.22,3.67,3.67,0,0,0-.23.84,3.67,3.67,0,0,0-.23-.84A2.68,2.68,0,0,0,19,19.71Z"/><path class="cls-4" d="M-.45,24.7a2.68,2.68,0,0,0,.54-.22,3.67,3.67,0,0,0,.23-.84,3.88,3.88,0,0,0,.28.88,2.22,2.22,0,0,0,.49.18,2.68,2.68,0,0,0-.54.22,3.67,3.67,0,0,0-.23.84,3.67,3.67,0,0,0-.23-.84A2.68,2.68,0,0,0-.45,24.7Z"/><path class="cls-4" d="M19.75,8.37a2.68,2.68,0,0,0,.54-.22,3.67,3.67,0,0,0,.23-.84,3.88,3.88,0,0,0,.28.88,2.22,2.22,0,0,0,.49.18,2.68,2.68,0,0,0-.54.22,3.67,3.67,0,0,0-.23.84,3.67,3.67,0,0,0-.23-.84A2.68,2.68,0,0,0,19.75,8.37Z"/><path class="cls-4" d="M20,.17A1.76,1.76,0,0,0,20.37,0a2.4,2.4,0,0,0,.15-.55,2.55,2.55,0,0,0,.18.58A1.46,1.46,0,0,0,21,.17a1.77,1.77,0,0,0-.35.15,2.41,2.41,0,0,0-.15.55,2.41,2.41,0,0,0-.15-.55A1.76,1.76,0,0,0,20,.17Z"/><path class="cls-4" d="M4.82,29.54a1.76,1.76,0,0,0,.35-.15,2.4,2.4,0,0,0,.15-.55,2.55,2.55,0,0,0,.18.58,1.46,1.46,0,0,0,.32.12,1.77,1.77,0,0,0-.35.15,2.41,2.41,0,0,0-.15.55,2.41,2.41,0,0,0-.15-.55A1.76,1.76,0,0,0,4.82,29.54Z"/><path class="cls-4" d="M6.74,13.87a1.76,1.76,0,0,0,.35-.15,2.4,2.4,0,0,0,.15-.55,2.55,2.55,0,0,0,.18.58,1.46,1.46,0,0,0,.32.12A1.77,1.77,0,0,0,7.4,14a2.41,2.41,0,0,0-.15.55A2.41,2.41,0,0,0,7.09,14,1.76,1.76,0,0,0,6.74,13.87Z"/><path class="cls-4" d="M13.92,29.54a1.76,1.76,0,0,0,.35-.15,2.4,2.4,0,0,0,.15-.55,2.55,2.55,0,0,0,.18.58,1.46,1.46,0,0,0,.32.12,1.77,1.77,0,0,0-.35.15,2.41,2.41,0,0,0-.15.55,2.41,2.41,0,0,0-.15-.55A1.76,1.76,0,0,0,13.92,29.54Z"/><path class="cls-4" d="M38.28,33.19a1.76,1.76,0,0,0,.35-.15,2.4,2.4,0,0,0,.15-.55,2.55,2.55,0,0,0,.18.58,1.46,1.46,0,0,0,.32.12,1.77,1.77,0,0,0-.35.15,2.41,2.41,0,0,0-.15.55,2.41,2.41,0,0,0-.15-.55A1.76,1.76,0,0,0,38.28,33.19Z"/><path class="cls-4" d="M31.15,18.65a1.76,1.76,0,0,0,.35-.15,2.4,2.4,0,0,0,.15-.55,2.55,2.55,0,0,0,.18.58,1.46,1.46,0,0,0,.32.12,1.77,1.77,0,0,0-.35.15,2.41,2.41,0,0,0-.15.55,2.41,2.41,0,0,0-.15-.55A1.76,1.76,0,0,0,31.15,18.65Z"/><path class="cls-4" d="M6.63-.25A1.76,1.76,0,0,0,7-.39a2.4,2.4,0,0,0,.15-.55,2.55,2.55,0,0,0,.18.58,1.46,1.46,0,0,0,.32.12,1.77,1.77,0,0,0-.35.15,2.41,2.41,0,0,0-.15.55A2.4,2.4,0,0,0,7-.1,1.76,1.76,0,0,0,6.63-.25Z"/><path class="cls-4" d="M-.45.09A1.76,1.76,0,0,0-.09-.06,2.4,2.4,0,0,0,.06-.61,2.55,2.55,0,0,0,.24,0,1.46,1.46,0,0,0,.57.09,1.77,1.77,0,0,0,.21.23,2.41,2.41,0,0,0,.06.79,2.41,2.41,0,0,0-.09.23,1.76,1.76,0,0,0-.45.09Z"/><path class="cls-4" d="M4.14,5.45a1.76,1.76,0,0,0,.35-.15,2.4,2.4,0,0,0,.15-.55,2.55,2.55,0,0,0,.18.58,1.46,1.46,0,0,0,.32.12,1.77,1.77,0,0,0-.35.15,2.41,2.41,0,0,0-.15.55,2.41,2.41,0,0,0-.15-.55A1.76,1.76,0,0,0,4.14,5.45Z"/><path class="cls-4" d="M6.07,8.37"/><path class="cls-4" d="M-.58,11.87A3.15,3.15,0,0,0,0,11.61a4.31,4.31,0,0,0,.28-1,4.55,4.55,0,0,0,.33,1,2.61,2.61,0,0,0,.57.21,3.15,3.15,0,0,0-.63.26,4.31,4.31,0,0,0-.28,1,4.31,4.31,0,0,0-.28-1A3.15,3.15,0,0,0-.58,11.87Z"/></pattern><pattern id="새_패턴_12" data-name="새 패턴 12" width="20" height="12" patternTransform="translate(-28.13 2.02)" patternUnits="userSpaceOnUse" viewBox="0 0 20 12"><rect class="cls-1" width="20" height="12"/><path class="cls-3" d="M20,18h0a2.31,2.31,0,0,1,2,1.13,3.79,3.79,0,0,0,2.86,1.95h2.53c1.19,0,2,.61,2.65,2.08.6-1.47,1.46-2.08,2.65-2.08h2.53A3.79,3.79,0,0,0,38,19.13,2.31,2.31,0,0,1,40,18h0a2.31,2.31,0,0,1-2-1.13,3.79,3.79,0,0,0-2.86-1.95H32.65c-1.19,0-2-.61-2.65-2.08-.6,1.47-1.46,2.08-2.65,2.08H24.82A3.79,3.79,0,0,0,22,16.87,2.31,2.31,0,0,1,20,18Z"/><path class="cls-3" d="M0,18H0a2.31,2.31,0,0,1,2,1.13,3.79,3.79,0,0,0,2.86,1.95H7.35c1.19,0,2,.61,2.65,2.08.6-1.47,1.46-2.08,2.65-2.08h2.53A3.79,3.79,0,0,0,18,19.13,2.31,2.31,0,0,1,20,18h0a2.31,2.31,0,0,1-2-1.13,3.79,3.79,0,0,0-2.86-1.95H12.65c-1.19,0-2-.61-2.65-2.08-.6,1.47-1.46,2.08-2.65,2.08H4.82A3.79,3.79,0,0,0,2,16.87,2.31,2.31,0,0,1,0,18Z"/><path class="cls-3" d="M-20,18h0a2.31,2.31,0,0,1,2,1.13,3.79,3.79,0,0,0,2.86,1.95h2.53c1.19,0,2,.61,2.65,2.08.6-1.47,1.46-2.08,2.65-2.08h2.53A3.79,3.79,0,0,0-2,19.13,2.31,2.31,0,0,1,0,18H0a2.31,2.31,0,0,1-2-1.13,3.79,3.79,0,0,0-2.86-1.95H-7.35c-1.19,0-2-.61-2.65-2.08-.6,1.47-1.46,2.08-2.65,2.08h-2.53A3.79,3.79,0,0,0-18,16.87,2.31,2.31,0,0,1-20,18Z"/><path class="cls-3" d="M20,6h0a2.31,2.31,0,0,1,2,1.13,3.79,3.79,0,0,0,2.86,1.95h2.53c1.19,0,2,.61,2.65,2.08.6-1.47,1.46-2.08,2.65-2.08h2.53A3.79,3.79,0,0,0,38,7.13,2.31,2.31,0,0,1,40,6h0a2.31,2.31,0,0,1-2-1.13,3.79,3.79,0,0,0-2.86-1.95H32.65c-1.19,0-2-.61-2.65-2.08-.6,1.47-1.46,2.08-2.65,2.08H24.82A3.79,3.79,0,0,0,22,4.87,2.31,2.31,0,0,1,20,6Z"/><path class="cls-3" d="M0,6H0A2.31,2.31,0,0,1,2,7.13,3.79,3.79,0,0,0,4.82,9.08H7.35c1.19,0,2,.61,2.65,2.08.6-1.47,1.46-2.08,2.65-2.08h2.53A3.79,3.79,0,0,0,18,7.13,2.31,2.31,0,0,1,20,6h0a2.31,2.31,0,0,1-2-1.13,3.79,3.79,0,0,0-2.86-1.95H12.65c-1.19,0-2-.61-2.65-2.08C9.4,2.32,8.54,2.92,7.35,2.92H4.82A3.79,3.79,0,0,0,2,4.87,2.31,2.31,0,0,1,0,6Z"/><path class="cls-3" d="M-20,6h0a2.31,2.31,0,0,1,2,1.13,3.79,3.79,0,0,0,2.86,1.95h2.53c1.19,0,2,.61,2.65,2.08.6-1.47,1.46-2.08,2.65-2.08h2.53A3.79,3.79,0,0,0-2,7.13,2.31,2.31,0,0,1,0,6H0A2.31,2.31,0,0,1-2,4.87,3.79,3.79,0,0,0-4.82,2.92H-7.35c-1.19,0-2-.61-2.65-2.08-.6,1.47-1.46,2.08-2.65,2.08h-2.53A3.79,3.79,0,0,0-18,4.87,2.31,2.31,0,0,1-20,6Z"/><path class="cls-3" d="M20-6h0a2.31,2.31,0,0,1,2,1.13,3.79,3.79,0,0,0,2.86,1.95h2.53c1.19,0,2,.61,2.65,2.08.6-1.47,1.46-2.08,2.65-2.08h2.53A3.79,3.79,0,0,0,38-4.87,2.31,2.31,0,0,1,40-6h0a2.31,2.31,0,0,1-2-1.13,3.79,3.79,0,0,0-2.86-1.95H32.65c-1.19,0-2-.61-2.65-2.08-.6,1.47-1.46,2.08-2.65,2.08H24.82A3.79,3.79,0,0,0,22-7.13,2.31,2.31,0,0,1,20-6Z"/><path class="cls-3" d="M0-6H0A2.31,2.31,0,0,1,2-4.87,3.79,3.79,0,0,0,4.82-2.92H7.35c1.19,0,2,.61,2.65,2.08.6-1.47,1.46-2.08,2.65-2.08h2.53A3.79,3.79,0,0,0,18-4.87,2.31,2.31,0,0,1,20-6h0a2.31,2.31,0,0,1-2-1.13,3.79,3.79,0,0,0-2.86-1.95H12.65c-1.19,0-2-.61-2.65-2.08C9.4-9.68,8.54-9.08,7.35-9.08H4.82A3.79,3.79,0,0,0,2-7.13,2.31,2.31,0,0,1,0-6Z"/><path class="cls-3" d="M-20-6h0a2.31,2.31,0,0,1,2,1.13,3.79,3.79,0,0,0,2.86,1.95h2.53c1.19,0,2,.61,2.65,2.08.6-1.47,1.46-2.08,2.65-2.08h2.53A3.79,3.79,0,0,0-2-4.87,2.31,2.31,0,0,1,0-6H0A2.31,2.31,0,0,1-2-7.13,3.79,3.79,0,0,0-4.82-9.08H-7.35c-1.19,0-2-.61-2.65-2.08-.6,1.47-1.46,2.08-2.65,2.08h-2.53A3.79,3.79,0,0,0-18-7.13,2.31,2.31,0,0,1-20-6Z"/></pattern></defs><title>Asset 2</title><g id="Layer_2" data-name="Layer 2"><g id="Layer_1-2" data-name="Layer 1"><path class="cls-6" d="M242.8,270.4H180.4l-14.4-52H76.8l-14.4,52H0L81.2,4h80ZM90.4,168.4h61.2L121.2,56.8Z"/><path class="cls-2" d="M378.4,270.4H264.8V4H370c55.6,0,76,22.4,76,58.4V89.6c0,19.2-8.4,32.8-29.6,42,22,5.2,39.2,24.4,39.2,49.2v26C455.6,244.4,431.6,270.4,378.4,270.4ZM386,71.2c0-11.6-7.2-18.8-24-18.8H324.8v60.8H362c16,0,24-8,24-18.8Zm9.6,111.2c0-14.8-9.2-22.4-25.2-22.4H324.8v62H362c18.8,0,33.6-4,33.6-23.2Z"/><path class="cls-7" d="M686,192.8c0,40.4-28,81.6-103.2,81.6s-103.2-41.2-103.2-81.6V81.6c0-40.4,28-81.6,103.2-81.6S686,41.2,686,81.6Zm-60-106c0-20.8-13.2-33.6-43.2-33.6S539.6,66,539.6,86.8V187.6c0,20.8,13.2,33.6,43.2,33.6S626,208.4,626,187.6Z"/><path class="cls-8" d="M922.79,4V192.8c0,40.4-25.2,81.6-100.4,81.6S722,233.2,722,192.8V4h60V187.2c0,21.6,10.4,34,40.4,34s40.4-12.4,40.4-34V4Z"/><path class="cls-9" d="M1075.19,57.2V270.4h-60V57.2h-71.6V4h203.2V57.2Z"/></g></g></svg>