<svg xmlns="http://www.w3.org/2000/svg" viewBox="0 0 335.6 70.68"><defs><style>.cls-1{opacity:0.5;}.cls-2{fill:#5797d1;}</style></defs><title>Asset 1</title><g id="Layer_2" data-name="Layer 2"><g id="Layer_1-2" data-name="Layer 1"><g class="cls-1"><path class="cls-2" d="M16.62,48.64l-7.3,22H0L23.77.52H34.68l24,70.12H49l-7.53-22Zm23-7.08-6.9-20.16c-1.51-4.64-2.61-8.79-3.63-12.89h-.21c-1,4.22-2.16,8.5-3.49,12.79l-6.9,20.29Z"/><path class="cls-2" d="M69,1.42A95.66,95.66,0,0,1,86.45,0c9.63,0,15.9,1.76,20.3,5.68A17.5,17.5,0,0,1,112.22,19c0,9.3-5.8,15.43-13.19,17.91v.36c5.43,1.86,8.66,6.8,10.33,14.11,2.32,9.76,3.94,16.56,5.39,19.25h-9.33c-1.15-2-2.73-8-4.69-16.7-2.1-9.72-5.82-13.38-14-13.69H78.13V70.64h-9Zm9.06,32,9.29,0c9.67,0,15.83-5.27,15.83-13.33,0-9-6.56-13-16.15-13.11a35.69,35.69,0,0,0-9,.86Z"/><path class="cls-2" d="M139.44,8.21l-21.38,0V.45H170V8.18H148.54l0,62.41h-9.13Z"/><path class="cls-2" d="M237,39.77c-.51-9.83-1.17-21.53-1.08-30.28h-.29c-2.39,8.25-5.28,16.93-8.82,26.62l-12.38,34h-6.86L196.23,36.77c-3.31-9.89-6.13-18.94-8.09-27.23h-.25c-.21,8.72-.66,20.42-1.31,31l-1.85,30.07h-8.68L181,.45l11.55,0,11.94,33.92C207.4,43,209.8,50.69,211.56,58h.32c1.76-7.13,4.26-14.79,7.37-23.68L231.7.41l11.56,0,4.4,70.15-8.82,0Z"/><path class="cls-2" d="M270.8.36l0,70.17h-9.07l0-70.15Z"/><path class="cls-2" d="M325.12,70.51l-9-15.5c-3.63-5.91-5.95-9.76-8.12-13.87h-.2c-2,4.1-4,7.83-7.58,13.94l-8.41,15.43-10.44,0L302.84,35,282.21.36h10.55L302,16.84c2.6,4.55,4.56,8.09,6.48,11.86h.27c2-4.2,3.76-7.42,6.38-11.89L324.64.34h10.44L313.78,34.55,335.6,70.49Z"/></g></g></g></svg>