<svg xmlns="http://www.w3.org/2000/svg" xmlns:xlink="http://www.w3.org/1999/xlink" viewBox="0 0 1233.01 557.14"><defs><style>.cls-1,.cls-11,.cls-2,.cls-5,.cls-6{fill:none;}.cls-2{stroke:#000;}.cls-11,.cls-2,.cls-5,.cls-6{stroke-miterlimit:10;}.cls-3{fill:#3e3a39;}.cls-4{fill:#fff;}.cls-11,.cls-5{stroke:#3e3a39;}.cls-6{stroke:#231916;}.cls-7{fill:url(#새_패턴);}.cls-8{fill:url(#새_패턴_5);}.cls-9{fill:url(#새_패턴_10);}.cls-10{clip-path:url(#clip-path);}.cls-11{stroke-width:3px;}.cls-12{fill:url(#새_패턴_2);}.cls-13{fill:url(#새_패턴_12);}</style><pattern id="새_패턴" data-name="새 패턴" width="57.31" height="72" patternTransform="translate(-322.63 -16.42) scale(1.7)" patternUnits="userSpaceOnUse" viewBox="0 0 57.31 72"><rect class="cls-1" width="57.31" height="72"/><polygon points="59.64 75.99 56.55 68.94 56.93 68.77 60.03 75.82 59.64 75.99"/><polygon points="59.16 84.16 41.12 61.83 41.45 61.57 59.48 83.89 59.16 84.16"/><polygon points="55.25 71.76 54.83 71.73 55.72 55.26 56.14 55.28 55.25 71.76"/><polygon points="49.22 65.13 48.9 64.85 52.49 60.81 52.8 61.09 49.22 65.13"/><polygon points="51.8 69.81 51.39 69.72 52.44 64.94 52.85 65.03 51.8 69.81"/><polygon points="49.01 59.81 46.32 59.21 46.41 58.8 49.1 59.4 49.01 59.81"/><polygon points="50.5 61.76 50.1 61.64 52.44 54.01 52.85 54.14 50.5 61.76"/><polygon points="48.9 67.45 45.16 63.11 45.48 62.83 49.22 67.17 48.9 67.45"/><rect x="39.49" y="70.61" width="6.88" height="0.42"/><polygon points="47.65 56.18 41.82 54.28 41.95 53.88 47.78 55.78 47.65 56.18"/><polygon points="39.59 59.49 39.39 59.12 43.5 56.88 43.7 57.25 39.59 59.49"/><polygon points="44.69 68.39 41.44 66.4 41.66 66.05 44.91 68.03 44.69 68.39"/><polygon points="39.7 68.02 39.28 67.94 40.18 62.93 40.59 63.01 39.7 68.02"/><polygon points="30.43 87.58 30.02 87.48 34.69 67.71 35.1 67.81 30.43 87.58"/><polygon points="37.87 65.06 34.7 56.05 35.09 55.91 38.27 64.92 37.87 65.06"/><polygon points="37.89 69.87 33.55 62.78 33.91 62.56 38.25 69.65 37.89 69.87"/><polygon points="38.76 72.03 35.2 71.03 35.31 70.62 38.87 71.62 38.76 72.03"/><polygon points="31.63 73.76 31.21 73.7 32.35 66 32.77 66.06 31.63 73.76"/><rect x="31.21" y="61.33" width="0.42" height="4.9"/><polygon points="29.05 62.77 28.67 62.58 33.07 53.98 33.45 54.17 29.05 62.77"/><polygon points="34.75 61.1 33.11 59.46 33.41 59.16 35.04 60.8 34.75 61.1"/><polygon points="37.62 56.75 37.29 56.48 39.33 53.94 39.65 54.21 37.62 56.75"/><polygon points="29.25 68.42 29.15 68.01 31.01 67.56 31.11 67.97 29.25 68.42"/><rect x="19.06" y="70.82" width="0.42" height="4.36"/><polygon points="5.29 81.08 4.26 71.85 4.67 71.8 5.71 81.03 5.29 81.08"/><polygon points="7.51 73.79 7.1 73.67 8.78 68.15 9.18 68.27 7.51 73.79"/><polygon points="13.75 68.42 13.71 68 23.12 67.1 23.16 67.52 13.75 68.42"/><polygon points="16.29 73.85 13.56 69.88 13.91 69.64 16.64 73.61 16.29 73.85"/><polygon points="24.56 71.16 24.36 70.79 28.36 68.67 28.56 69.04 24.56 71.16"/><polygon points="2.34 75.99 -0.76 68.94 -0.37 68.77 2.72 75.82 2.34 75.99"/><polygon points="1.85 84.16 -16.18 61.83 -15.86 61.57 2.18 83.89 1.85 84.16"/><polygon points="1.13 61.1 0.83 60.8 4.83 56.91 5.13 57.22 1.13 61.1"/><path class="cls-2" d="M2,65"/><polygon points="2.12 66.22 1.91 65.85 13.63 59.13 13.84 59.49 2.12 66.22"/><polygon points="5.98 61.14 5.79 60.77 8.88 59.12 9.08 59.49 5.98 61.14"/><polygon points="8.07 57.27 2.91 55.47 3.05 55.07 8.21 56.87 8.07 57.27"/><polygon points="1.14 65.13 0.83 64.85 3.83 61.56 4.14 61.84 1.14 65.13"/><polygon points="3.13 69.91 2.84 69.61 5.42 67.16 5.71 67.46 3.13 69.91"/><polygon points="10.89 70.99 10.33 65.01 10.75 64.97 11.31 70.95 10.89 70.99"/><polygon points="8.17 64.6 8.12 64.18 15.07 63.3 15.13 63.72 8.17 64.6"/><polygon points="25.09 64.12 13.62 56.34 13.85 55.99 25.32 63.77 25.09 64.12"/><polygon points="19.91 61.91 15.37 61.16 15.44 60.74 19.98 61.49 19.91 61.91"/><polygon points="16.55 65.33 16.38 64.95 21.1 62.78 21.27 63.16 16.55 65.33"/><polygon points="26.35 67.49 22.76 65.32 22.98 64.96 26.57 67.13 26.35 67.49"/><polygon points="22.28 57.27 22.21 56.86 27 55.96 27.08 56.38 22.28 57.27"/><polygon points="19.79 58.03 16.31 54.22 16.62 53.93 20.1 57.75 19.79 58.03"/><polygon points="26.65 65.23 26.27 65.05 28.27 60.86 28.65 61.04 26.65 65.23"/><rect x="22.66" y="70.82" width="0.42" height="3.99"/><polygon points="20.99 71.91 19.75 68.94 20.14 68.78 21.38 71.74 20.99 71.91"/><polygon points="11.04 57.21 7.16 53.33 7.45 53.03 11.34 56.92 11.04 57.21"/><polygon points="20.62 55.48 20.52 55.07 27.41 53.39 27.51 53.8 20.62 55.48"/><polygon points="25.72 60.18 25.38 59.94 28.29 55.86 28.63 56.1 25.72 60.18"/><polygon points="22.68 60.23 22.06 59.11 22.43 58.91 23.05 60.03 22.68 60.23"/><polygon points="51.66 48.19 43.93 42.24 44.19 41.91 51.92 47.86 51.66 48.19"/><rect x="47.71" y="34.82" width="0.42" height="4.36"/><polygon points="49.99 42.23 49.69 41.93 54.05 37.58 54.35 37.88 49.99 42.23"/><polygon points="40.81 48.23 40.69 47.83 45.78 46.26 45.9 46.66 40.81 48.23"/><polygon points="39.98 40.06 39.7 39.74 42.25 37.57 42.52 37.89 39.98 40.06"/><polygon points="30.84 53.5 30.5 53.24 37.47 43.96 37.8 44.21 30.84 53.5"/><polygon points="37.2 47.44 37.04 47.05 42.31 44.86 42.47 45.25 37.2 47.44"/><polygon points="33.94 45.08 32.91 35.85 33.33 35.8 34.36 45.03 33.94 45.08"/><polygon points="36.16 37.79 35.76 37.67 37.43 32.15 37.84 32.27 36.16 37.79"/><polygon points="42.41 32.42 42.37 32 51.77 31.1 51.81 31.52 42.41 32.42"/><polygon points="40.6 54.17 37.49 51.07 37.78 50.77 40.9 53.87 40.6 54.17"/><polygon points="39.09 50.2 36.7 48.91 36.9 48.54 39.29 49.83 39.09 50.2"/><polygon points="34.35 54.97 33.95 54.87 34.72 51.77 35.13 51.87 34.35 54.97"/><polygon points="43.42 51.99 43.17 51.65 48.48 47.85 48.72 48.2 43.42 51.99"/><rect x="52.02" y="43.87" width="3.68" height="0.42"/><polygon points="44.94 37.85 42.21 33.88 42.56 33.64 45.29 37.61 44.94 37.85"/><polygon points="53.22 35.16 53.02 34.79 57.02 32.67 57.21 33.04 53.22 35.16"/><polygon points="47.99 52.02 47.85 51.62 55.05 49.17 55.18 49.57 47.99 52.02"/><polygon points="30.99 39.99 27.89 32.94 28.28 32.77 31.38 39.82 30.99 39.99"/><polygon points="30.5 48.16 12.47 25.83 12.79 25.57 30.83 47.89 30.5 48.16"/><polygon points="26.59 35.76 26.17 35.73 27.07 19.26 27.49 19.28 26.59 35.76"/><polygon points="20.56 29.13 20.25 28.85 23.83 24.81 24.15 25.09 20.56 29.13"/><polygon points="23.15 33.81 22.74 33.72 23.79 28.94 24.2 29.03 23.15 33.81"/><polygon points="20.36 23.81 17.67 23.21 17.76 22.8 20.45 23.4 20.36 23.81"/><polygon points="21.85 25.76 21.45 25.64 23.79 18.01 24.19 18.14 21.85 25.76"/><polygon points="20.25 31.45 16.51 27.11 16.83 26.83 20.56 31.17 20.25 31.45"/><polygon points="24.02 37.21 23.96 36.8 28.05 36.17 28.12 36.59 24.02 37.21"/><polygon points="31.9 43.47 29.47 40.57 29.8 40.3 32.23 43.2 31.9 43.47"/><polygon points="29.78 25.1 29.49 24.8 33.49 20.91 33.78 21.22 29.78 25.1"/><path class="cls-2" d="M30.67,29"/><polygon points="21.48 43.47 16.5 37.13 16.83 36.87 21.82 43.21 21.48 43.47"/><polygon points="20.52 50.1 20.29 49.75 26.27 45.97 26.5 46.33 20.52 50.1"/><polygon points="20.51 46.33 20.3 45.96 23.89 43.9 24.1 44.27 20.51 46.33"/><rect x="10.84" y="34.61" width="6.88" height="0.42"/><polygon points="16.58 40.63 13.14 39.01 13.32 38.63 16.76 40.25 16.58 40.63"/><polygon points="12.78 49.52 12.48 49.23 17.56 43.94 17.86 44.23 12.78 49.52"/><polygon points="10.92 51.11 10.76 50.73 17.63 47.84 17.8 48.23 10.92 51.11"/><polygon points="25.14 52.67 16.62 50.8 16.71 50.39 25.23 52.26 25.14 52.67"/><polygon points="29.73 50.11 29.54 49.74 31.97 48.54 32.16 48.91 29.73 50.11"/><polygon points="29.58 51.12 25.99 50.22 26.09 49.81 29.69 50.72 29.58 51.12"/><polygon points="33.51 46.63 31.51 45.23 31.76 44.88 33.76 46.28 33.51 46.63"/><polygon points="29.44 43.42 27.64 39.27 28.03 39.1 29.83 43.26 29.44 43.42"/><polygon points="30.77 30.22 30.56 29.85 42.28 23.13 42.49 23.49 30.77 30.22"/><polygon points="34.64 25.14 34.44 24.77 37.54 23.12 37.73 23.49 34.64 25.14"/><polygon points="36.73 21.27 31.57 19.47 31.7 19.07 36.87 20.87 36.73 21.27"/><polygon points="29.79 29.13 29.48 28.85 32.48 25.56 32.79 25.84 29.79 29.13"/><polygon points="31.78 33.91 31.49 33.61 34.07 31.16 34.36 31.46 31.78 33.91"/><polygon points="39.54 34.99 38.98 29.01 39.4 28.97 39.96 34.95 39.54 34.99"/><polygon points="36.82 28.6 36.77 28.18 43.73 27.3 43.78 27.72 36.82 28.6"/><polygon points="40.59 44.22 36.64 39.77 36.95 39.49 40.91 43.94 40.59 44.22"/><polygon points="53.74 28.12 42.27 20.34 42.5 19.99 53.98 27.77 53.74 28.12"/><polygon points="48.57 25.91 44.02 25.16 44.09 24.74 48.63 25.49 48.57 25.91"/><polygon points="45.2 29.33 45.03 28.95 49.75 26.78 49.93 27.16 45.2 29.33"/><polygon points="55.01 31.49 51.41 29.32 51.63 28.96 55.22 31.13 55.01 31.49"/><polygon points="50.94 21.27 50.86 20.86 55.66 19.96 55.73 20.38 50.94 21.27"/><polygon points="48.45 22.03 44.96 18.22 45.27 17.93 48.76 21.75 48.45 22.03"/><polygon points="55.31 29.23 54.93 29.05 56.92 24.86 57.31 25.04 55.31 29.23"/><rect x="51.31" y="34.82" width="0.42" height="3.99"/><polygon points="47.17 40.63 47 40.25 49.75 38.99 49.93 39.38 47.17 40.63"/><polygon points="42.51 42.03 42.26 41.68 44.99 39.73 45.24 40.08 42.51 42.03"/><polygon points="49.65 35.91 48.41 32.94 48.8 32.78 50.03 35.74 49.65 35.91"/><polygon points="54.4 40.96 54.01 40.8 55.92 36.3 56.31 36.46 54.4 40.96"/><polygon points="57.07 52.96 53.07 52.03 53.16 51.62 57.16 52.55 57.07 52.96"/><polygon points="18.99 20.18 13.16 18.28 13.29 17.88 19.13 19.78 18.99 20.18"/><polygon points="10.94 23.49 10.74 23.12 14.85 20.88 15.05 21.25 10.94 23.49"/><polygon points="16.03 32.39 12.78 30.4 13 30.05 16.25 32.03 16.03 32.39"/><polygon points="11.04 32.02 10.63 31.94 11.53 26.93 11.94 27.01 11.04 32.02"/><polygon points="14.09 44.18 11.1 38.73 11.47 38.53 14.46 43.98 14.09 44.18"/><rect x="12.42" y="44.08" width="0.42" height="2.06"/><polygon points="22 42.16 20.21 37.81 20.6 37.65 22.39 42 22 42.16"/><polygon points="19.48 45.17 17.54 42.19 17.89 41.96 19.83 44.94 19.48 45.17"/><polygon points="10.25 37.03 10.23 36.61 14.27 36.48 14.28 36.9 10.25 37.03"/><polygon points="12.27 53.58 12.24 53.16 20.39 52.54 20.42 52.96 12.27 53.58"/><polygon points="39.69 21.21 35.81 17.33 36.11 17.03 39.99 20.92 39.69 21.21"/><polygon points="1.77 51.58 1.36 51.48 6.04 31.71 6.45 31.81 1.77 51.58"/><polygon points="8.39 52.81 6.04 45.18 6.44 45.05 8.79 52.69 8.39 52.81"/><polygon points="5.47 43.71 5.17 43.42 7.73 40.73 8.03 41.02 5.47 43.71"/><polygon points="6.08 49.47 3.75 46.87 4.06 46.59 6.4 49.19 6.08 49.47"/><polygon points="11.57 41.78 8.43 37.86 8.76 37.6 11.9 41.52 11.57 41.78"/><polygon points="8.79 47.31 8.4 47.17 10.04 42.58 10.44 42.72 8.79 47.31"/><polygon points="8.8 44.1 8.38 44.06 8.79 40.15 9.21 40.19 8.8 44.1"/><polygon points="5.82 40.63 5.64 40.25 7.33 39.44 7.51 39.82 5.82 40.63"/><polygon points="10.37 50.06 9.96 49.98 10.63 46.42 11.04 46.5 10.37 50.06"/><polygon points="20.27 48.19 18.4 46.62 18.67 46.3 20.54 47.87 20.27 48.19"/><polygon points="9.22 29.06 6.04 20.05 6.44 19.91 9.62 28.92 9.22 29.06"/><polygon points="9.24 33.87 4.89 26.78 5.25 26.56 9.6 33.65 9.24 33.87"/><polygon points="10.11 36.03 6.54 35.03 6.66 34.62 10.22 35.62 10.11 36.03"/><polygon points="2.97 37.76 2.56 37.7 3.7 30 4.11 30.07 2.97 37.76"/><rect x="2.55" y="25.33" width="0.42" height="4.9"/><polygon points="1.37 41.33 0.01 37.07 0.41 36.94 1.77 41.2 1.37 41.33"/><polygon points="0.4 26.77 0.02 26.57 4.42 17.98 4.79 18.17 0.4 26.77"/><polygon points="6.09 25.1 4.46 23.46 4.75 23.16 6.39 24.8 6.09 25.1"/><polygon points="8.96 20.75 8.63 20.48 10.67 17.94 11 18.21 8.96 20.75"/><polygon points="0.68 48.05 0 42.67 0.42 42.62 1.1 48 0.68 48.05"/><polygon points="0.28 53.57 0.14 53.17 5 51.34 5.15 51.73 0.28 53.57"/><polygon points="0.6 32.42 0.5 32.01 2.36 31.56 2.46 31.97 0.6 32.42"/><polygon points="49.27 19.48 49.17 19.07 56.07 17.39 56.16 17.8 49.27 19.48"/><polygon points="54.37 24.18 54.03 23.94 56.94 19.86 57.29 20.1 54.37 24.18"/><polygon points="51.34 24.23 50.71 23.11 51.08 22.91 51.7 24.03 51.34 24.23"/><polygon points="59.64 3.99 56.55 -3.06 56.93 -3.23 60.03 3.82 59.64 3.99"/><polygon points="59.16 12.16 41.12 -10.17 41.45 -10.43 59.48 11.89 59.16 12.16"/><polygon points="52.68 1.21 52.61 0.8 56.71 0.17 56.77 0.59 52.68 1.21"/><polygon points="50.14 7.47 45.16 1.14 45.49 0.87 50.47 7.21 50.14 7.47"/><polygon points="49.17 14.1 48.95 13.75 54.92 9.97 55.15 10.32 49.17 14.1"/><polygon points="49.16 10.33 48.95 9.96 52.54 7.9 52.75 8.27 49.16 10.33"/><polygon points="45.23 4.63 41.79 3.01 41.97 2.63 45.41 4.25 45.23 4.63"/><polygon points="41.44 13.52 41.13 13.23 46.21 7.94 46.52 8.23 41.44 13.52"/><polygon points="39.57 15.11 39.41 14.73 46.28 11.84 46.45 12.23 39.57 15.11"/><polygon points="53.8 16.67 45.27 14.8 45.37 14.39 53.89 16.26 53.8 16.67"/><polygon points="58.24 15.12 54.64 14.22 54.74 13.81 58.34 14.71 58.24 15.12"/><polygon points="58.09 7.42 56.3 3.27 56.68 3.1 58.48 7.25 58.09 7.42"/><polygon points="42.74 8.18 39.75 2.73 40.12 2.53 43.11 7.98 42.74 8.18"/><rect x="41.07" y="8.08" width="0.42" height="2.06"/><polygon points="50.66 6.16 48.86 1.81 49.25 1.65 51.05 6 50.66 6.16"/><polygon points="48.13 9.17 46.19 6.19 46.54 5.96 48.49 8.94 48.13 9.17"/><polygon points="38.9 1.03 38.89 0.61 42.92 0.48 42.94 0.9 38.9 1.03"/><polygon points="40.93 17.58 40.89 17.16 49.04 16.54 49.07 16.96 40.93 17.58"/><polygon points="30.43 15.58 30.02 15.48 34.69 -4.29 35.1 -4.19 30.43 15.58"/><polygon points="37.05 16.81 34.69 9.18 35.1 9.05 37.45 16.69 37.05 16.81"/><polygon points="34.13 7.71 33.82 7.42 36.38 4.74 36.68 5.03 34.13 7.71"/><polygon points="34.74 13.47 32.4 10.87 32.72 10.59 35.05 13.19 34.74 13.47"/><polygon points="40.22 5.78 37.08 1.86 37.41 1.6 40.55 5.51 40.22 5.78"/><polygon points="37.45 11.31 37.05 11.17 38.69 6.58 39.09 6.72 37.45 11.31"/><polygon points="37.46 8.1 37.04 8.06 37.45 4.15 37.87 4.19 37.46 8.1"/><polygon points="34.48 4.63 34.29 4.25 35.98 3.44 36.16 3.82 34.48 4.63"/><polygon points="39.02 14.06 38.61 13.98 39.28 10.42 39.7 10.5 39.02 14.06"/><polygon points="48.92 12.19 47.05 10.62 47.32 10.29 49.19 11.87 48.92 12.19"/><polygon points="38.76 0.03 35.2 -0.97 35.31 -1.38 38.87 -0.38 38.76 0.03"/><polygon points="31.63 1.76 31.21 1.7 32.35 -6 32.77 -5.93 31.63 1.76"/><polygon points="30.02 5.33 28.66 1.07 29.06 0.94 30.42 5.2 30.02 5.33"/><polygon points="29.33 12.05 28.65 6.67 29.07 6.62 29.75 12 29.33 12.05"/><polygon points="28.94 17.57 28.79 17.17 33.65 15.34 33.8 15.73 28.94 17.57"/><polygon points="23.01 12.19 15.28 6.25 15.53 5.91 23.27 11.86 23.01 12.19"/><rect x="19.06" y="-1.18" width="0.42" height="4.36"/><polygon points="21.34 6.23 21.04 5.93 25.4 1.58 25.7 1.88 21.34 6.23"/><polygon points="12.16 12.23 12.04 11.82 17.13 10.26 17.25 10.66 12.16 12.23"/><polygon points="11.32 4.07 11.05 3.75 13.6 1.57 13.87 1.89 11.32 4.07"/><polygon points="2.18 17.5 1.85 17.25 8.81 7.96 9.15 8.21 2.18 17.5"/><polygon points="8.55 11.44 8.38 11.05 13.65 8.86 13.81 9.25 8.55 11.44"/><polygon points="5.29 9.08 4.26 -0.15 4.67 -0.2 5.71 9.03 5.29 9.08"/><polygon points="7.51 1.79 7.1 1.67 8.78 -3.85 9.18 -3.73 7.51 1.79"/><polygon points="11.95 18.17 8.83 15.07 9.13 14.77 12.25 17.87 11.95 18.17"/><polygon points="10.44 14.2 8.04 12.91 8.24 12.54 10.64 13.83 10.44 14.2"/><polygon points="5.7 18.97 5.29 18.87 6.07 15.77 6.48 15.87 5.7 18.97"/><polygon points="14.77 15.99 14.52 15.65 19.82 11.86 20.07 12.2 14.77 15.99"/><rect x="23.37" y="7.87" width="3.68" height="0.42"/><polygon points="16.29 1.85 13.56 -2.12 13.91 -2.36 16.64 1.61 16.29 1.85"/><polygon points="19.34 16.02 19.2 15.62 26.39 13.17 26.53 13.57 19.34 16.02"/><polygon points="2.34 3.99 -0.76 -3.06 -0.37 -3.23 2.72 3.82 2.34 3.99"/><polygon points="1.85 12.16 -16.18 -10.17 -15.86 -10.43 2.18 11.89 1.85 12.16"/><polygon points="3.25 7.47 0.82 4.57 1.14 4.3 3.57 7.2 3.25 7.47"/><polygon points="1.08 14.11 0.89 13.74 3.32 12.54 3.5 12.91 1.08 14.11"/><polygon points="0.93 15.12 -2.67 14.22 -2.56 13.81 1.03 14.71 0.93 15.12"/><polygon points="4.86 10.63 2.86 9.22 3.1 8.88 5.1 10.28 4.86 10.63"/><polygon points="0.79 7.42 -1.01 3.27 -0.62 3.1 1.18 7.25 0.79 7.42"/><polygon points="11.94 8.22 7.99 3.77 8.3 3.49 12.26 7.94 11.94 8.22"/><rect x="22.66" y="-1.18" width="0.42" height="3.99"/><polygon points="18.52 4.63 18.35 4.25 21.1 2.99 21.27 3.38 18.52 4.63"/><polygon points="13.86 6.03 13.61 5.68 16.34 3.73 16.59 4.08 13.86 6.03"/><polygon points="25.74 4.96 25.36 4.8 27.27 0.3 27.66 0.46 25.74 4.96"/><polygon points="28.41 16.96 24.42 16.03 24.51 15.62 28.51 16.55 28.41 16.96"/></pattern><pattern id="새_패턴_5" data-name="새 패턴 5" width="20" height="20" patternTransform="translate(-64.9 -9.63) scale(1.7)" patternUnits="userSpaceOnUse" viewBox="0 0 20 20"><rect class="cls-1" width="20" height="20"/><circle class="cls-3" cx="15" cy="20" r="2.9"/><circle class="cls-3" cx="5" cy="20" r="2.9"/><circle class="cls-3" cx="20" cy="10" r="2.9"/><circle class="cls-3" cx="10" cy="10" r="2.9"/><circle class="cls-3" cy="10" r="2.9"/><circle class="cls-3" cx="15" r="2.9"/><circle class="cls-3" cx="5" r="2.9"/></pattern><pattern id="새_패턴_10" data-name="새 패턴 10" width="135" height="230" patternTransform="translate(-455.35 -26.6) scale(1.7)" patternUnits="userSpaceOnUse" viewBox="0 0 135 230"><rect class="cls-1" width="135" height="230"/><rect class="cls-3" x="66.37" y="171.28" width="137.26" height="117.44"/><polygon class="cls-4" points="116.31 230.57 122.62 229.67 116.31 228.77 118.93 225.28 115.55 227.82 114.54 214.9 113.54 227.82 110.16 225.28 112.78 228.77 106.47 229.67 112.78 230.57 110.16 234.06 113.54 231.52 114.54 244.44 115.55 231.52 118.93 234.06 116.31 230.57"/><polygon class="cls-4" points="76.48 219.6 78.12 219.37 76.48 219.13 77.16 218.23 76.28 218.88 76.02 215.53 75.76 218.88 74.88 218.23 75.56 219.13 73.92 219.37 75.56 219.6 74.88 220.51 75.76 219.85 76.02 223.2 76.28 219.85 77.16 220.51 76.48 219.6"/><polygon class="cls-4" points="106.96 203.94 109.23 203.61 106.96 203.29 107.9 202.03 106.69 202.95 106.32 198.29 105.96 202.95 104.74 202.03 105.69 203.29 103.41 203.61 105.69 203.94 104.74 205.19 105.96 204.28 106.32 208.94 106.69 204.28 107.9 205.19 106.96 203.94"/><polygon class="cls-4" points="126.82 184.71 132.23 183.94 126.82 183.17 129.07 180.18 126.17 182.35 125.31 171.28 124.44 182.35 121.55 180.18 123.79 183.17 118.39 183.94 123.79 184.71 121.55 187.7 124.44 185.52 125.31 196.59 126.17 185.52 129.07 187.7 126.82 184.71"/><path class="cls-4" d="M120.93,203.61a8.84,8.84,0,0,0-1.77.73,12.11,12.11,0,0,0-.77,2.76,12.78,12.78,0,0,0-.93-2.89,7.32,7.32,0,0,0-1.61-.6,8.84,8.84,0,0,0,1.77-.73,12.11,12.11,0,0,0,.77-2.76,12.11,12.11,0,0,0,.77,2.76A8.84,8.84,0,0,0,120.93,203.61Z"/><path class="cls-4" d="M72.66,196.86a11.69,11.69,0,0,0,2.34-1c.41-.35,1-3.65,1-3.65s.77,3.43,1.22,3.82a9.68,9.68,0,0,0,2.13.79,11.68,11.68,0,0,0-2.34,1c-.41.35-1,3.65-1,3.65s-.61-3.3-1-3.65A11.69,11.69,0,0,0,72.66,196.86Z"/><path class="cls-4" d="M130.8,194a11.34,11.34,0,0,0,2.27-.94c.4-.34,1-3.55,1-3.55s.74,3.33,1.19,3.71a9.42,9.42,0,0,0,2.07.77,11.34,11.34,0,0,0-2.27.94c-.4.34-1,3.55-1,3.55s-.6-3.21-1-3.55A11.34,11.34,0,0,0,130.8,194Z"/><path class="cls-4" d="M85.62,209.48A16.71,16.71,0,0,0,89,208.1c.58-.5,1.46-5.22,1.46-5.22s1.1,4.91,1.75,5.47a13.85,13.85,0,0,0,3.05,1.13,16.71,16.71,0,0,0-3.34,1.38c-.58.5-1.46,5.22-1.46,5.22s-.88-4.72-1.46-5.22A16.71,16.71,0,0,0,85.62,209.48Z"/><path class="cls-4" d="M130.45,207.1a5.07,5.07,0,0,0,1-.42,6.94,6.94,0,0,0,.44-1.58,7.33,7.33,0,0,0,.53,1.66,4.19,4.19,0,0,0,.93.34,5.06,5.06,0,0,0-1,.42,6.94,6.94,0,0,0-.44,1.58,6.94,6.94,0,0,0-.44-1.58A5.06,5.06,0,0,0,130.45,207.1Z"/><path class="cls-4" d="M102.77,213a5.07,5.07,0,0,0,1-.42,6.94,6.94,0,0,0,.44-1.58,7.33,7.33,0,0,0,.53,1.66,4.19,4.19,0,0,0,.93.34,5.06,5.06,0,0,0-1,.42,6.94,6.94,0,0,0-.44,1.58,6.94,6.94,0,0,0-.44-1.58A5.06,5.06,0,0,0,102.77,213Z"/><path class="cls-4" d="M67.12,209.68a2.83,2.83,0,0,0,.57-.23,3.86,3.86,0,0,0,.25-.88,4.1,4.1,0,0,0,.3.93,2.34,2.34,0,0,0,.52.19,2.84,2.84,0,0,0-.57.23,3.88,3.88,0,0,0-.25.88,3.86,3.86,0,0,0-.25-.88A2.83,2.83,0,0,0,67.12,209.68Z"/><path class="cls-4" d="M86.89,230.27a2.83,2.83,0,0,0,.57-.23,3.86,3.86,0,0,0,.25-.88,4.1,4.1,0,0,0,.3.93,2.34,2.34,0,0,0,.52.19,2.84,2.84,0,0,0-.57.23,3.88,3.88,0,0,0-.25.88,3.86,3.86,0,0,0-.25-.88A2.83,2.83,0,0,0,86.89,230.27Z"/><path class="cls-4" d="M75.21,211.2a2.83,2.83,0,0,0,.57-.23,3.86,3.86,0,0,0,.25-.88,4.1,4.1,0,0,0,.3.93,2.34,2.34,0,0,0,.52.19,2.84,2.84,0,0,0-.57.23,3.88,3.88,0,0,0-.25.88,3.86,3.86,0,0,0-.25-.88A2.83,2.83,0,0,0,75.21,211.2Z"/><path class="cls-4" d="M81.18,186.72a2.83,2.83,0,0,0,.57-.23,3.86,3.86,0,0,0,.25-.88,4.1,4.1,0,0,0,.3.93,2.34,2.34,0,0,0,.52.19,2.84,2.84,0,0,0-.57.23,3.88,3.88,0,0,0-.25.88,3.86,3.86,0,0,0-.25-.88A2.83,2.83,0,0,0,81.18,186.72Z"/><path class="cls-4" d="M94.41,193.37a2.83,2.83,0,0,0,.57-.23,3.86,3.86,0,0,0,.25-.88,4.1,4.1,0,0,0,.3.93,2.34,2.34,0,0,0,.52.19,2.84,2.84,0,0,0-.57.23,3.88,3.88,0,0,0-.25.88,3.86,3.86,0,0,0-.25-.88A2.83,2.83,0,0,0,94.41,193.37Z"/><path class="cls-4" d="M91,176.64a2.83,2.83,0,0,0,.57-.23,3.86,3.86,0,0,0,.25-.88,4.1,4.1,0,0,0,.3.93,2.34,2.34,0,0,0,.52.19,2.84,2.84,0,0,0-.57.23,3.88,3.88,0,0,0-.25.88,3.86,3.86,0,0,0-.25-.88A2.83,2.83,0,0,0,91,176.64Z"/><path class="cls-4" d="M105.78,189a2.83,2.83,0,0,0,.57-.23,3.86,3.86,0,0,0,.25-.88,4.1,4.1,0,0,0,.3.93,2.34,2.34,0,0,0,.52.19,2.84,2.84,0,0,0-.57.23,3.88,3.88,0,0,0-.25.88,3.86,3.86,0,0,0-.25-.88A2.83,2.83,0,0,0,105.78,189Z"/><path class="cls-4" d="M115.85,177.75a2.83,2.83,0,0,0,.57-.23,3.86,3.86,0,0,0,.25-.88,4.1,4.1,0,0,0,.3.93,2.34,2.34,0,0,0,.52.19,2.84,2.84,0,0,0-.57.23,3.88,3.88,0,0,0-.25.88,3.86,3.86,0,0,0-.25-.88A2.83,2.83,0,0,0,115.85,177.75Z"/><path class="cls-4" d="M71,176.64a2.83,2.83,0,0,0,.57-.23,3.86,3.86,0,0,0,.25-.88,4.1,4.1,0,0,0,.3.93,2.34,2.34,0,0,0,.52.19,2.84,2.84,0,0,0-.57.23,3.88,3.88,0,0,0-.25.88,3.86,3.86,0,0,0-.25-.88A2.83,2.83,0,0,0,71,176.64Z"/><path class="cls-4" d="M100.09,178.87a2.83,2.83,0,0,0,.57-.23,3.86,3.86,0,0,0,.25-.88,4.1,4.1,0,0,0,.3.93,2.34,2.34,0,0,0,.52.19,2.84,2.84,0,0,0-.57.23,3.88,3.88,0,0,0-.25.88,3.86,3.86,0,0,0-.25-.88A2.83,2.83,0,0,0,100.09,178.87Z"/><path class="cls-4" d="M82,192.84a2.83,2.83,0,0,0,.57-.23,3.86,3.86,0,0,0,.25-.88,4.1,4.1,0,0,0,.3.93,2.34,2.34,0,0,0,.52.19,2.84,2.84,0,0,0-.57.23,3.88,3.88,0,0,0-.25.88,3.86,3.86,0,0,0-.25-.88A2.83,2.83,0,0,0,82,192.84Z"/><path class="cls-4" d="M97.82,183.94a2.83,2.83,0,0,0,.57-.23,3.86,3.86,0,0,0,.25-.88,4.1,4.1,0,0,0,.3.93,2.34,2.34,0,0,0,.52.19,2.84,2.84,0,0,0-.57.23,3.88,3.88,0,0,0-.25.88,3.86,3.86,0,0,0-.25-.88A2.83,2.83,0,0,0,97.82,183.94Z"/><path class="cls-4" d="M77.75,187.84a2.83,2.83,0,0,0,.57-.23,3.86,3.86,0,0,0,.25-.88,4.1,4.1,0,0,0,.3.93,2.34,2.34,0,0,0,.52.19,2.84,2.84,0,0,0-.57.23,3.88,3.88,0,0,0-.25.88,3.86,3.86,0,0,0-.25-.88A2.83,2.83,0,0,0,77.75,187.84Z"/><polygon class="cls-4" points="129.94 220.45 131.58 220.22 129.94 219.98 130.62 219.08 129.74 219.74 129.48 216.38 129.22 219.74 128.34 219.08 129.02 219.98 127.38 220.22 129.02 220.45 128.34 221.36 129.22 220.7 129.48 224.05 129.74 220.7 130.62 221.36 129.94 220.45"/><path class="cls-4" d="M134.28,230.14a2.83,2.83,0,0,0,.57-.23,3.86,3.86,0,0,0,.25-.88,4.1,4.1,0,0,0,.3.93,2.34,2.34,0,0,0,.52.19,2.84,2.84,0,0,0-.57.23,3.88,3.88,0,0,0-.25.88,3.86,3.86,0,0,0-.25-.88A2.83,2.83,0,0,0,134.28,230.14Z"/><path class="cls-4" d="M131.38,213.78a2.83,2.83,0,0,0,.57-.23,3.86,3.86,0,0,0,.25-.88,4.1,4.1,0,0,0,.3.93,2.34,2.34,0,0,0,.52.19,2.84,2.84,0,0,0-.57.23,3.88,3.88,0,0,0-.25.88,3.86,3.86,0,0,0-.25-.88A2.83,2.83,0,0,0,131.38,213.78Z"/><path class="cls-4" d="M93.39,190.08a2.83,2.83,0,0,0-.57.23,3.86,3.86,0,0,0-.25.88,4.1,4.1,0,0,0-.3-.93,2.34,2.34,0,0,0-.52-.19,2.84,2.84,0,0,0,.57-.23,3.88,3.88,0,0,0,.25-.88,3.86,3.86,0,0,0,.25.88A2.83,2.83,0,0,0,93.39,190.08Z"/><path class="cls-4" d="M123.58,220.48a2.83,2.83,0,0,0,.57-.23,3.86,3.86,0,0,0,.25-.88,4.1,4.1,0,0,0,.3.93,2.34,2.34,0,0,0,.52.19,2.84,2.84,0,0,0-.57.23,3.88,3.88,0,0,0-.25.88,3.86,3.86,0,0,0-.25-.88A2.83,2.83,0,0,0,123.58,220.48Z"/><path class="cls-4" d="M122.55,217.2a2.83,2.83,0,0,0-.57.23,3.86,3.86,0,0,0-.25.88,4.1,4.1,0,0,0-.3-.93,2.34,2.34,0,0,0-.52-.19,2.84,2.84,0,0,0,.57-.23,3.88,3.88,0,0,0,.25-.88,3.86,3.86,0,0,0,.25.88A2.83,2.83,0,0,0,122.55,217.2Z"/><rect class="cls-3" x="-68.63" y="171.28" width="137.26" height="117.44"/><polygon class="cls-4" points="25.94 208.51 35.84 207.1 25.94 205.69 30.05 200.22 24.75 204.2 23.17 183.94 21.59 204.2 16.29 200.22 20.4 205.69 10.5 207.1 20.4 208.51 16.29 213.99 21.59 210 23.17 230.27 24.75 210 30.05 213.99 25.94 208.51"/><path class="cls-4" d="M68.63,206a11,11,0,0,0-2.2.91c-.38.33-1,3.43-1,3.43s-.72-3.23-1.15-3.6a9.1,9.1,0,0,0-2-.74,11,11,0,0,0,2.2-.91c.38-.33,1-3.43,1-3.43s.58,3.1,1,3.43A11,11,0,0,0,68.63,206Z"/><path class="cls-4" d="M31.67,190.08a7.07,7.07,0,0,0,1.41-.58,9.67,9.67,0,0,0,.62-2.21,10.22,10.22,0,0,0,.74,2.31,5.85,5.85,0,0,0,1.29.48,7.06,7.06,0,0,0-1.41.58,9.69,9.69,0,0,0-.62,2.21,9.69,9.69,0,0,0-.62-2.21A7.07,7.07,0,0,0,31.67,190.08Z"/><path class="cls-4" d="M-4.2,194A11.34,11.34,0,0,0-1.93,193c.4-.34,1-3.55,1-3.55s.74,3.33,1.19,3.71a9.42,9.42,0,0,0,2.07.77,11.34,11.34,0,0,0-2.27.94c-.4.34-1,3.55-1,3.55s-.6-3.21-1-3.55A11.34,11.34,0,0,0-4.2,194Z"/><path class="cls-4" d="M14.41,236.15a16.71,16.71,0,0,0,3.34-1.38c.58-.5,1.46-5.22,1.46-5.22s1.1,4.91,1.75,5.47A13.85,13.85,0,0,0,24,236.15a16.71,16.71,0,0,0-3.34,1.38c-.58.5-1.46,5.22-1.46,5.22s-.88-4.72-1.46-5.22A16.71,16.71,0,0,0,14.41,236.15Z"/><path class="cls-4" d="M44.34,181.12a11.34,11.34,0,0,0,2.27-.94c.4-.34,1-3.55,1-3.55s.74,3.33,1.19,3.71a9.42,9.42,0,0,0,2.07.77,11.34,11.34,0,0,0-2.27.94c-.4.34-1,3.55-1,3.55s-.6-3.21-1-3.55A11.34,11.34,0,0,0,44.34,181.12Z"/><path class="cls-4" d="M14.19,230.27a5.07,5.07,0,0,0,1-.42,6.94,6.94,0,0,0,.44-1.58,7.33,7.33,0,0,0,.53,1.66,4.19,4.19,0,0,0,.93.34,5.06,5.06,0,0,0-1,.42,6.94,6.94,0,0,0-.44,1.58,6.94,6.94,0,0,0-.44-1.58A5.06,5.06,0,0,0,14.19,230.27Z"/><path class="cls-4" d="M34.38,198.44a5.07,5.07,0,0,0,1-.42,6.94,6.94,0,0,0,.44-1.58,7.33,7.33,0,0,0,.53,1.66,4.19,4.19,0,0,0,.93.34,5.06,5.06,0,0,0-1,.42,6.94,6.94,0,0,0-.44,1.58,6.94,6.94,0,0,0-.44-1.58A5.06,5.06,0,0,0,34.38,198.44Z"/><path class="cls-4" d="M37.29,209.48a5.07,5.07,0,0,0,1-.42,6.94,6.94,0,0,0,.44-1.58,7.33,7.33,0,0,0,.53,1.66,4.19,4.19,0,0,0,.93.34,5.06,5.06,0,0,0-1,.42,6.94,6.94,0,0,0-.44,1.58,6.94,6.94,0,0,0-.44-1.58A5.06,5.06,0,0,0,37.29,209.48Z"/><path class="cls-4" d="M46.14,212.32a5.07,5.07,0,0,0,1-.42,6.94,6.94,0,0,0,.44-1.58,7.33,7.33,0,0,0,.53,1.66,4.19,4.19,0,0,0,.93.34,5.06,5.06,0,0,0-1,.42,6.94,6.94,0,0,0-.44,1.58,6.94,6.94,0,0,0-.44-1.58A5.06,5.06,0,0,0,46.14,212.32Z"/><path class="cls-4" d="M35.84,228.27a5.07,5.07,0,0,0,1-.42,6.94,6.94,0,0,0,.44-1.58,7.33,7.33,0,0,0,.53,1.66,4.19,4.19,0,0,0,.93.34,5.06,5.06,0,0,0-1,.42,6.94,6.94,0,0,0-.44,1.58,6.94,6.94,0,0,0-.44-1.58A5.06,5.06,0,0,0,35.84,228.27Z"/><path class="cls-4" d="M30.92,181.12a4.3,4.3,0,0,0,.86-.36,5.89,5.89,0,0,0,.38-1.34,6.23,6.23,0,0,0,.45,1.41,3.57,3.57,0,0,0,.79.29,4.3,4.3,0,0,0-.86.35,5.9,5.9,0,0,0-.38,1.34,5.9,5.9,0,0,0-.38-1.34A4.3,4.3,0,0,0,30.92,181.12Z"/><path class="cls-4" d="M.73,227.85a4.3,4.3,0,0,0,.86-.36A5.89,5.89,0,0,0,2,226.15a6.23,6.23,0,0,0,.45,1.41,3.57,3.57,0,0,0,.79.29,4.3,4.3,0,0,0-.86.35A5.9,5.9,0,0,0,2,229.55a5.9,5.9,0,0,0-.38-1.34A4.3,4.3,0,0,0,.73,227.85Z"/><path class="cls-4" d="M32.15,212.32a2.83,2.83,0,0,0,.57-.23,3.86,3.86,0,0,0,.25-.88,4.1,4.1,0,0,0,.3.93,2.34,2.34,0,0,0,.52.19,2.84,2.84,0,0,0-.57.23,3.88,3.88,0,0,0-.25.88,3.86,3.86,0,0,0-.25-.88A2.83,2.83,0,0,0,32.15,212.32Z"/><path class="cls-4" d="M48.24,217.67a2.83,2.83,0,0,0,.57-.23,3.86,3.86,0,0,0,.25-.88,4.1,4.1,0,0,0,.3.93,2.34,2.34,0,0,0,.52.19,2.84,2.84,0,0,0-.57.23,3.88,3.88,0,0,0-.25.88,3.86,3.86,0,0,0-.25-.88A2.83,2.83,0,0,0,48.24,217.67Z"/><path class="cls-4" d="M32.15,230.27a2.83,2.83,0,0,0,.57-.23,3.86,3.86,0,0,0,.25-.88,4.1,4.1,0,0,0,.3.93,2.34,2.34,0,0,0,.52.19,2.84,2.84,0,0,0-.57.23,3.88,3.88,0,0,0-.25.88,3.86,3.86,0,0,0-.25-.88A2.83,2.83,0,0,0,32.15,230.27Z"/><path class="cls-4" d="M29.68,226.15a2.83,2.83,0,0,0,.57-.23,3.86,3.86,0,0,0,.25-.88,4.1,4.1,0,0,0,.3.93,2.34,2.34,0,0,0,.52.19,2.84,2.84,0,0,0-.57.23,3.88,3.88,0,0,0-.25.88,3.86,3.86,0,0,0-.25-.88A2.83,2.83,0,0,0,29.68,226.15Z"/><path class="cls-4" d="M25.93,219.37a2.83,2.83,0,0,0,.57-.23,3.86,3.86,0,0,0,.25-.88,4.1,4.1,0,0,0,.3.93,2.34,2.34,0,0,0,.52.19,2.84,2.84,0,0,0-.57.23,3.88,3.88,0,0,0-.25.88,3.86,3.86,0,0,0-.25-.88A2.83,2.83,0,0,0,25.93,219.37Z"/><path class="cls-4" d="M58.43,187.84a2.83,2.83,0,0,0,.57-.23,3.86,3.86,0,0,0,.25-.88,4.1,4.1,0,0,0,.3.93,2.34,2.34,0,0,0,.52.19,2.84,2.84,0,0,0-.57.23,3.88,3.88,0,0,0-.25.88,3.86,3.86,0,0,0-.25-.88A2.83,2.83,0,0,0,58.43,187.84Z"/><path class="cls-4" d="M10.5,182.82a2.83,2.83,0,0,0,.57-.23,3.86,3.86,0,0,0,.25-.88,4.1,4.1,0,0,0,.3.93,2.34,2.34,0,0,0,.52.19,2.84,2.84,0,0,0-.57.23,3.88,3.88,0,0,0-.25.88,3.86,3.86,0,0,0-.25-.88A2.83,2.83,0,0,0,10.5,182.82Z"/><path class="cls-4" d="M52.26,201.68a2.83,2.83,0,0,0,.57-.23,3.86,3.86,0,0,0,.25-.88,4.1,4.1,0,0,0,.3.93,2.34,2.34,0,0,0,.52.19,2.84,2.84,0,0,0-.57.23,3.88,3.88,0,0,0-.25.88,3.86,3.86,0,0,0-.25-.88A2.83,2.83,0,0,0,52.26,201.68Z"/><path class="cls-4" d="M61.5,225a2.83,2.83,0,0,0,.57-.23,3.86,3.86,0,0,0,.25-.88,4.1,4.1,0,0,0,.3.93,2.34,2.34,0,0,0,.52.19,2.84,2.84,0,0,0-.57.23,3.88,3.88,0,0,0-.25.88,3.86,3.86,0,0,0-.25-.88A2.83,2.83,0,0,0,61.5,225Z"/><path class="cls-4" d="M16.45,223.2A2.83,2.83,0,0,0,17,223a3.86,3.86,0,0,0,.25-.88,4.1,4.1,0,0,0,.3.93,2.34,2.34,0,0,0,.52.19,2.84,2.84,0,0,0-.57.23,3.88,3.88,0,0,0-.25.88,3.86,3.86,0,0,0-.25-.88A2.83,2.83,0,0,0,16.45,223.2Z"/><path class="cls-4" d="M1.24,219.63a5.07,5.07,0,0,0,1-.42,6.94,6.94,0,0,0,.44-1.58,7.33,7.33,0,0,0,.53,1.66,4.19,4.19,0,0,0,.93.34,5.06,5.06,0,0,0-1,.42,6.94,6.94,0,0,0-.44,1.58,6.94,6.94,0,0,0-.44-1.58A5.06,5.06,0,0,0,1.24,219.63Z"/><path class="cls-4" d="M10.65,229.6a2.83,2.83,0,0,0,.57-.23,3.86,3.86,0,0,0,.25-.88,4.1,4.1,0,0,0,.3.93,2.34,2.34,0,0,0,.52.19,2.84,2.84,0,0,0-.57.23,3.88,3.88,0,0,0-.25.88,3.86,3.86,0,0,0-.25-.88A2.83,2.83,0,0,0,10.65,229.6Z"/><path class="cls-4" d="M-.72,230.14a2.83,2.83,0,0,0,.57-.23A3.86,3.86,0,0,0,.1,229a4.1,4.1,0,0,0,.3.93,2.34,2.34,0,0,0,.52.19,2.84,2.84,0,0,0-.57.23,3.88,3.88,0,0,0-.25.88,3.86,3.86,0,0,0-.25-.88A2.83,2.83,0,0,0-.72,230.14Z"/><path class="cls-4" d="M7.75,192.84a2.83,2.83,0,0,0,.57-.23,3.86,3.86,0,0,0,.25-.88,4.1,4.1,0,0,0,.3.93,2.34,2.34,0,0,0,.52.19,2.84,2.84,0,0,0-.57.23,3.88,3.88,0,0,0-.25.88,3.86,3.86,0,0,0-.25-.88A2.83,2.83,0,0,0,7.75,192.84Z"/><path class="cls-4" d="M6.73,189.55a2.83,2.83,0,0,0-.57.23,3.86,3.86,0,0,0-.25.88,4.1,4.1,0,0,0-.3-.93,2.34,2.34,0,0,0-.52-.19,2.84,2.84,0,0,0,.57-.23,3.88,3.88,0,0,0,.25-.88,3.86,3.86,0,0,0,.25.88A2.83,2.83,0,0,0,6.73,189.55Z"/><rect class="cls-3" x="133.87" y="56.28" width="137.26" height="117.44"/><path class="cls-4" d="M134.62,94.68a2.83,2.83,0,0,0,.57-.23,3.86,3.86,0,0,0,.25-.88,4.1,4.1,0,0,0,.3.93,2.34,2.34,0,0,0,.52.19,2.84,2.84,0,0,0-.57.23,3.88,3.88,0,0,0-.25.88,3.86,3.86,0,0,0-.25-.88A2.83,2.83,0,0,0,134.62,94.68Z"/><rect class="cls-3" x="-1.13" y="56.28" width="137.26" height="117.44"/><polygon class="cls-4" points="48.81 115.57 55.12 114.67 48.81 113.77 51.43 110.28 48.05 112.82 47.04 99.9 46.04 112.82 42.66 110.28 45.28 113.77 38.97 114.67 45.28 115.57 42.66 119.06 46.04 116.52 47.04 129.44 48.05 116.52 51.43 119.06 48.81 115.57"/><polygon class="cls-4" points="93.44 93.51 103.33 92.1 93.44 90.69 97.55 85.22 92.25 89.2 90.67 68.94 89.09 89.2 83.79 85.22 87.9 90.69 78 92.1 87.9 93.51 83.79 98.98 89.09 95 90.67 115.27 92.25 95 97.55 98.98 93.44 93.51"/><polygon class="cls-4" points="12.71 139.87 18.12 139.1 12.71 138.33 14.96 135.34 12.06 137.52 11.2 126.44 10.34 137.52 7.44 135.34 9.68 138.33 4.28 139.1 9.68 139.87 7.44 142.86 10.34 140.69 11.2 151.76 12.06 140.69 14.96 142.86 12.71 139.87"/><polygon class="cls-4" points="52.4 161.83 57.81 161.06 52.4 160.29 54.65 157.3 51.75 159.48 50.89 148.41 50.02 159.48 47.13 157.3 49.37 160.29 43.97 161.06 49.37 161.83 47.13 164.82 50.02 162.65 50.89 173.72 51.75 162.65 54.65 164.82 52.4 161.83"/><polygon class="cls-4" points="87.55 141.67 90.5 141.25 87.55 140.83 88.77 139.2 87.19 140.39 86.72 134.35 86.25 140.39 84.67 139.2 85.89 140.83 82.94 141.25 85.89 141.67 84.67 143.31 86.25 142.12 86.72 148.16 87.19 142.12 88.77 143.31 87.55 141.67"/><polygon class="cls-4" points="37.45 127.27 41.1 126.75 37.45 126.23 38.97 124.22 37.02 125.68 36.44 118.22 35.85 125.68 33.9 124.22 35.41 126.23 31.77 126.75 35.41 127.27 33.9 129.28 35.85 127.82 36.44 135.28 37.02 127.82 38.97 129.28 37.45 127.27"/><polygon class="cls-4" points="102.9 155.44 106.54 154.93 102.9 154.41 104.41 152.39 102.46 153.86 101.88 146.4 101.3 153.86 99.35 152.39 100.86 154.41 97.22 154.93 100.86 155.44 99.35 157.46 101.3 155.99 101.88 163.45 102.46 155.99 104.41 157.46 102.9 155.44"/><polygon class="cls-4" points="111.02 138.88 113.29 138.56 111.02 138.23 111.96 136.97 110.74 137.89 110.38 133.23 110.02 137.89 108.8 136.97 109.74 138.23 107.47 138.56 109.74 138.88 108.8 140.14 110.02 139.22 110.38 143.88 110.74 139.22 111.96 140.14 111.02 138.88"/><polygon class="cls-4" points="23.38 146.89 25.02 146.66 23.38 146.42 24.06 145.51 23.18 146.18 22.92 142.82 22.66 146.18 21.78 145.51 22.46 146.42 20.82 146.66 22.46 146.89 21.78 147.79 22.66 147.13 22.92 150.49 23.18 147.13 24.06 147.79 23.38 146.89"/><polygon class="cls-4" points="8.98 104.6 10.62 104.37 8.98 104.13 9.66 103.23 8.78 103.89 8.52 100.53 8.26 103.89 7.38 103.23 8.06 104.13 6.42 104.37 8.06 104.6 7.38 105.51 8.26 104.85 8.52 108.2 8.78 104.85 9.66 105.51 8.98 104.6"/><polygon class="cls-4" points="39.46 88.94 41.73 88.61 39.46 88.29 40.4 87.03 39.19 87.95 38.82 83.29 38.46 87.95 37.24 87.03 38.19 88.29 35.91 88.61 38.19 88.94 37.24 90.19 38.46 89.28 38.82 93.94 39.19 89.28 40.4 90.19 39.46 88.94"/><polygon class="cls-4" points="59.32 69.71 64.73 68.94 59.32 68.17 61.57 65.18 58.67 67.35 57.81 56.28 56.95 67.35 54.05 65.18 56.29 68.17 50.89 68.94 56.29 69.71 54.05 72.7 56.95 70.52 57.81 81.59 58.67 70.52 61.57 72.7 59.32 69.71"/><path class="cls-4" d="M53.43,88.61a8.84,8.84,0,0,0-1.77.73,12.11,12.11,0,0,0-.77,2.76A12.78,12.78,0,0,0,50,89.21a7.32,7.32,0,0,0-1.61-.6,8.84,8.84,0,0,0,1.77-.73,12.11,12.11,0,0,0,.77-2.76,12.11,12.11,0,0,0,.77,2.76A8.84,8.84,0,0,0,53.43,88.61Z"/><path class="cls-4" d="M66.56,122.91a7.5,7.5,0,0,0-1.5.62,10.28,10.28,0,0,0-.66,2.35,10.87,10.87,0,0,0-.79-2.46,6.23,6.23,0,0,0-1.37-.51,7.51,7.51,0,0,0,1.5-.62,10.29,10.29,0,0,0,.66-2.35,10.3,10.3,0,0,0,.66,2.35A7.51,7.51,0,0,0,66.56,122.91Z"/><path class="cls-4" d="M136.13,91a11,11,0,0,0-2.2.91c-.38.33-1,3.43-1,3.43s-.72-3.23-1.15-3.6a9.1,9.1,0,0,0-2-.74,11,11,0,0,0,2.2-.91c.38-.33,1-3.43,1-3.43s.58,3.1,1,3.43A11,11,0,0,0,136.13,91Z"/><path class="cls-4" d="M93.43,154.68"/><path class="cls-4" d="M5.16,81.86a11.69,11.69,0,0,0,2.34-1c.41-.35,1-3.65,1-3.65s.77,3.43,1.22,3.82a9.68,9.68,0,0,0,2.13.79,11.68,11.68,0,0,0-2.34,1c-.41.35-1,3.65-1,3.65s-.61-3.3-1-3.65A11.69,11.69,0,0,0,5.16,81.86Z"/><path class="cls-4" d="M99.17,75.08a7.07,7.07,0,0,0,1.41-.58,9.67,9.67,0,0,0,.62-2.21,10.22,10.22,0,0,0,.74,2.31,5.85,5.85,0,0,0,1.29.48,7.06,7.06,0,0,0-1.41.58,9.69,9.69,0,0,0-.62,2.21,9.69,9.69,0,0,0-.62-2.21A7.07,7.07,0,0,0,99.17,75.08Z"/><path class="cls-4" d="M13.68,161.06a11.34,11.34,0,0,0,2.27-.94c.4-.34,1-3.55,1-3.55s.74,3.33,1.19,3.71a9.42,9.42,0,0,0,2.07.77,11.34,11.34,0,0,0-2.27.94c-.4.34-1,3.55-1,3.55s-.6-3.21-1-3.55A11.34,11.34,0,0,0,13.68,161.06Z"/><path class="cls-4" d="M117.31,154.68a11.34,11.34,0,0,0,2.27-.94c.4-.34,1-3.55,1-3.55s.74,3.33,1.19,3.71a9.42,9.42,0,0,0,2.07.77,11.34,11.34,0,0,0-2.27.94c-.4.34-1,3.55-1,3.55s-.6-3.21-1-3.55A11.34,11.34,0,0,0,117.31,154.68Z"/><path class="cls-4" d="M118.12,134.07a11.34,11.34,0,0,0,2.27-.94c.4-.34,1-3.55,1-3.55s.74,3.33,1.19,3.71a9.42,9.42,0,0,0,2.07.77,11.34,11.34,0,0,0-2.27.94c-.4.34-1,3.55-1,3.55s-.6-3.21-1-3.55A11.34,11.34,0,0,0,118.12,134.07Z"/><path class="cls-4" d="M63.3,79A11.34,11.34,0,0,0,65.57,78c.4-.34,1-3.55,1-3.55s.74,3.33,1.19,3.71a9.42,9.42,0,0,0,2.07.77,11.34,11.34,0,0,0-2.27.94c-.4.34-1,3.55-1,3.55s-.6-3.21-1-3.55A11.34,11.34,0,0,0,63.3,79Z"/><path class="cls-4" d="M18.12,94.48a16.71,16.71,0,0,0,3.34-1.38c.58-.5,1.46-5.22,1.46-5.22s1.1,4.91,1.75,5.47a13.85,13.85,0,0,0,3.05,1.13,16.71,16.71,0,0,0-3.34,1.38c-.58.5-1.46,5.22-1.46,5.22s-.88-4.72-1.46-5.22A16.71,16.71,0,0,0,18.12,94.48Z"/><path class="cls-4" d="M81.91,121.15a16.71,16.71,0,0,0,3.34-1.38c.58-.5,1.46-5.22,1.46-5.22s1.1,4.91,1.75,5.47a13.85,13.85,0,0,0,3.05,1.13,16.71,16.71,0,0,0-3.34,1.38c-.58.5-1.46,5.22-1.46,5.22s-.88-4.72-1.46-5.22A16.71,16.71,0,0,0,81.91,121.15Z"/><path class="cls-4" d="M111.84,66.12a11.34,11.34,0,0,0,2.27-.94c.4-.34,1-3.55,1-3.55s.74,3.33,1.19,3.71a9.42,9.42,0,0,0,2.07.77,11.34,11.34,0,0,0-2.27.94c-.4.34-1,3.55-1,3.55s-.6-3.21-1-3.55A11.34,11.34,0,0,0,111.84,66.12Z"/><path class="cls-4" d="M64.75,146.65a11.34,11.34,0,0,0,2.27-.94c.4-.34,1-3.55,1-3.55s.74,3.33,1.19,3.71a9.42,9.42,0,0,0,2.07.77,11.34,11.34,0,0,0-2.27.94c-.4.34-1,3.55-1,3.55s-.6-3.21-1-3.55A11.34,11.34,0,0,0,64.75,146.65Z"/><path class="cls-4" d="M96.2,166.31a5.07,5.07,0,0,0,1-.42,6.94,6.94,0,0,0,.44-1.58,7.33,7.33,0,0,0,.53,1.66,4.19,4.19,0,0,0,.93.34,5.06,5.06,0,0,0-1,.42,6.94,6.94,0,0,0-.44,1.58,6.94,6.94,0,0,0-.44-1.58A5.06,5.06,0,0,0,96.2,166.31Z"/><path class="cls-4" d="M29.68,146.07a5.07,5.07,0,0,0,1-.42,6.94,6.94,0,0,0,.44-1.58,7.33,7.33,0,0,0,.53,1.66,4.19,4.19,0,0,0,.93.34,5.06,5.06,0,0,0-1,.42,6.94,6.94,0,0,0-.44,1.58,6.94,6.94,0,0,0-.44-1.58A5.06,5.06,0,0,0,29.68,146.07Z"/><path class="cls-4" d="M110.38,167.42a5.07,5.07,0,0,0,1-.42,6.94,6.94,0,0,0,.44-1.58,7.33,7.33,0,0,0,.53,1.66,4.19,4.19,0,0,0,.93.34,5.06,5.06,0,0,0-1,.42,6.94,6.94,0,0,0-.44,1.58,6.94,6.94,0,0,0-.44-1.58A5.06,5.06,0,0,0,110.38,167.42Z"/><path class="cls-4" d="M81.69,115.27a5.07,5.07,0,0,0,1-.42,6.94,6.94,0,0,0,.44-1.58,7.33,7.33,0,0,0,.53,1.66,4.19,4.19,0,0,0,.93.34,5.06,5.06,0,0,0-1,.42,6.94,6.94,0,0,0-.44,1.58,6.94,6.94,0,0,0-.44-1.58A5.06,5.06,0,0,0,81.69,115.27Z"/><path class="cls-4" d="M63,92.1a5.07,5.07,0,0,0,1-.42,6.94,6.94,0,0,0,.44-1.58,7.33,7.33,0,0,0,.53,1.66,4.19,4.19,0,0,0,.93.34,5.06,5.06,0,0,0-1,.42,6.94,6.94,0,0,0-.44,1.58A6.94,6.94,0,0,0,64,92.52,5.06,5.06,0,0,0,63,92.1Z"/><path class="cls-4" d="M101.88,83.44a5.07,5.07,0,0,0,1-.42,6.94,6.94,0,0,0,.44-1.58,7.33,7.33,0,0,0,.53,1.66,4.19,4.19,0,0,0,.93.34,5.06,5.06,0,0,0-1,.42,6.94,6.94,0,0,0-.44,1.58,6.94,6.94,0,0,0-.44-1.58A5.06,5.06,0,0,0,101.88,83.44Z"/><path class="cls-4" d="M35.27,98a5.07,5.07,0,0,0,1-.42A6.94,6.94,0,0,0,36.72,96a7.33,7.33,0,0,0,.53,1.66,4.19,4.19,0,0,0,.93.34,5.06,5.06,0,0,0-1,.42,6.94,6.94,0,0,0-.44,1.58,6.94,6.94,0,0,0-.44-1.58A5.06,5.06,0,0,0,35.27,98Z"/><path class="cls-4" d="M13.85,124a5.07,5.07,0,0,0,1-.42,6.94,6.94,0,0,0,.44-1.58,7.33,7.33,0,0,0,.53,1.66,4.19,4.19,0,0,0,.93.34,5.06,5.06,0,0,0-1,.42,6.94,6.94,0,0,0-.44,1.58,6.94,6.94,0,0,0-.44-1.58A5.06,5.06,0,0,0,13.85,124Z"/><path class="cls-4" d="M104.79,94.48a5.07,5.07,0,0,0,1-.42,6.94,6.94,0,0,0,.44-1.58,7.33,7.33,0,0,0,.53,1.66,4.19,4.19,0,0,0,.93.34,5.06,5.06,0,0,0-1,.42,6.94,6.94,0,0,0-.44,1.58,6.94,6.94,0,0,0-.44-1.58A5.06,5.06,0,0,0,104.79,94.48Z"/><path class="cls-4" d="M113.64,97.32a5.07,5.07,0,0,0,1-.42,6.94,6.94,0,0,0,.44-1.58,7.33,7.33,0,0,0,.53,1.66,4.19,4.19,0,0,0,.93.34,5.06,5.06,0,0,0-1,.42,6.94,6.94,0,0,0-.44,1.58,6.94,6.94,0,0,0-.44-1.58A5.06,5.06,0,0,0,113.64,97.32Z"/><path class="cls-4" d="M103.34,113.27a5.07,5.07,0,0,0,1-.42,6.94,6.94,0,0,0,.44-1.58,7.33,7.33,0,0,0,.53,1.66,4.19,4.19,0,0,0,.93.34,5.06,5.06,0,0,0-1,.42,6.94,6.94,0,0,0-.44,1.58,6.94,6.94,0,0,0-.44-1.58A5.06,5.06,0,0,0,103.34,113.27Z"/><path class="cls-4" d="M98,146.65a4.3,4.3,0,0,0,.86-.36,5.89,5.89,0,0,0,.38-1.34,6.23,6.23,0,0,0,.45,1.41,3.57,3.57,0,0,0,.79.29,4.3,4.3,0,0,0-.86.35,5.9,5.9,0,0,0-.38,1.34,5.9,5.9,0,0,0-.38-1.34A4.3,4.3,0,0,0,98,146.65Z"/><path class="cls-4" d="M66.78,154.68a4.3,4.3,0,0,0,.86-.36A5.89,5.89,0,0,0,68,153a6.23,6.23,0,0,0,.45,1.41,3.57,3.57,0,0,0,.79.29,4.3,4.3,0,0,0-.86.35,5.9,5.9,0,0,0-.38,1.34,5.9,5.9,0,0,0-.38-1.34A4.3,4.3,0,0,0,66.78,154.68Z"/><path class="cls-4" d="M98.42,66.12a4.3,4.3,0,0,0,.86-.36,5.89,5.89,0,0,0,.38-1.34,6.23,6.23,0,0,0,.45,1.41,3.57,3.57,0,0,0,.79.29,4.3,4.3,0,0,0-.86.35,5.9,5.9,0,0,0-.38,1.34,5.9,5.9,0,0,0-.38-1.34A4.3,4.3,0,0,0,98.42,66.12Z"/><path class="cls-4" d="M99.23,128.45a4.3,4.3,0,0,0,.86-.36,5.89,5.89,0,0,0,.38-1.34,6.23,6.23,0,0,0,.45,1.41,3.57,3.57,0,0,0,.79.29,4.3,4.3,0,0,0-.86.35,5.9,5.9,0,0,0-.38,1.34,5.9,5.9,0,0,0-.38-1.34A4.3,4.3,0,0,0,99.23,128.45Z"/><path class="cls-4" d="M68.23,112.85a4.3,4.3,0,0,0,.86-.36,5.89,5.89,0,0,0,.38-1.34,6.23,6.23,0,0,0,.45,1.41,3.57,3.57,0,0,0,.79.29,4.3,4.3,0,0,0-.86.35,5.9,5.9,0,0,0-.38,1.34,5.9,5.9,0,0,0-.38-1.34A4.3,4.3,0,0,0,68.23,112.85Z"/><path class="cls-4" d="M39.09,156a2.83,2.83,0,0,0,.57-.23,3.86,3.86,0,0,0,.25-.88,4.1,4.1,0,0,0,.3.93,2.34,2.34,0,0,0,.52.19,2.84,2.84,0,0,0-.57.23,3.88,3.88,0,0,0-.25.88,3.86,3.86,0,0,0-.25-.88A2.83,2.83,0,0,0,39.09,156Z"/><path class="cls-4" d="M5.67,150.44a2.83,2.83,0,0,0,.57-.23,3.86,3.86,0,0,0,.25-.88,4.1,4.1,0,0,0,.3.93,2.34,2.34,0,0,0,.52.19,2.84,2.84,0,0,0-.57.23,3.88,3.88,0,0,0-.25.88,3.86,3.86,0,0,0-.25-.88A2.83,2.83,0,0,0,5.67,150.44Z"/><path class="cls-4" d="M99.65,97.32a2.83,2.83,0,0,0,.57-.23,3.86,3.86,0,0,0,.25-.88,4.1,4.1,0,0,0,.3.93,2.34,2.34,0,0,0,.52.19,2.84,2.84,0,0,0-.57.23,3.88,3.88,0,0,0-.25.88,3.86,3.86,0,0,0-.25-.88A2.83,2.83,0,0,0,99.65,97.32Z"/><path class="cls-4" d="M-.38,94.68a2.83,2.83,0,0,0,.57-.23,3.86,3.86,0,0,0,.25-.88,4.1,4.1,0,0,0,.3.93,2.34,2.34,0,0,0,.52.19,2.84,2.84,0,0,0-.57.23,3.88,3.88,0,0,0-.25.88,3.86,3.86,0,0,0-.25-.88A2.83,2.83,0,0,0-.38,94.68Z"/><path class="cls-4" d="M19.39,115.27A2.83,2.83,0,0,0,20,115a3.86,3.86,0,0,0,.25-.88,4.1,4.1,0,0,0,.3.93,2.34,2.34,0,0,0,.52.19,2.84,2.84,0,0,0-.57.23,3.88,3.88,0,0,0-.25.88,3.86,3.86,0,0,0-.25-.88A2.83,2.83,0,0,0,19.39,115.27Z"/><path class="cls-4" d="M11.07,116.39a2.83,2.83,0,0,0,.57-.23,3.86,3.86,0,0,0,.25-.88,4.1,4.1,0,0,0,.3.93,2.34,2.34,0,0,0,.52.19,2.84,2.84,0,0,0-.57.23,3.88,3.88,0,0,0-.25.88,3.86,3.86,0,0,0-.25-.88A2.83,2.83,0,0,0,11.07,116.39Z"/><path class="cls-4" d="M26.1,135.19a2.83,2.83,0,0,0,.57-.23,3.86,3.86,0,0,0,.25-.88,4.1,4.1,0,0,0,.3.93,2.34,2.34,0,0,0,.52.19,2.84,2.84,0,0,0-.57.23,3.88,3.88,0,0,0-.25.88,3.86,3.86,0,0,0-.25-.88A2.83,2.83,0,0,0,26.1,135.19Z"/><path class="cls-4" d="M115.74,102.67a2.83,2.83,0,0,0,.57-.23,3.86,3.86,0,0,0,.25-.88,4.1,4.1,0,0,0,.3.93,2.34,2.34,0,0,0,.52.19,2.84,2.84,0,0,0-.57.23,3.88,3.88,0,0,0-.25.88,3.86,3.86,0,0,0-.25-.88A2.83,2.83,0,0,0,115.74,102.67Z"/><path class="cls-4" d="M99.65,115.27a2.83,2.83,0,0,0,.57-.23,3.86,3.86,0,0,0,.25-.88,4.1,4.1,0,0,0,.3.93,2.34,2.34,0,0,0,.52.19,2.84,2.84,0,0,0-.57.23,3.88,3.88,0,0,0-.25.88,3.86,3.86,0,0,0-.25-.88A2.83,2.83,0,0,0,99.65,115.27Z"/><path class="cls-4" d="M56.84,130.15a2.83,2.83,0,0,0,.57-.23,3.86,3.86,0,0,0,.25-.88,4.1,4.1,0,0,0,.3.93,2.34,2.34,0,0,0,.52.19,2.84,2.84,0,0,0-.57.23,3.88,3.88,0,0,0-.25.88,3.86,3.86,0,0,0-.25-.88A2.83,2.83,0,0,0,56.84,130.15Z"/><path class="cls-4" d="M31.78,140.22a2.83,2.83,0,0,0,.57-.23,3.86,3.86,0,0,0,.25-.88,4.1,4.1,0,0,0,.3.93,2.34,2.34,0,0,0,.52.19,2.84,2.84,0,0,0-.57.23,3.88,3.88,0,0,0-.25.88,3.86,3.86,0,0,0-.25-.88A2.83,2.83,0,0,0,31.78,140.22Z"/><path class="cls-4" d="M37.37,139.1a2.83,2.83,0,0,0,.57-.23,3.86,3.86,0,0,0,.25-.88,4.1,4.1,0,0,0,.3.93,2.34,2.34,0,0,0,.52.19,2.84,2.84,0,0,0-.57.23,3.88,3.88,0,0,0-.25.88,3.86,3.86,0,0,0-.25-.88A2.83,2.83,0,0,0,37.37,139.1Z"/><path class="cls-4" d="M39.9,135.19a2.83,2.83,0,0,0,.57-.23,3.86,3.86,0,0,0,.25-.88,4.1,4.1,0,0,0,.3.93,2.34,2.34,0,0,0,.52.19,2.84,2.84,0,0,0-.57.23,3.88,3.88,0,0,0-.25.88,3.86,3.86,0,0,0-.25-.88A2.83,2.83,0,0,0,39.9,135.19Z"/><path class="cls-4" d="M25.64,122.91a2.83,2.83,0,0,0,.57-.23,3.86,3.86,0,0,0,.25-.88,4.1,4.1,0,0,0,.3.93,2.34,2.34,0,0,0,.52.19,2.84,2.84,0,0,0-.57.23,3.88,3.88,0,0,0-.25.88,3.86,3.86,0,0,0-.25-.88A2.83,2.83,0,0,0,25.64,122.91Z"/><path class="cls-4" d="M97.18,111.15a2.83,2.83,0,0,0,.57-.23A3.86,3.86,0,0,0,98,110a4.1,4.1,0,0,0,.3.93,2.34,2.34,0,0,0,.52.19,2.84,2.84,0,0,0-.57.23,3.88,3.88,0,0,0-.25.88,3.86,3.86,0,0,0-.25-.88A2.83,2.83,0,0,0,97.18,111.15Z"/><path class="cls-4" d="M93.43,104.37a2.83,2.83,0,0,0,.57-.23,3.86,3.86,0,0,0,.25-.88,4.1,4.1,0,0,0,.3.93,2.34,2.34,0,0,0,.52.19,2.84,2.84,0,0,0-.57.23,3.88,3.88,0,0,0-.25.88,3.86,3.86,0,0,0-.25-.88A2.83,2.83,0,0,0,93.43,104.37Z"/><path class="cls-4" d="M3.47,161.06a2.83,2.83,0,0,0,.57-.23,3.86,3.86,0,0,0,.25-.88,4.1,4.1,0,0,0,.3.93,2.34,2.34,0,0,0,.52.19,2.84,2.84,0,0,0-.57.23,3.88,3.88,0,0,0-.25.88A3.86,3.86,0,0,0,4,161.3,2.83,2.83,0,0,0,3.47,161.06Z"/><path class="cls-4" d="M3.5,166.31a2.83,2.83,0,0,0,.57-.23,3.86,3.86,0,0,0,.25-.88,4.1,4.1,0,0,0,.3.93,2.34,2.34,0,0,0,.52.19,2.84,2.84,0,0,0-.57.23,3.88,3.88,0,0,0-.25.88,3.86,3.86,0,0,0-.25-.88A2.83,2.83,0,0,0,3.5,166.31Z"/><path class="cls-4" d="M75.25,162.45a2.83,2.83,0,0,0,.57-.23,3.86,3.86,0,0,0,.25-.88,4.1,4.1,0,0,0,.3.93,2.34,2.34,0,0,0,.52.19,2.84,2.84,0,0,0-.57.23,3.88,3.88,0,0,0-.25.88,3.86,3.86,0,0,0-.25-.88A2.83,2.83,0,0,0,75.25,162.45Z"/><path class="cls-4" d="M27.73,156.58a2.83,2.83,0,0,0,.57-.23,3.86,3.86,0,0,0,.25-.88,4.1,4.1,0,0,0,.3.93,2.34,2.34,0,0,0,.52.19,2.84,2.84,0,0,0-.57.23,3.88,3.88,0,0,0-.25.88,3.86,3.86,0,0,0-.25-.88A2.83,2.83,0,0,0,27.73,156.58Z"/><path class="cls-4" d="M35.1,165.2a2.83,2.83,0,0,0,.57-.23,3.86,3.86,0,0,0,.25-.88,4.1,4.1,0,0,0,.3.93,2.34,2.34,0,0,0,.52.19,2.84,2.84,0,0,0-.57.23,3.88,3.88,0,0,0-.25.88,3.86,3.86,0,0,0-.25-.88A2.83,2.83,0,0,0,35.1,165.2Z"/><path class="cls-4" d="M125.93,72.84a2.83,2.83,0,0,0,.57-.23,3.86,3.86,0,0,0,.25-.88,4.1,4.1,0,0,0,.3.93,2.34,2.34,0,0,0,.52.19,2.84,2.84,0,0,0-.57.23,3.88,3.88,0,0,0-.25.88,3.86,3.86,0,0,0-.25-.88A2.83,2.83,0,0,0,125.93,72.84Z"/><path class="cls-4" d="M78,67.82a2.83,2.83,0,0,0,.57-.23,3.86,3.86,0,0,0,.25-.88,4.1,4.1,0,0,0,.3.93,2.34,2.34,0,0,0,.52.19,2.84,2.84,0,0,0-.57.23,3.88,3.88,0,0,0-.25.88,3.86,3.86,0,0,0-.25-.88A2.83,2.83,0,0,0,78,67.82Z"/><path class="cls-4" d="M7.71,96.2A2.83,2.83,0,0,0,8.27,96a3.86,3.86,0,0,0,.25-.88,4.1,4.1,0,0,0,.3.93,2.34,2.34,0,0,0,.52.19,2.84,2.84,0,0,0-.57.23,3.88,3.88,0,0,0-.25.88,3.86,3.86,0,0,0-.25-.88A2.83,2.83,0,0,0,7.71,96.2Z"/><path class="cls-4" d="M13.68,71.72a2.83,2.83,0,0,0,.57-.23,3.86,3.86,0,0,0,.25-.88,4.1,4.1,0,0,0,.3.93,2.34,2.34,0,0,0,.52.19,2.84,2.84,0,0,0-.57.23,3.88,3.88,0,0,0-.25.88,3.86,3.86,0,0,0-.25-.88A2.83,2.83,0,0,0,13.68,71.72Z"/><path class="cls-4" d="M78.32,137.29a2.83,2.83,0,0,0,.57-.23,3.86,3.86,0,0,0,.25-.88,4.1,4.1,0,0,0,.3.93,2.34,2.34,0,0,0,.52.19,2.84,2.84,0,0,0-.57.23,3.88,3.88,0,0,0-.25.88,3.86,3.86,0,0,0-.25-.88A2.83,2.83,0,0,0,78.32,137.29Z"/><path class="cls-4" d="M26.91,78.37a2.83,2.83,0,0,0,.57-.23,3.86,3.86,0,0,0,.25-.88,4.1,4.1,0,0,0,.3.93,2.34,2.34,0,0,0,.52.19,2.84,2.84,0,0,0-.57.23,3.88,3.88,0,0,0-.25.88,3.86,3.86,0,0,0-.25-.88A2.83,2.83,0,0,0,26.91,78.37Z"/><path class="cls-4" d="M23.45,61.64A2.83,2.83,0,0,0,24,61.4a3.86,3.86,0,0,0,.25-.88,4.1,4.1,0,0,0,.3.93,2.34,2.34,0,0,0,.52.19,2.84,2.84,0,0,0-.57.23,3.88,3.88,0,0,0-.25.88,3.86,3.86,0,0,0-.25-.88A2.83,2.83,0,0,0,23.45,61.64Z"/><path class="cls-4" d="M38.28,74a2.83,2.83,0,0,0,.57-.23,3.86,3.86,0,0,0,.25-.88,4.1,4.1,0,0,0,.3.93,2.34,2.34,0,0,0,.52.19,2.84,2.84,0,0,0-.57.23,3.88,3.88,0,0,0-.25.88,3.86,3.86,0,0,0-.25-.88A2.83,2.83,0,0,0,38.28,74Z"/><path class="cls-4" d="M48.35,62.75a2.83,2.83,0,0,0,.57-.23,3.86,3.86,0,0,0,.25-.88,4.1,4.1,0,0,0,.3.93,2.34,2.34,0,0,0,.52.19,2.84,2.84,0,0,0-.57.23,3.88,3.88,0,0,0-.25.88,3.86,3.86,0,0,0-.25-.88A2.83,2.83,0,0,0,48.35,62.75Z"/><path class="cls-4" d="M3.5,61.64a2.83,2.83,0,0,0,.57-.23,3.86,3.86,0,0,0,.25-.88,4.1,4.1,0,0,0,.3.93,2.34,2.34,0,0,0,.52.19,2.84,2.84,0,0,0-.57.23,3.88,3.88,0,0,0-.25.88,3.86,3.86,0,0,0-.25-.88A2.83,2.83,0,0,0,3.5,61.64Z"/><path class="cls-4" d="M32.59,63.87a2.83,2.83,0,0,0,.57-.23,3.86,3.86,0,0,0,.25-.88,4.1,4.1,0,0,0,.3.93,2.34,2.34,0,0,0,.52.19,2.84,2.84,0,0,0-.57.23,3.88,3.88,0,0,0-.25.88,3.86,3.86,0,0,0-.25-.88A2.83,2.83,0,0,0,32.59,63.87Z"/><path class="cls-4" d="M14.49,77.84a2.83,2.83,0,0,0,.57-.23,3.86,3.86,0,0,0,.25-.88,4.1,4.1,0,0,0,.3.93,2.34,2.34,0,0,0,.52.19,2.84,2.84,0,0,0-.57.23,3.88,3.88,0,0,0-.25.88,3.86,3.86,0,0,0-.25-.88A2.83,2.83,0,0,0,14.49,77.84Z"/><path class="cls-4" d="M30.32,68.94a2.83,2.83,0,0,0,.57-.23,3.86,3.86,0,0,0,.25-.88,4.1,4.1,0,0,0,.3.93,2.34,2.34,0,0,0,.52.19,2.84,2.84,0,0,0-.57.23,3.88,3.88,0,0,0-.25.88,3.86,3.86,0,0,0-.25-.88A2.83,2.83,0,0,0,30.32,68.94Z"/><path class="cls-4" d="M10.25,72.84a2.83,2.83,0,0,0,.57-.23,3.86,3.86,0,0,0,.25-.88,4.1,4.1,0,0,0,.3.93,2.34,2.34,0,0,0,.52.19,2.84,2.84,0,0,0-.57.23,3.88,3.88,0,0,0-.25.88,3.86,3.86,0,0,0-.25-.88A2.83,2.83,0,0,0,10.25,72.84Z"/><path class="cls-4" d="M119.76,86.68a2.83,2.83,0,0,0,.57-.23,3.86,3.86,0,0,0,.25-.88,4.1,4.1,0,0,0,.3.93,2.34,2.34,0,0,0,.52.19,2.84,2.84,0,0,0-.57.23,3.88,3.88,0,0,0-.25.88,3.86,3.86,0,0,0-.25-.88A2.83,2.83,0,0,0,119.76,86.68Z"/><path class="cls-4" d="M89.86,162.45a2.83,2.83,0,0,0,.57-.23,3.86,3.86,0,0,0,.25-.88,4.1,4.1,0,0,0,.3.93,2.34,2.34,0,0,0,.52.19,2.84,2.84,0,0,0-.57.23,3.88,3.88,0,0,0-.25.88,3.86,3.86,0,0,0-.25-.88A2.83,2.83,0,0,0,89.86,162.45Z"/><path class="cls-4" d="M129,168.31a2.83,2.83,0,0,0,.57-.23,3.86,3.86,0,0,0,.25-.88,4.1,4.1,0,0,0,.3.93,2.34,2.34,0,0,0,.52.19,2.84,2.84,0,0,0-.57.23,3.88,3.88,0,0,0-.25.88,3.86,3.86,0,0,0-.25-.88A2.83,2.83,0,0,0,129,168.31Z"/><path class="cls-4" d="M129,110a2.83,2.83,0,0,0,.57-.23,3.86,3.86,0,0,0,.25-.88,4.1,4.1,0,0,0,.3.93,2.34,2.34,0,0,0,.52.19,2.84,2.84,0,0,0-.57.23,3.88,3.88,0,0,0-.25.88,3.86,3.86,0,0,0-.25-.88A2.83,2.83,0,0,0,129,110Z"/><path class="cls-4" d="M84,108.2a2.83,2.83,0,0,0,.57-.23,3.86,3.86,0,0,0,.25-.88,4.1,4.1,0,0,0,.3.93,2.34,2.34,0,0,0,.52.19,2.84,2.84,0,0,0-.57.23,3.88,3.88,0,0,0-.25.88,3.86,3.86,0,0,0-.25-.88A2.83,2.83,0,0,0,84,108.2Z"/><path class="cls-4" d="M117.55,145a2.83,2.83,0,0,0,.57-.23,3.86,3.86,0,0,0,.25-.88,4.1,4.1,0,0,0,.3.93,2.34,2.34,0,0,0,.52.19,2.84,2.84,0,0,0-.57.23,3.88,3.88,0,0,0-.25.88,3.86,3.86,0,0,0-.25-.88A2.83,2.83,0,0,0,117.55,145Z"/><path class="cls-4" d="M24.82,140.22a2.83,2.83,0,0,0,.57-.23,3.86,3.86,0,0,0,.25-.88,4.1,4.1,0,0,0,.3.93,2.34,2.34,0,0,0,.52.19,2.84,2.84,0,0,0-.57.23,3.88,3.88,0,0,0-.25.88,3.86,3.86,0,0,0-.25-.88A2.83,2.83,0,0,0,24.82,140.22Z"/><polygon class="cls-4" points="62.44 105.45 64.08 105.22 62.44 104.98 63.12 104.08 62.24 104.74 61.98 101.38 61.72 104.74 60.84 104.08 61.52 104.98 59.88 105.22 61.52 105.45 60.84 106.36 61.72 105.7 61.98 109.05 62.24 105.7 63.12 106.36 62.44 105.45"/><path class="cls-4" d="M68.74,104.63a5.07,5.07,0,0,0,1-.42,6.94,6.94,0,0,0,.44-1.58,7.33,7.33,0,0,0,.53,1.66,4.19,4.19,0,0,0,.93.34,5.06,5.06,0,0,0-1,.42,6.94,6.94,0,0,0-.44,1.58,6.94,6.94,0,0,0-.44-1.58A5.06,5.06,0,0,0,68.74,104.63Z"/><path class="cls-4" d="M78.15,114.6a2.83,2.83,0,0,0,.57-.23,3.86,3.86,0,0,0,.25-.88,4.1,4.1,0,0,0,.3.93,2.34,2.34,0,0,0,.52.19,2.84,2.84,0,0,0-.57.23,3.88,3.88,0,0,0-.25.88,3.86,3.86,0,0,0-.25-.88A2.83,2.83,0,0,0,78.15,114.6Z"/><path class="cls-4" d="M66.78,115.14a2.83,2.83,0,0,0,.57-.23,3.86,3.86,0,0,0,.25-.88,4.1,4.1,0,0,0,.3.93,2.34,2.34,0,0,0,.52.19,2.84,2.84,0,0,0-.57.23,3.88,3.88,0,0,0-.25.88,3.86,3.86,0,0,0-.25-.88A2.83,2.83,0,0,0,66.78,115.14Z"/><path class="cls-4" d="M74.15,123.76a2.83,2.83,0,0,0,.57-.23,3.86,3.86,0,0,0,.25-.88,4.1,4.1,0,0,0,.3.93,2.34,2.34,0,0,0,.52.19,2.84,2.84,0,0,0-.57.23,3.88,3.88,0,0,0-.25.88,3.86,3.86,0,0,0-.25-.88A2.83,2.83,0,0,0,74.15,123.76Z"/><path class="cls-4" d="M63.88,98.78a2.83,2.83,0,0,0,.57-.23,3.86,3.86,0,0,0,.25-.88,4.1,4.1,0,0,0,.3.93,2.34,2.34,0,0,0,.52.19,2.84,2.84,0,0,0-.57.23,3.88,3.88,0,0,0-.25.88,3.86,3.86,0,0,0-.25-.88A2.83,2.83,0,0,0,63.88,98.78Z"/><path class="cls-4" d="M58.12,164.94a6.3,6.3,0,0,0,1.26-.52,8.62,8.62,0,0,0,.55-2,9.1,9.1,0,0,0,.66,2.06,5.22,5.22,0,0,0,1.15.43,6.29,6.29,0,0,0-1.26.52,8.63,8.63,0,0,0-.55,2,8.63,8.63,0,0,0-.55-2A6.29,6.29,0,0,0,58.12,164.94Z"/><path class="cls-4" d="M2.38,144a3.37,3.37,0,0,0,.67-.28,4.6,4.6,0,0,0,.29-1.05,4.87,4.87,0,0,0,.35,1.1,2.79,2.79,0,0,0,.62.23,3.38,3.38,0,0,0-.67.28,4.63,4.63,0,0,0-.29,1.05,4.62,4.62,0,0,0-.29-1.05A3.37,3.37,0,0,0,2.38,144Z"/><path class="cls-4" d="M77.25,128.45"/><path class="cls-4" d="M25.89,75.08a2.83,2.83,0,0,0-.57.23,3.86,3.86,0,0,0-.25.88,4.1,4.1,0,0,0-.3-.93,2.34,2.34,0,0,0-.52-.19,2.84,2.84,0,0,0,.57-.23,3.88,3.88,0,0,0,.25-.88,3.86,3.86,0,0,0,.25.88A2.83,2.83,0,0,0,25.89,75.08Z"/><path class="cls-4" d="M56.08,105.48a2.83,2.83,0,0,0,.57-.23,3.86,3.86,0,0,0,.25-.88,4.1,4.1,0,0,0,.3.93,2.34,2.34,0,0,0,.52.19,2.84,2.84,0,0,0-.57.23,3.88,3.88,0,0,0-.25.88,3.86,3.86,0,0,0-.25-.88A2.83,2.83,0,0,0,56.08,105.48Z"/><path class="cls-4" d="M55.05,102.2a2.83,2.83,0,0,0-.57.23,3.86,3.86,0,0,0-.25.88,4.1,4.1,0,0,0-.3-.93,2.34,2.34,0,0,0-.52-.19A2.84,2.84,0,0,0,54,102a3.88,3.88,0,0,0,.25-.88,3.86,3.86,0,0,0,.25.88A2.83,2.83,0,0,0,55.05,102.2Z"/><path class="cls-4" d="M75.25,77.84a2.83,2.83,0,0,0,.57-.23,3.86,3.86,0,0,0,.25-.88,4.1,4.1,0,0,0,.3.93,2.34,2.34,0,0,0,.52.19,2.84,2.84,0,0,0-.57.23,3.88,3.88,0,0,0-.25.88,3.86,3.86,0,0,0-.25-.88A2.83,2.83,0,0,0,75.25,77.84Z"/><path class="cls-4" d="M74.23,74.55a2.83,2.83,0,0,0-.57.23,3.86,3.86,0,0,0-.25.88,4.1,4.1,0,0,0-.3-.93,2.34,2.34,0,0,0-.52-.19,2.84,2.84,0,0,0,.57-.23,3.88,3.88,0,0,0,.25-.88,3.86,3.86,0,0,0,.25.88A2.83,2.83,0,0,0,74.23,74.55Z"/><path class="cls-4" d="M66.56,134.07a5.05,5.05,0,0,0,1-.42,6.92,6.92,0,0,0,.44-1.58,7.31,7.31,0,0,0,.53,1.65,4.19,4.19,0,0,0,.92.34,5.05,5.05,0,0,0-1,.42,6.92,6.92,0,0,0-.44,1.58,6.93,6.93,0,0,0-.44-1.58A5.06,5.06,0,0,0,66.56,134.07Z"/><rect class="cls-3" x="-136.13" y="56.28" width="137.26" height="117.44"/><path class="cls-4" d="M1.13,91a11,11,0,0,0-2.2.91c-.38.33-1,3.43-1,3.43s-.72-3.23-1.15-3.6a9.1,9.1,0,0,0-2-.74A11,11,0,0,0-3,90.11c.38-.33,1-3.43,1-3.43s.58,3.1,1,3.43A11,11,0,0,0,1.13,91Z"/><rect class="cls-3" x="66.37" y="-58.72" width="137.26" height="117.44"/><polygon class="cls-4" points="116.31 0.57 122.62 -0.33 116.31 -1.23 118.93 -4.72 115.55 -2.18 114.54 -15.1 113.54 -2.18 110.16 -4.72 112.78 -1.23 106.47 -0.33 112.78 0.57 110.16 4.05 113.54 1.52 114.54 14.44 115.55 1.52 118.93 4.05 116.31 0.57"/><polygon class="cls-4" points="80.21 24.87 85.62 24.1 80.21 23.33 82.46 20.34 79.56 22.52 78.7 11.44 77.84 22.52 74.94 20.34 77.18 23.33 71.78 24.1 77.18 24.87 74.94 27.86 77.84 25.69 78.7 36.76 79.56 25.69 82.46 27.86 80.21 24.87"/><polygon class="cls-4" points="119.9 46.83 125.31 46.06 119.9 45.3 122.15 42.3 119.25 44.48 118.39 33.41 117.53 44.48 114.63 42.3 116.87 45.3 111.47 46.06 116.87 46.83 114.63 49.82 117.53 47.65 118.39 58.72 119.25 47.65 122.15 49.82 119.9 46.83"/><polygon class="cls-4" points="104.95 12.27 108.6 11.75 104.95 11.23 106.47 9.22 104.52 10.68 103.94 3.23 103.35 10.68 101.4 9.22 102.91 11.23 99.27 11.75 102.91 12.27 101.4 14.28 103.35 12.82 103.94 20.28 104.52 12.82 106.47 14.28 104.95 12.27"/><polygon class="cls-4" points="90.88 31.89 92.52 31.66 90.88 31.42 91.56 30.52 90.68 31.18 90.42 27.82 90.16 31.18 89.28 30.52 89.96 31.42 88.33 31.66 89.96 31.89 89.28 32.8 90.16 32.13 90.42 35.49 90.68 32.13 91.56 32.8 90.88 31.89"/><path class="cls-4" d="M134.06,7.91a7.5,7.5,0,0,0-1.5.62,10.28,10.28,0,0,0-.66,2.35,10.87,10.87,0,0,0-.79-2.46,6.23,6.23,0,0,0-1.37-.51,7.51,7.51,0,0,0,1.5-.62,10.29,10.29,0,0,0,.66-2.35,10.3,10.3,0,0,0,.66,2.35A7.51,7.51,0,0,0,134.06,7.91Z"/><path class="cls-4" d="M81.18,46.06a11.34,11.34,0,0,0,2.27-.94c.4-.34,1-3.55,1-3.55s.74,3.33,1.19,3.71a9.42,9.42,0,0,0,2.07.77,11.34,11.34,0,0,0-2.27.94c-.4.34-1,3.55-1,3.55s-.6-3.21-1-3.55A11.34,11.34,0,0,0,81.18,46.06Z"/><path class="cls-4" d="M132.25,31.65a11.34,11.34,0,0,0,2.27-.94c.4-.34,1-3.55,1-3.55s.74,3.33,1.19,3.71a9.42,9.42,0,0,0,2.07.77,11.34,11.34,0,0,0-2.27.94c-.4.34-1,3.55-1,3.55s-.6-3.21-1-3.55A11.34,11.34,0,0,0,132.25,31.65Z"/><path class="cls-4" d="M97.18,31.07a5.07,5.07,0,0,0,1-.42,6.94,6.94,0,0,0,.44-1.58,7.33,7.33,0,0,0,.53,1.66,4.19,4.19,0,0,0,.93.34,5.06,5.06,0,0,0-1,.42,6.94,6.94,0,0,0-.44,1.58,6.94,6.94,0,0,0-.44-1.58A5.06,5.06,0,0,0,97.18,31.07Z"/><path class="cls-4" d="M81.35,9a5.07,5.07,0,0,0,1-.42A6.94,6.94,0,0,0,82.81,7a7.33,7.33,0,0,0,.53,1.66,4.19,4.19,0,0,0,.93.34,5.06,5.06,0,0,0-1,.42A6.94,6.94,0,0,0,82.81,11a6.94,6.94,0,0,0-.44-1.58A5.06,5.06,0,0,0,81.35,9Z"/><path class="cls-4" d="M134.28,39.68a4.3,4.3,0,0,0,.86-.36,5.89,5.89,0,0,0,.38-1.34,6.23,6.23,0,0,0,.45,1.41,3.57,3.57,0,0,0,.79.29,4.3,4.3,0,0,0-.86.35,5.9,5.9,0,0,0-.38,1.34,5.9,5.9,0,0,0-.38-1.34A4.3,4.3,0,0,0,134.28,39.68Z"/><path class="cls-4" d="M106.59,41a2.83,2.83,0,0,0,.57-.23,3.86,3.86,0,0,0,.25-.88,4.1,4.1,0,0,0,.3.93,2.34,2.34,0,0,0,.52.19,2.84,2.84,0,0,0-.57.23,3.88,3.88,0,0,0-.25.88,3.86,3.86,0,0,0-.25-.88A2.83,2.83,0,0,0,106.59,41Z"/><path class="cls-4" d="M73.17,35.44a2.83,2.83,0,0,0,.57-.23,3.86,3.86,0,0,0,.25-.88,4.1,4.1,0,0,0,.3.93,2.34,2.34,0,0,0,.52.19,2.84,2.84,0,0,0-.57.23,3.88,3.88,0,0,0-.25.88,3.86,3.86,0,0,0-.25-.88A2.83,2.83,0,0,0,73.17,35.44Z"/><path class="cls-4" d="M86.89.27A2.83,2.83,0,0,0,87.46,0a3.86,3.86,0,0,0,.25-.88,4.1,4.1,0,0,0,.3.93,2.34,2.34,0,0,0,.52.19A2.84,2.84,0,0,0,88,.5a3.88,3.88,0,0,0-.25.88A3.86,3.86,0,0,0,87.46.5,2.83,2.83,0,0,0,86.89.27Z"/><path class="cls-4" d="M78.57,1.39a2.83,2.83,0,0,0,.57-.23,3.86,3.86,0,0,0,.25-.88,4.1,4.1,0,0,0,.3.93,2.34,2.34,0,0,0,.52.19,2.84,2.84,0,0,0-.57.23,3.88,3.88,0,0,0-.25.88,3.86,3.86,0,0,0-.25-.88A2.83,2.83,0,0,0,78.57,1.39Z"/><path class="cls-4" d="M93.6,20.19a2.83,2.83,0,0,0,.57-.23,3.86,3.86,0,0,0,.25-.88,4.1,4.1,0,0,0,.3.93,2.34,2.34,0,0,0,.52.19,2.84,2.84,0,0,0-.57.23,3.88,3.88,0,0,0-.25.88,3.86,3.86,0,0,0-.25-.88A2.83,2.83,0,0,0,93.6,20.19Z"/><path class="cls-4" d="M124.34,15.15a2.83,2.83,0,0,0,.57-.23,3.86,3.86,0,0,0,.25-.88,4.1,4.1,0,0,0,.3.93,2.34,2.34,0,0,0,.52.19,2.84,2.84,0,0,0-.57.23,3.88,3.88,0,0,0-.25.88,3.86,3.86,0,0,0-.25-.88A2.83,2.83,0,0,0,124.34,15.15Z"/><path class="cls-4" d="M99.28,25.22a2.83,2.83,0,0,0,.57-.23,3.86,3.86,0,0,0,.25-.88,4.1,4.1,0,0,0,.3.93,2.34,2.34,0,0,0,.52.19,2.84,2.84,0,0,0-.57.23,3.88,3.88,0,0,0-.25.88,3.86,3.86,0,0,0-.25-.88A2.83,2.83,0,0,0,99.28,25.22Z"/><path class="cls-4" d="M104.87,24.1a2.83,2.83,0,0,0,.57-.23,3.86,3.86,0,0,0,.25-.88,4.1,4.1,0,0,0,.3.93,2.34,2.34,0,0,0,.52.19,2.84,2.84,0,0,0-.57.23,3.88,3.88,0,0,0-.25.88,3.86,3.86,0,0,0-.25-.88A2.83,2.83,0,0,0,104.87,24.1Z"/><path class="cls-4" d="M107.4,20.19A2.83,2.83,0,0,0,108,20a3.86,3.86,0,0,0,.25-.88,4.1,4.1,0,0,0,.3.93,2.34,2.34,0,0,0,.52.19,2.84,2.84,0,0,0-.57.23,3.88,3.88,0,0,0-.25.88,3.86,3.86,0,0,0-.25-.88A2.83,2.83,0,0,0,107.4,20.19Z"/><path class="cls-4" d="M93.14,7.91a2.83,2.83,0,0,0,.57-.23,3.86,3.86,0,0,0,.25-.88,4.1,4.1,0,0,0,.3.93,2.34,2.34,0,0,0,.52.19,2.84,2.84,0,0,0-.57.23,3.88,3.88,0,0,0-.25.88,3.86,3.86,0,0,0-.25-.88A2.83,2.83,0,0,0,93.14,7.91Z"/><path class="cls-4" d="M71,46.06a2.83,2.83,0,0,0,.57-.23,3.86,3.86,0,0,0,.25-.88,4.1,4.1,0,0,0,.3.93,2.34,2.34,0,0,0,.52.19,2.84,2.84,0,0,0-.57.23,3.88,3.88,0,0,0-.25.88,3.86,3.86,0,0,0-.25-.88A2.83,2.83,0,0,0,71,46.06Z"/><path class="cls-4" d="M71,51.31a2.83,2.83,0,0,0,.57-.23,3.86,3.86,0,0,0,.25-.88,4.1,4.1,0,0,0,.3.93,2.34,2.34,0,0,0,.52.19,2.84,2.84,0,0,0-.57.23,3.88,3.88,0,0,0-.25.88,3.86,3.86,0,0,0-.25-.88A2.83,2.83,0,0,0,71,51.31Z"/><path class="cls-4" d="M95.23,41.58a2.83,2.83,0,0,0,.57-.23,3.86,3.86,0,0,0,.25-.88,4.1,4.1,0,0,0,.3.93,2.34,2.34,0,0,0,.52.19,2.84,2.84,0,0,0-.57.23,3.88,3.88,0,0,0-.25.88,3.86,3.86,0,0,0-.25-.88A2.83,2.83,0,0,0,95.23,41.58Z"/><path class="cls-4" d="M102.6,50.2a2.83,2.83,0,0,0,.57-.23,3.86,3.86,0,0,0,.25-.88,4.1,4.1,0,0,0,.3.93,2.34,2.34,0,0,0,.52.19,2.84,2.84,0,0,0-.57.23,3.88,3.88,0,0,0-.25.88,3.86,3.86,0,0,0-.25-.88A2.83,2.83,0,0,0,102.6,50.2Z"/><path class="cls-4" d="M92.32,25.22a2.83,2.83,0,0,0,.57-.23,3.86,3.86,0,0,0,.25-.88,4.1,4.1,0,0,0,.3.93,2.34,2.34,0,0,0,.52.19,2.84,2.84,0,0,0-.57.23,3.88,3.88,0,0,0-.25.88,3.86,3.86,0,0,0-.25-.88A2.83,2.83,0,0,0,92.32,25.22Z"/><path class="cls-4" d="M134.28.14a2.83,2.83,0,0,0,.57-.23A3.86,3.86,0,0,0,135.1-1a4.1,4.1,0,0,0,.3.93,2.34,2.34,0,0,0,.52.19,2.84,2.84,0,0,0-.57.23,3.88,3.88,0,0,0-.25.88,3.86,3.86,0,0,0-.25-.88A2.83,2.83,0,0,0,134.28.14Z"/><path class="cls-4" d="M125.62,49.94a6.3,6.3,0,0,0,1.26-.52,8.62,8.62,0,0,0,.55-2,9.1,9.1,0,0,0,.66,2.06,5.22,5.22,0,0,0,1.15.43,6.29,6.29,0,0,0-1.26.52,8.63,8.63,0,0,0-.55,2,8.63,8.63,0,0,0-.55-2A6.29,6.29,0,0,0,125.62,49.94Z"/><path class="cls-4" d="M69.88,29a3.37,3.37,0,0,0,.67-.28,4.6,4.6,0,0,0,.29-1.05,4.87,4.87,0,0,0,.35,1.1,2.79,2.79,0,0,0,.62.23,3.38,3.38,0,0,0-.67.28,4.63,4.63,0,0,0-.29,1.05,4.62,4.62,0,0,0-.29-1.05A3.37,3.37,0,0,0,69.88,29Z"/><path class="cls-4" d="M134.06,19.07a5.05,5.05,0,0,0,1-.42,6.92,6.92,0,0,0,.44-1.58,7.31,7.31,0,0,0,.53,1.65,4.19,4.19,0,0,0,.92.34,5.05,5.05,0,0,0-1,.42,6.92,6.92,0,0,0-.44,1.58,6.93,6.93,0,0,0-.44-1.58A5.06,5.06,0,0,0,134.06,19.07Z"/><rect class="cls-3" x="-68.63" y="-58.72" width="137.26" height="117.44"/><polygon class="cls-4" points="25.94 -21.49 35.84 -22.9 25.94 -24.31 30.05 -29.78 24.75 -25.8 23.17 -46.06 21.59 -25.8 16.29 -29.78 20.4 -24.31 10.5 -22.9 20.4 -21.49 16.29 -16.02 21.59 -20 23.17 0.27 24.75 -20 30.05 -16.02 25.94 -21.49"/><polygon class="cls-4" points="20.05 26.67 23 26.25 20.05 25.83 21.27 24.2 19.69 25.39 19.22 19.35 18.75 25.39 17.17 24.2 18.39 25.83 15.44 26.25 18.39 26.67 17.17 28.3 18.75 27.12 19.22 33.16 19.69 27.12 21.27 28.3 20.05 26.67"/><polygon class="cls-4" points="35.4 40.44 39.04 39.93 35.4 39.41 36.91 37.39 34.96 38.86 34.38 31.4 33.8 38.86 31.85 37.39 33.36 39.41 29.72 39.93 33.36 40.44 31.85 42.46 33.8 40.99 34.38 48.45 34.96 40.99 36.91 42.46 35.4 40.44"/><polygon class="cls-4" points="43.52 23.88 45.79 23.55 43.52 23.23 44.46 21.97 43.24 22.89 42.88 18.23 42.52 22.89 41.3 21.97 42.24 23.23 39.97 23.55 42.24 23.88 41.3 25.14 42.52 24.22 42.88 28.88 43.24 24.22 44.46 25.14 43.52 23.88"/><path class="cls-4" d="M25.93,39.68"/><path class="cls-4" d="M49.81,39.68a11.34,11.34,0,0,0,2.27-.94c.4-.34,1-3.55,1-3.55s.74,3.33,1.19,3.71a9.42,9.42,0,0,0,2.07.77,11.34,11.34,0,0,0-2.27.94c-.4.34-1,3.55-1,3.55s-.6-3.21-1-3.55A11.34,11.34,0,0,0,49.81,39.68Z"/><path class="cls-4" d="M50.62,19.07a11.34,11.34,0,0,0,2.27-.94c.4-.34,1-3.55,1-3.55s.74,3.33,1.19,3.71a9.42,9.42,0,0,0,2.07.77,11.34,11.34,0,0,0-2.27.94c-.4.34-1,3.55-1,3.55s-.6-3.21-1-3.55A11.34,11.34,0,0,0,50.62,19.07Z"/><path class="cls-4" d="M14.41,6.15a16.71,16.71,0,0,0,3.34-1.38c.58-.5,1.46-5.22,1.46-5.22S20.32,4.46,21,5A13.85,13.85,0,0,0,24,6.15a16.71,16.71,0,0,0-3.34,1.38c-.58.5-1.46,5.22-1.46,5.22S18.34,8,17.76,7.53A16.71,16.71,0,0,0,14.41,6.15Z"/><path class="cls-4" d="M-2.75,31.65a11.34,11.34,0,0,0,2.27-.94c.4-.34,1-3.55,1-3.55s.74,3.33,1.19,3.71a9.42,9.42,0,0,0,2.07.77,11.34,11.34,0,0,0-2.27.94c-.4.34-1,3.55-1,3.55s-.6-3.21-1-3.55A11.34,11.34,0,0,0-2.75,31.65Z"/><path class="cls-4" d="M28.7,51.31a5.07,5.07,0,0,0,1-.42,6.94,6.94,0,0,0,.44-1.58A7.33,7.33,0,0,0,30.68,51a4.19,4.19,0,0,0,.93.34,5.06,5.06,0,0,0-1,.42,6.94,6.94,0,0,0-.44,1.58,6.94,6.94,0,0,0-.44-1.58A5.06,5.06,0,0,0,28.7,51.31Z"/><path class="cls-4" d="M42.88,52.42a5.07,5.07,0,0,0,1-.42,6.94,6.94,0,0,0,.44-1.58,7.33,7.33,0,0,0,.53,1.66,4.19,4.19,0,0,0,.93.34,5.06,5.06,0,0,0-1,.42,6.94,6.94,0,0,0-.44,1.58,6.94,6.94,0,0,0-.44-1.58A5.06,5.06,0,0,0,42.88,52.42Z"/><path class="cls-4" d="M14.19.27a5.07,5.07,0,0,0,1-.42,6.94,6.94,0,0,0,.44-1.58,7.33,7.33,0,0,0,.53,1.66,4.19,4.19,0,0,0,.93.34,5.06,5.06,0,0,0-1,.42,6.94,6.94,0,0,0-.44,1.58A6.94,6.94,0,0,0,15.2.69,5.06,5.06,0,0,0,14.19.27Z"/><path class="cls-4" d="M35.84-1.73a5.07,5.07,0,0,0,1-.42,6.94,6.94,0,0,0,.44-1.58,7.33,7.33,0,0,0,.53,1.66,4.19,4.19,0,0,0,.93.34,5.06,5.06,0,0,0-1,.42A6.94,6.94,0,0,0,37.29.27a6.94,6.94,0,0,0-.44-1.58A5.06,5.06,0,0,0,35.84-1.73Z"/><path class="cls-4" d="M30.49,31.65a4.3,4.3,0,0,0,.86-.36A5.89,5.89,0,0,0,31.73,30a6.23,6.23,0,0,0,.45,1.41,3.57,3.57,0,0,0,.79.29,4.3,4.3,0,0,0-.86.35,5.9,5.9,0,0,0-.38,1.34A5.9,5.9,0,0,0,31.35,32,4.3,4.3,0,0,0,30.49,31.65Z"/><path class="cls-4" d="M-.72,39.68a4.3,4.3,0,0,0,.86-.36A5.89,5.89,0,0,0,.52,38,6.23,6.23,0,0,0,1,39.39a3.57,3.57,0,0,0,.79.29A4.3,4.3,0,0,0,.89,40a5.9,5.9,0,0,0-.38,1.34A5.9,5.9,0,0,0,.14,40,4.3,4.3,0,0,0-.72,39.68Z"/><path class="cls-4" d="M31.73,13.45a4.3,4.3,0,0,0,.86-.36A5.89,5.89,0,0,0,33,11.75a6.23,6.23,0,0,0,.45,1.41,3.57,3.57,0,0,0,.79.29,4.3,4.3,0,0,0-.86.35A5.9,5.9,0,0,0,33,15.15a5.9,5.9,0,0,0-.38-1.34A4.3,4.3,0,0,0,31.73,13.45Z"/><path class="cls-4" d="M32.15.27A2.83,2.83,0,0,0,32.72,0,3.86,3.86,0,0,0,33-.85a4.1,4.1,0,0,0,.3.93,2.34,2.34,0,0,0,.52.19,2.84,2.84,0,0,0-.57.23,3.88,3.88,0,0,0-.25.88A3.86,3.86,0,0,0,32.72.5,2.83,2.83,0,0,0,32.15.27Z"/><path class="cls-4" d="M7.75,47.45a2.83,2.83,0,0,0,.57-.23,3.86,3.86,0,0,0,.25-.88,4.1,4.1,0,0,0,.3.93,2.34,2.34,0,0,0,.52.19,2.84,2.84,0,0,0-.57.23,3.88,3.88,0,0,0-.25.88,3.86,3.86,0,0,0-.25-.88A2.83,2.83,0,0,0,7.75,47.45Z"/><path class="cls-4" d="M10.82,22.29a2.83,2.83,0,0,0,.57-.23,3.86,3.86,0,0,0,.25-.88,4.1,4.1,0,0,0,.3.93,2.34,2.34,0,0,0,.52.19,2.84,2.84,0,0,0-.57.23,3.88,3.88,0,0,0-.25.88,3.86,3.86,0,0,0-.25-.88A2.83,2.83,0,0,0,10.82,22.29Z"/><path class="cls-4" d="M22.36,47.45a2.83,2.83,0,0,0,.57-.23,3.86,3.86,0,0,0,.25-.88,4.1,4.1,0,0,0,.3.93,2.34,2.34,0,0,0,.52.19,2.84,2.84,0,0,0-.57.23,3.88,3.88,0,0,0-.25.88,3.86,3.86,0,0,0-.25-.88A2.83,2.83,0,0,0,22.36,47.45Z"/><path class="cls-4" d="M61.5,53.31a2.83,2.83,0,0,0,.57-.23,3.86,3.86,0,0,0,.25-.88,4.1,4.1,0,0,0,.3.93,2.34,2.34,0,0,0,.52.19,2.84,2.84,0,0,0-.57.23,3.88,3.88,0,0,0-.25.88,3.86,3.86,0,0,0-.25-.88A2.83,2.83,0,0,0,61.5,53.31Z"/><path class="cls-4" d="M50,30a2.83,2.83,0,0,0,.57-.23,3.86,3.86,0,0,0,.25-.88,4.1,4.1,0,0,0,.3.93,2.34,2.34,0,0,0,.52.19,2.84,2.84,0,0,0-.57.23,3.88,3.88,0,0,0-.25.88,3.86,3.86,0,0,0-.25-.88A2.83,2.83,0,0,0,50,30Z"/><path class="cls-4" d="M10.65-.4a2.83,2.83,0,0,0,.57-.23,3.86,3.86,0,0,0,.25-.88,4.1,4.1,0,0,0,.3.93,2.34,2.34,0,0,0,.52.19,2.84,2.84,0,0,0-.57.23,3.88,3.88,0,0,0-.25.88,3.86,3.86,0,0,0-.25-.88A2.83,2.83,0,0,0,10.65-.4Z"/><path class="cls-4" d="M-.72.14A2.83,2.83,0,0,0-.15-.09,3.86,3.86,0,0,0,.1-1,4.1,4.1,0,0,0,.39,0,2.34,2.34,0,0,0,.91.14,2.84,2.84,0,0,0,.34.38a3.88,3.88,0,0,0-.25.88A3.86,3.86,0,0,0-.15.38,2.83,2.83,0,0,0-.72.14Z"/><path class="cls-4" d="M6.65,8.76a2.83,2.83,0,0,0,.57-.23,3.86,3.86,0,0,0,.25-.88,4.1,4.1,0,0,0,.3.93,2.34,2.34,0,0,0,.52.19A2.84,2.84,0,0,0,7.72,9a3.88,3.88,0,0,0-.25.88A3.86,3.86,0,0,0,7.22,9,2.83,2.83,0,0,0,6.65,8.76Z"/><path class="cls-4" d="M9.75,13.45"/><path class="cls-4" d="M-.94,19.07a5.05,5.05,0,0,0,1-.42,6.92,6.92,0,0,0,.44-1.58A7.31,7.31,0,0,0,1,18.73a4.19,4.19,0,0,0,.92.34,5.05,5.05,0,0,0-1,.42,6.92,6.92,0,0,0-.44,1.58,6.93,6.93,0,0,0-.44-1.58A5.06,5.06,0,0,0-.94,19.07Z"/></pattern><clipPath id="clip-path"><path class="cls-1" d="M341.66,524.56H277.27L239.52,354,201.42,524.56H137L81.74,300h49.89l38.09,160.47L208.84,300h61.69L309,460.51,346.72,300h49.89Z"/></clipPath><pattern id="새_패턴_2" data-name="새 패턴 2" width="11.97" height="11.97" patternTransform="translate(-35.85 -12.68) scale(1.7)" patternUnits="userSpaceOnUse" viewBox="0 0 11.97 11.97"><rect class="cls-1" width="11.97" height="11.97"/><rect class="cls-6" x="2.99" y="2.99" width="5.99" height="5.99"/><polyline class="cls-6" points="11.97 2.99 8.97 2.99 8.97 0"/><polyline class="cls-6" points="2.99 0 2.99 2.99 0 2.99"/><polyline class="cls-6" points="8.97 11.97 8.97 8.97 11.97 8.97"/><polyline class="cls-6" points="0 8.97 2.99 8.97 2.99 11.97"/></pattern><pattern id="새_패턴_12" data-name="새 패턴 12" width="20" height="12" patternTransform="translate(-64.9 -16.42) scale(1.7)" patternUnits="userSpaceOnUse" viewBox="0 0 20 12"><rect class="cls-1" width="20" height="12"/><path class="cls-5" d="M20,18h0a2.31,2.31,0,0,1,2,1.13,3.79,3.79,0,0,0,2.86,1.95h2.53c1.19,0,2,.61,2.65,2.08.6-1.47,1.46-2.08,2.65-2.08h2.53A3.79,3.79,0,0,0,38,19.13,2.31,2.31,0,0,1,40,18h0a2.31,2.31,0,0,1-2-1.13,3.79,3.79,0,0,0-2.86-1.95H32.65c-1.19,0-2-.61-2.65-2.08-.6,1.47-1.46,2.08-2.65,2.08H24.82A3.79,3.79,0,0,0,22,16.87,2.31,2.31,0,0,1,20,18Z"/><path class="cls-5" d="M0,18H0a2.31,2.31,0,0,1,2,1.13,3.79,3.79,0,0,0,2.86,1.95H7.35c1.19,0,2,.61,2.65,2.08.6-1.47,1.46-2.08,2.65-2.08h2.53A3.79,3.79,0,0,0,18,19.13,2.31,2.31,0,0,1,20,18h0a2.31,2.31,0,0,1-2-1.13,3.79,3.79,0,0,0-2.86-1.95H12.65c-1.19,0-2-.61-2.65-2.08-.6,1.47-1.46,2.08-2.65,2.08H4.82A3.79,3.79,0,0,0,2,16.87,2.31,2.31,0,0,1,0,18Z"/><path class="cls-5" d="M-20,18h0a2.31,2.31,0,0,1,2,1.13,3.79,3.79,0,0,0,2.86,1.95h2.53c1.19,0,2,.61,2.65,2.08.6-1.47,1.46-2.08,2.65-2.08h2.53A3.79,3.79,0,0,0-2,19.13,2.31,2.31,0,0,1,0,18H0a2.31,2.31,0,0,1-2-1.13,3.79,3.79,0,0,0-2.86-1.95H-7.35c-1.19,0-2-.61-2.65-2.08-.6,1.47-1.46,2.08-2.65,2.08h-2.53A3.79,3.79,0,0,0-18,16.87,2.31,2.31,0,0,1-20,18Z"/><path class="cls-5" d="M20,6h0a2.31,2.31,0,0,1,2,1.13,3.79,3.79,0,0,0,2.86,1.95h2.53c1.19,0,2,.61,2.65,2.08.6-1.47,1.46-2.08,2.65-2.08h2.53A3.79,3.79,0,0,0,38,7.13,2.31,2.31,0,0,1,40,6h0a2.31,2.31,0,0,1-2-1.13,3.79,3.79,0,0,0-2.86-1.95H32.65c-1.19,0-2-.61-2.65-2.08-.6,1.47-1.46,2.08-2.65,2.08H24.82A3.79,3.79,0,0,0,22,4.87,2.31,2.31,0,0,1,20,6Z"/><path class="cls-5" d="M0,6H0A2.31,2.31,0,0,1,2,7.13,3.79,3.79,0,0,0,4.82,9.08H7.35c1.19,0,2,.61,2.65,2.08.6-1.47,1.46-2.08,2.65-2.08h2.53A3.79,3.79,0,0,0,18,7.13,2.31,2.31,0,0,1,20,6h0a2.31,2.31,0,0,1-2-1.13,3.79,3.79,0,0,0-2.86-1.95H12.65c-1.19,0-2-.61-2.65-2.08C9.4,2.32,8.54,2.92,7.35,2.92H4.82A3.79,3.79,0,0,0,2,4.87,2.31,2.31,0,0,1,0,6Z"/><path class="cls-5" d="M-20,6h0a2.31,2.31,0,0,1,2,1.13,3.79,3.79,0,0,0,2.86,1.95h2.53c1.19,0,2,.61,2.65,2.08.6-1.47,1.46-2.08,2.65-2.08h2.53A3.79,3.79,0,0,0-2,7.13,2.31,2.31,0,0,1,0,6H0A2.31,2.31,0,0,1-2,4.87,3.79,3.79,0,0,0-4.82,2.92H-7.35c-1.19,0-2-.61-2.65-2.08-.6,1.47-1.46,2.08-2.65,2.08h-2.53A3.79,3.79,0,0,0-18,4.87,2.31,2.31,0,0,1-20,6Z"/><path class="cls-5" d="M20-6h0a2.31,2.31,0,0,1,2,1.13,3.79,3.79,0,0,0,2.86,1.95h2.53c1.19,0,2,.61,2.65,2.08.6-1.47,1.46-2.08,2.65-2.08h2.53A3.79,3.79,0,0,0,38-4.87,2.31,2.31,0,0,1,40-6h0a2.31,2.31,0,0,1-2-1.13,3.79,3.79,0,0,0-2.86-1.95H32.65c-1.19,0-2-.61-2.65-2.08-.6,1.47-1.46,2.08-2.65,2.08H24.82A3.79,3.79,0,0,0,22-7.13,2.31,2.31,0,0,1,20-6Z"/><path class="cls-5" d="M0-6H0A2.31,2.31,0,0,1,2-4.87,3.79,3.79,0,0,0,4.82-2.92H7.35c1.19,0,2,.61,2.65,2.08.6-1.47,1.46-2.08,2.65-2.08h2.53A3.79,3.79,0,0,0,18-4.87,2.31,2.31,0,0,1,20-6h0a2.31,2.31,0,0,1-2-1.13,3.79,3.79,0,0,0-2.86-1.95H12.65c-1.19,0-2-.61-2.65-2.08C9.4-9.68,8.54-9.08,7.35-9.08H4.82A3.79,3.79,0,0,0,2-7.13,2.31,2.31,0,0,1,0-6Z"/><path class="cls-5" d="M-20-6h0a2.31,2.31,0,0,1,2,1.13,3.79,3.79,0,0,0,2.86,1.95h2.53c1.19,0,2,.61,2.65,2.08.6-1.47,1.46-2.08,2.65-2.08h2.53A3.79,3.79,0,0,0-2-4.87,2.31,2.31,0,0,1,0-6H0A2.31,2.31,0,0,1-2-7.13,3.79,3.79,0,0,0-4.82-9.08H-7.35c-1.19,0-2-.61-2.65-2.08-.6,1.47-1.46,2.08-2.65,2.08h-2.53A3.79,3.79,0,0,0-18-7.13,2.31,2.31,0,0,1-20-6Z"/></pattern></defs><title>Asset 1</title><g id="Layer_2" data-name="Layer 2"><g id="Layer_1-2" data-name="Layer 1"><path class="cls-7" d="M433.2,178.67h69.11v42.48H366.11V179.68c24.27-24.95,28.65-29,48.88-51.92C448,90,451.74,88,451.74,65.06V59c0-11.8-7.75-15.84-26.63-15.84-16.18,0-41.13,2.7-55.62,6.41L363.08,8.77C384,3.37,407.92,0,427.47,0c51.92,0,72.82,16.18,72.82,52.93v8.77c0,32-.34,38.09-31,75.18C453.09,156.42,443,168.22,433.2,178.67Z"/><path d="M680,164.85c0,33.71-17.53,59.67-74.5,59.67s-74.5-26-74.5-59.67V59.67C531,26,548.49,0,605.47,0S680,26,680,59.67Zm-100.46-6.74c0,16.86,4.72,23.93,26,23.93s26-7.08,26-23.93V66.41c0-16.86-4.72-23.93-26-23.93s-26,7.08-26,23.93Z"/><path class="cls-8" d="M750.76,221.15V59.67L712.67,80.23l-20.9-40.12L755.48,3.37h43.83V221.15Z"/><path class="cls-9" d="M894.37,221.15H844.48l71.81-175h-90V3.37H966.85V44.5Z"/><g class="cls-10"><line class="cls-11" x1="71.58" y1="267.81" x2="1.46" y2="556.78"/><line class="cls-11" x1="79.54" y1="267.81" x2="9.43" y2="556.78"/><line class="cls-11" x1="87.51" y1="267.81" x2="17.39" y2="556.78"/><line class="cls-11" x1="95.48" y1="267.81" x2="25.36" y2="556.78"/><line class="cls-11" x1="103.45" y1="267.81" x2="33.33" y2="556.78"/><line class="cls-11" x1="111.42" y1="267.81" x2="41.3" y2="556.78"/><line class="cls-11" x1="119.39" y1="267.81" x2="49.27" y2="556.78"/><line class="cls-11" x1="127.36" y1="267.81" x2="57.24" y2="556.78"/><line class="cls-11" x1="135.32" y1="267.81" x2="65.21" y2="556.78"/><line class="cls-11" x1="143.29" y1="267.81" x2="73.18" y2="556.78"/><line class="cls-11" x1="151.26" y1="267.81" x2="81.14" y2="556.78"/><line class="cls-11" x1="159.23" y1="267.81" x2="89.11" y2="556.78"/><line class="cls-11" x1="167.2" y1="267.81" x2="97.08" y2="556.78"/><line class="cls-11" x1="175.17" y1="267.81" x2="105.05" y2="556.78"/><line class="cls-11" x1="183.14" y1="267.81" x2="113.02" y2="556.78"/><line class="cls-11" x1="191.1" y1="267.81" x2="120.99" y2="556.78"/><line class="cls-11" x1="199.07" y1="267.81" x2="128.96" y2="556.78"/><line class="cls-11" x1="207.04" y1="267.81" x2="136.92" y2="556.78"/><line class="cls-11" x1="215.01" y1="267.81" x2="144.89" y2="556.78"/><line class="cls-11" x1="222.98" y1="267.81" x2="152.86" y2="556.78"/><line class="cls-11" x1="230.95" y1="267.81" x2="160.83" y2="556.78"/><line class="cls-11" x1="238.92" y1="267.81" x2="168.8" y2="556.78"/><line class="cls-11" x1="246.88" y1="267.81" x2="176.77" y2="556.78"/><line class="cls-11" x1="254.85" y1="267.81" x2="184.74" y2="556.78"/><line class="cls-11" x1="262.82" y1="267.81" x2="192.7" y2="556.78"/><line class="cls-11" x1="270.79" y1="267.81" x2="200.67" y2="556.78"/><line class="cls-11" x1="278.76" y1="267.81" x2="208.64" y2="556.78"/><line class="cls-11" x1="286.73" y1="267.81" x2="216.61" y2="556.78"/><line class="cls-11" x1="294.7" y1="267.81" x2="224.58" y2="556.78"/><line class="cls-11" x1="302.67" y1="267.81" x2="232.55" y2="556.78"/><line class="cls-11" x1="310.63" y1="267.81" x2="240.52" y2="556.78"/><line class="cls-11" x1="318.6" y1="267.81" x2="248.48" y2="556.78"/><line class="cls-11" x1="326.57" y1="267.81" x2="256.45" y2="556.78"/><line class="cls-11" x1="334.54" y1="267.81" x2="264.42" y2="556.78"/><line class="cls-11" x1="342.51" y1="267.81" x2="272.39" y2="556.78"/><line class="cls-11" x1="350.48" y1="267.81" x2="280.36" y2="556.78"/><line class="cls-11" x1="358.45" y1="267.81" x2="288.33" y2="556.78"/><line class="cls-11" x1="366.41" y1="267.81" x2="296.3" y2="556.78"/><line class="cls-11" x1="374.38" y1="267.81" x2="304.27" y2="556.78"/><line class="cls-11" x1="382.35" y1="267.81" x2="312.23" y2="556.78"/><line class="cls-11" x1="390.32" y1="267.81" x2="320.2" y2="556.78"/><line class="cls-11" x1="398.29" y1="267.81" x2="328.17" y2="556.78"/><line class="cls-11" x1="406.26" y1="267.81" x2="336.14" y2="556.78"/><line class="cls-11" x1="414.23" y1="267.81" x2="344.11" y2="556.78"/><line class="cls-11" x1="422.19" y1="267.81" x2="352.08" y2="556.78"/></g><path d="M580.68,459.16c0,34-23.6,68.77-87,68.77s-87-34.72-87-68.77V365.44c0-34,23.6-68.77,87-68.77s87,34.72,87,68.77Zm-50.57-89.34c0-17.53-11.13-28.32-36.41-28.32s-36.41,10.79-36.41,28.32v85c0,17.53,11.12,28.32,36.41,28.32s36.41-10.79,36.41-28.32Z"/><path class="cls-12" d="M850.72,524.56H786.33L748.58,354,710.48,524.56H646.09L590.81,300H640.7l38.09,160.47L717.9,300h61.69L818,460.51,855.78,300h49.89Z"/><path d="M922.53,524.56V300h142.6v44.84h-92v47.87h85v44.83h-85v87Z"/><path class="cls-13" d="M1090.41,524.56V300H1233v44.84h-92v47.87h85v44.83h-85v87Z"/></g></g></svg>