<svg xmlns="http://www.w3.org/2000/svg" viewBox="0 0 1209.17 213.35"><defs><style>.cls-1{fill:#3c3c3b;}</style></defs><title>contact-intro-b</title><g id="Layer_2" data-name="Layer 2"><g id="Layer_1-2" data-name="Layer 1"><path class="cls-1" d="M46.65,142.44c0,18,5.91,28.61,28.92,28.61,14.93,0,35.46-1.87,53.49-5l6.53,40.74a279.36,279.36,0,0,1-60,6.53C23.33,213.35,0,187.54,0,149.9V63.45C0,25.81,23.33,0,75.57,0a279.42,279.42,0,0,1,60,6.53l-6.53,40.74c-18-3.11-38.56-5-53.49-5-23,0-28.92,10.57-28.92,28.61Z"/><path class="cls-1" d="M317.84,149.9c0,31.41-21.77,63.45-80.24,63.45s-80.24-32-80.24-63.45V63.45C157.37,32,179.14,0,237.6,0s80.24,32,80.24,63.45ZM271.19,67.49c0-16.17-10.26-26.12-33.59-26.12S204,51.32,204,67.49v78.37C204,162,214.28,172,237.6,172s33.59-10,33.59-26.12Z"/><path class="cls-1" d="M398.08,74V210.24H353.61V3.11h57.23l68.11,142.75V3.11h44.47V210.24H465.88Z"/><path class="cls-1" d="M649.68,44.47V210.24H603V44.47H547.36V3.11h158V44.47Z"/><path class="cls-1" d="M885.42,210.24H836.9l-11.2-40.43H756.35l-11.2,40.43H696.64L759.77,3.11H822ZM766.93,130.93h47.58L790.88,44.16Z"/><path class="cls-1" d="M947.62,142.44c0,18,5.91,28.61,28.92,28.61,14.93,0,35.46-1.87,53.49-5l6.53,40.74a279.36,279.36,0,0,1-60,6.53c-52.25,0-75.57-25.81-75.57-63.45V63.45C901,25.81,924.29,0,976.54,0a279.42,279.42,0,0,1,60,6.53L1030,47.27c-18-3.11-38.56-5-53.49-5-23,0-28.92,10.57-28.92,28.61Z"/><path class="cls-1" d="M1153.5,44.47V210.24h-46.65V44.47h-55.67V3.11h158V44.47Z"/></g></g></svg>