<svg xmlns="http://www.w3.org/2000/svg" viewBox="0 0 966.47 279.52"><defs><style>.cls-1{fill:#f9f9f9;}</style></defs><title>films-intro-b</title><g id="Layer_2" data-name="Layer 2"><g id="Layer_1-2" data-name="Layer 1"><path class="cls-1" d="M0,275.44V4.07H172.36V58.27H61.12v57.86H163.8v54.19H61.12V275.44Z"/><path class="cls-1" d="M196.8,275.44V4.07h61.12V275.44Z"/><path class="cls-1" d="M296.62,275.44V4.07h61.12V221.25H465.31v54.19Z"/><path class="cls-1" d="M542.72,124.68l-4.07,150.76H479.56L491,4.07h61.12l65.19,172.76L682.48,4.07h61.12L755,275.44H695.92l-4.07-150.76L644.58,240.4H590Z"/><path class="cls-1" d="M867,279.52c-31.37,0-64.38-6.93-87.6-17.52l10.19-47.27c24.85,7.74,50.12,13,78.23,13,31.37,0,37.49-6.11,37.49-28.93,0-24.45-1.22-27.3-45.64-37.08-65.6-14.26-75.38-27.3-75.38-86C784.33,21.6,803.48,0,878,0a395,395,0,0,1,82.31,9L954.24,60.3c-31-5.3-50.93-7.74-75.38-7.74-27.3,0-33.41,4.89-33.41,24.85,0,26.08,1.22,26.49,44,36.67,73.34,17.52,77,31.78,77,85.16C966.47,253,948.95,279.52,867,279.52Z"/></g></g></svg>