<svg xmlns="http://www.w3.org/2000/svg" xmlns:xlink="http://www.w3.org/1999/xlink" viewBox="0 0 1454.36 1546.12"><defs><style>.cls-1,.cls-2{fill:none;}.cls-2{stroke:#f6ea2f;stroke-miterlimit:10;stroke-width:9px;}.cls-3{fill:url(#새_패턴_9);}</style><pattern id="새_패턴_9" data-name="새 패턴 9" width="200" height="515" patternUnits="userSpaceOnUse" viewBox="0 0 200 515"><rect class="cls-1" width="200" height="515"/><line class="cls-2" x1="274.35" y1="514.4" x2="165.65" y2="1030.6"/><line class="cls-2" x1="234.35" y1="514.4" x2="125.65" y2="1030.6"/><line class="cls-2" x1="194.35" y1="514.4" x2="85.65" y2="1030.6"/><line class="cls-2" x1="154.35" y1="514.4" x2="45.65" y2="1030.6"/><line class="cls-2" x1="114.35" y1="514.4" x2="5.65" y2="1030.6"/><line class="cls-2" x1="74.35" y1="514.4" x2="-34.35" y2="1030.6"/><line class="cls-2" x1="34.35" y1="514.4" x2="-74.35" y2="1030.6"/><line class="cls-2" x1="274.35" y1="-0.6" x2="165.65" y2="515.6"/><line class="cls-2" x1="234.35" y1="-0.6" x2="125.65" y2="515.6"/><line class="cls-2" x1="194.35" y1="-0.6" x2="85.65" y2="515.6"/><line class="cls-2" x1="154.35" y1="-0.6" x2="45.65" y2="515.6"/><line class="cls-2" x1="114.35" y1="-0.6" x2="5.65" y2="515.6"/><line class="cls-2" x1="74.35" y1="-0.6" x2="-34.35" y2="515.6"/><line class="cls-2" x1="34.35" y1="-0.6" x2="-74.35" y2="515.6"/><line class="cls-2" x1="274.35" y1="-515.6" x2="165.65" y2="0.6"/><line class="cls-2" x1="234.35" y1="-515.6" x2="125.65" y2="0.6"/><line class="cls-2" x1="194.35" y1="-515.6" x2="85.65" y2="0.6"/><line class="cls-2" x1="154.35" y1="-515.6" x2="45.65" y2="0.6"/><line class="cls-2" x1="114.35" y1="-515.6" x2="5.65" y2="0.6"/><line class="cls-2" x1="74.35" y1="-515.6" x2="-34.35" y2="0.6"/><line class="cls-2" x1="34.35" y1="-515.6" x2="-74.35" y2="0.6"/></pattern></defs><title>Asset 7</title><g id="Layer_2" data-name="Layer 2"><g id="레이어_1" data-name="레이어 1"><polygon class="cls-3" points="1045.4 782.62 1238.47 597.86 1454.36 0 634.55 0 0 1546.12 1080.95 1034.11 1192.61 724.89 1045.4 782.62"/></g></g></svg>