<svg xmlns="http://www.w3.org/2000/svg" viewBox="0 0 1316.8 1273.81"><defs><style>.cls-1{fill:#f6ea2f;}</style></defs><title>Asset 9</title><g id="Layer_2" data-name="Layer 2"><g id="레이어_1" data-name="레이어 1"><polygon class="cls-1" points="676.15 0 661.11 594.97 646.06 0 676.15 0"/><polygon class="cls-1" points="572.93 5.16 654.29 595.08 543.22 9.71 572.93 5.16"/><polygon class="cls-1" points="471.82 25.87 647.57 596.22 443.21 34.86 471.82 25.87"/><polygon class="cls-1" points="375.31 61.62 641.13 598.35 348.5 74.84 375.31 61.62"/><polygon class="cls-1" points="285.76 111.55 635.11 601.44 261.42 128.65 285.76 111.55"/><polygon class="cls-1" points="205.39 174.4 629.66 605.4 184.12 194.98 205.39 174.4"/><polygon class="cls-1" points="136.17 248.65 624.92 610.14 118.49 272.2 136.17 248.65"/><polygon class="cls-1" points="79.82 332.46 621.01 615.53 66.16 358.39 79.82 332.46"/><polygon class="cls-1" points="37.71 423.76 618.01 621.46 28.41 451.44 37.71 423.76"/><polygon class="cls-1" points="10.88 520.31 616.01 627.76 6.18 549.06 10.88 520.31"/><polygon class="cls-1" points="0 619.73 615.05 634.29 0 648.84 0 619.73"/><polygon class="cls-1" points="5.33 719.58 615.16 640.88 10.03 748.33 5.33 719.58"/><polygon class="cls-1" points="26.74 817.39 616.33 647.37 36.04 845.07 26.74 817.39"/><polygon class="cls-1" points="63.7 910.75 618.54 653.61 77.36 936.69 63.7 910.75"/><polygon class="cls-1" points="115.31 997.38 621.74 659.43 133 1020.92 115.31 997.38"/><polygon class="cls-1" points="180.29 1075.12 625.83 664.7 201.56 1095.7 180.29 1075.12"/><polygon class="cls-1" points="257.04 1142.08 630.73 669.29 281.38 1159.18 257.04 1142.08"/><polygon class="cls-1" points="343.68 1196.59 636.31 673.08 370.49 1209.81 343.68 1196.59"/><polygon class="cls-1" points="438.06 1237.33 642.43 675.97 466.68 1246.32 438.06 1237.33"/><polygon class="cls-1" points="537.87 1263.28 648.95 677.91 567.59 1267.83 537.87 1263.28"/><polygon class="cls-1" points="640.65 1273.81 655.69 678.84 670.74 1273.81 640.65 1273.81"/><polygon class="cls-1" points="743.86 1268.65 662.51 678.73 773.58 1264.1 743.86 1268.65"/><polygon class="cls-1" points="844.97 1247.94 669.22 677.59 873.59 1238.95 844.97 1247.94"/><polygon class="cls-1" points="941.49 1212.18 675.66 675.45 968.29 1198.97 941.49 1212.18"/><polygon class="cls-1" points="1031.03 1162.26 681.69 672.37 1055.38 1145.15 1031.03 1162.26"/><polygon class="cls-1" points="1111.41 1099.4 687.14 668.4 1132.68 1078.82 1111.41 1099.4"/><polygon class="cls-1" points="1180.62 1025.16 691.88 663.67 1198.31 1001.61 1180.62 1025.16"/><polygon class="cls-1" points="1236.98 941.35 695.79 658.27 1250.63 915.42 1236.98 941.35"/><polygon class="cls-1" points="1279.08 850.05 698.79 652.35 1288.38 822.37 1279.08 850.05"/><polygon class="cls-1" points="1305.91 753.5 700.78 646.05 1310.62 724.75 1305.91 753.5"/><polygon class="cls-1" points="1316.8 654.07 701.75 639.52 1316.8 624.97 1316.8 654.07"/><polygon class="cls-1" points="1311.46 554.23 701.63 632.93 1306.76 525.48 1311.46 554.23"/><polygon class="cls-1" points="1290.06 456.42 700.46 626.43 1280.76 428.74 1290.06 456.42"/><polygon class="cls-1" points="1253.1 363.05 698.25 620.2 1239.43 337.12 1253.1 363.05"/><polygon class="cls-1" points="1201.49 276.43 695.06 614.37 1183.8 252.88 1201.49 276.43"/><polygon class="cls-1" points="1136.51 198.69 690.96 609.1 1115.23 178.1 1136.51 198.69"/><polygon class="cls-1" points="1059.75 131.73 686.07 604.52 1035.41 114.62 1059.75 131.73"/><polygon class="cls-1" points="973.12 77.21 680.49 600.73 946.31 64 973.12 77.21"/><polygon class="cls-1" points="878.73 36.48 674.36 597.83 850.12 27.48 878.73 36.48"/><polygon class="cls-1" points="778.93 10.53 667.85 595.9 749.21 5.97 778.93 10.53"/></g></g></svg>