<?xml version="1.0" encoding="utf-8"?>
<!-- Generator: Adobe Illustrator 17.1.0, SVG Export Plug-In . SVG Version: 6.00 Build 0)  -->
<!DOCTYPE svg PUBLIC "-//W3C//DTD SVG 1.1//EN" "http://www.w3.org/Graphics/SVG/1.1/DTD/svg11.dtd">
<svg version="1.1" id="레이어_1" xmlns="http://www.w3.org/2000/svg" xmlns:xlink="http://www.w3.org/1999/xlink" x="0px"
	 y="0px" viewBox="0 0 54.1 57" enable-background="new 0 0 54.1 57" xml:space="preserve">
<g>
	
		<rect x="5.4" y="0" transform="matrix(1 -1.210029e-03 1.210029e-03 1 -2.973290e-03 1.461180e-02)" fill="#c9c9ca" width="13.3" height="4.9"/>
	<g>
		<path fill="#c9c9ca" d="M37.5,12.3c0-2.6,2.1-4.8,4.8-4.8c2.6,0,4.8,2.1,4.8,4.8c0,2.6-2.1,4.8-4.8,4.8
			C39.6,17.1,37.5,15,37.5,12.3z M42.2,24.2c6.6,0,11.9-5.4,11.9-11.9c0-6.6-5.4-11.9-11.9-11.9c-6.6,0-11.9,5.4-11.9,11.9
			C30.3,18.9,35.7,24.3,42.2,24.2z"/>
	</g>
	<path fill="#c9c9ca" d="M23.3,5.5l-22.4,0l0,6.4l1.7,0c-0.6,1.3-0.9,2.7-0.9,4.2c0,5.8,4.8,10.6,10.6,10.6
		c5.8,0,10.6-4.8,10.6-10.6c0-1.5-0.3-2.9-0.9-4.2l1.3,0L23.3,5.5z M12.3,19.5c-1.9,0-3.4-1.5-3.4-3.4c0-1.9,1.5-3.4,3.4-3.4
		c1.9,0,3.4,1.5,3.4,3.4C15.7,18,14.2,19.5,12.3,19.5z"/>
	<polygon fill="#c9c9ca" points="24.8,54.1 12.3,31 0,54.1 7.4,57 12.4,46.1 17.4,57 	"/>
	<g>
		<polygon fill="#c9c9ca" points="40,39.7 52.1,39.7 52.1,31.9 31.9,31.9 32,56.1 52.1,56 52.1,48.2 40,48.2 		"/>
	</g>
</g>
</svg>
