<?xml version="1.0" encoding="utf-8"?>
<!-- Generator: Adobe Illustrator 22.0.1, SVG Export Plug-In . SVG Version: 6.00 Build 0)  -->
<svg version="1.1" id="레이어_1" xmlns="http://www.w3.org/2000/svg" xmlns:xlink="http://www.w3.org/1999/xlink" x="0px"
	 y="0px" viewBox="0 0 162.1 108.6" style="enable-background:new 0 0 162.1 108.6;" xml:space="preserve">
<style type="text/css">
	.st0{fill:#727171;}
</style>
<title>logo-w</title>
<g id="Layer_2">
	<g id="레이어_1_1_">
		<path class="st0" d="M2.9,15.6c0,0-0.6-1.1-1.7-2.7S-1.5,5.3,3.2,1.6s10.2-0.4,11.8,2s3.3,5,3.3,5l15.8,23.8c0,0,2.4,3.6,3,4.6
			c0.8,1.1,2.3,1.5,3.6,1c1.1-0.5,1.8-1.6,1.7-2.8c0-1.4,0-3.6,0-3.6V8.3c0.1-3.4,2.1-6.4,5.2-7.8c3-1.1,7.4-0.6,9.7,2.7
			s4.5,6.9,4.5,6.9L76,31.5c0,0,2.6,4,3.6,5.4c0.8,1.2,2.3,1.6,3.6,1.1c1.1-0.3,1.9-1.4,1.8-2.6V15.3c0,0,0.1-4.7,0.1-7
			c0.1-2.8,1.5-5.5,3.9-7c2.7-1.7,8.3-2,11.1,2.2s3.7,5.7,3.7,5.7l15.6,23.5c0,0,1.4,2.2,1.8,2.8c0.4,0.6,1.1,0.8,1.8,0.6
			c0.6-0.2,1-0.7,1-1.3V8.4c0-2.4,1.8-6.3,4.7-7.6c2.9-1.2,7.7-1.5,10.6,2.7s5.1,7.7,5.1,7.7l11.3,16.9c0,0,3.7,5.6,4.9,7.4
			c0.9,1.4,1.5,3,1.6,4.6c0,1.8-0.5,3.5-1.5,4.9c-1.6,2.4-3.1,4.6-3.1,4.6l-15,22.5c0,0-1.7,2.6-2.9,4.3s-5.2,5.5-10.1,3.6
			c-3.4-1.3-5.5-4.6-5.4-8.3c0-1.7,0-5.9,0-5.9V47.4c0-1,0-2-1.1-2.4c-0.8-0.2-1.7,0.2-2.1,0.9c-0.2,0.4-0.8,1.2-0.8,1.2l-16.7,25.2
			c0,0-2.2,3.6-3,4.5s-2.4,3.3-5.2,3.8c-3.4,0.9-7-0.5-9-3.5c-2.4-3.6-5.7-8.6-5.7-8.6L66.1,46.4c0,0-1.2-1.8-1.9-2.8
			c-0.9-1.3-2.7-1.7-4-0.8c-0.9,0.6-1.4,1.6-1.3,2.6c0,0.7,0,3.7,0,3.7v23.5c0.1,3-1.6,5.9-4.3,7.3c-2.9,1.4-7.7,2.3-11.6-3.7
			c-1.4-2.5-3-4.9-4.8-7.2L2.9,15.6z"/>
		<path class="st0" d="M61.8,96.7h-3.1c0-0.4,0-1.1,0-1.4c-0.1-1.2,0.3-2.4,1.1-3.2c1-1,2.7-1.3,4.9-1.3s4.1,0.3,5.1,1.3
			c0.8,0.9,1.2,2.1,1.2,3.3c0,1.5-0.5,2.9-1.5,4c-0.8,0.8-2.1,1.2-4,1.7s-2.8,1-3.4,1.7c-0.4,0.9-0.6,1.8-0.5,2.8h9.7v2.9H58.4V106
			c0-2.3,0.1-4,1.2-5.3c1.3-1.2,2.8-2,4.5-2.3c2.2-0.7,2.5-0.8,3-1.2c0.4-0.6,0.7-1.2,0.7-1.9c0.1-0.6-0.1-1.2-0.5-1.7
			c-0.8-0.5-1.7-0.7-2.6-0.6c-0.9-0.1-1.7,0.1-2.5,0.6c-0.4,0.6-0.6,1.3-0.5,1.9C61.8,95.9,61.8,96.3,61.8,96.7z"/>
		<path class="st0" d="M85.4,92.4c1.6,1.6,1.8,4.7,1.8,7.2s-0.1,5.6-1.8,7.2c-1.3,1.3-3.2,1.9-5,1.8c-1.8,0.2-3.7-0.5-5-1.8
			c-1.6-1.6-1.8-4.7-1.8-7.2s0.1-5.6,1.8-7.2c1.3-1.3,3.2-1.9,5-1.8C82.3,90.5,84.1,91.1,85.4,92.4z M77.9,105
			c0.7,0.7,1.6,1,2.6,0.9c1,0.1,1.9-0.2,2.6-0.9c0.9-0.9,0.9-3.6,0.9-5.3s0-4.5-0.9-5.3c-1.5-1.2-3.7-1.2-5.2,0
			C77,95.2,77,97.9,77,99.6S77,104.1,77.9,105z"/>
		<path class="st0" d="M94,93.6h-3.7v-2.7h6.9v17.6H94V93.6z"/>
		<path class="st0" d="M102,93.6v-2.8h12.7v2.8l-6.9,14.8h-3.5l6.9-14.8L102,93.6z"/>
	</g>
</g>
</svg>
