<svg xmlns="http://www.w3.org/2000/svg" viewBox="0 0 162.13 113.94"><defs><style>.cls-1{fill:#727171;}.cls-2{font-size:24px;fill:#727171;font-family:GonganB-KSCpc-EUC-H, Gongan;font-weight:700;}</style></defs><title>Asset 1</title><g id="Layer_2" data-name="Layer 2"><g id="레이어_1" data-name="레이어 1"><path class="cls-1" d="M2.91,15.6s-.65-1.11-1.74-2.72S-1.54,5.33,3.24,1.64s10.21-.35,11.77,2,3.26,5,3.26,5L34.06,32.44S36.45,36,37.11,37a3,3,0,0,0,3.57,1,2.7,2.7,0,0,0,1.68-2.84c0-1.44,0-3.59,0-3.59V8.35A8.8,8.8,0,0,1,47.6.54c3-1.06,7.43-.59,9.68,2.69s4.55,6.85,4.55,6.85L76,31.49s2.57,4,3.63,5.42A3,3,0,0,0,83.24,38,2.41,2.41,0,0,0,85,35.41V15.27s.1-4.66.1-7a8.52,8.52,0,0,1,3.91-7c2.72-1.7,8.33-2,11.08,2.16s3.71,5.71,3.71,5.71l15.63,23.51s1.4,2.16,1.84,2.8a1.57,1.57,0,0,0,1.79.62,1.41,1.41,0,0,0,1-1.35V8.44c0-2.42,1.82-6.3,4.73-7.55s7.73-1.46,10.55,2.74,5.05,7.74,5.05,7.74l11.27,16.94s3.69,5.64,4.89,7.42a8.9,8.9,0,0,1,1.57,4.61,8.29,8.29,0,0,1-1.52,4.94c-1.55,2.38-3.05,4.56-3.05,4.56l-15,22.52s-1.68,2.6-2.88,4.35-5.24,5.47-10.14,3.55A8.55,8.55,0,0,1,124.11,72c0-1.74,0-5.94,0-5.94V47.37c0-1,0-2-1.05-2.41a1.85,1.85,0,0,0-2.08.89c-.23.37-.78,1.18-.78,1.18L103.51,72.22s-2.24,3.6-3,4.52S98.13,80,95.32,80.49a8.38,8.38,0,0,1-9-3.47c-2.43-3.62-5.71-8.55-5.71-8.55L66.06,46.38s-1.2-1.8-1.92-2.85a2.87,2.87,0,0,0-5.26,1.77c0,.7,0,3.69,0,3.69V72.47a8,8,0,0,1-4.29,7.27C51.73,81.13,46.84,82.07,43,76a76,76,0,0,0-4.76-7.18Z"/><text class="cls-2" transform="translate(57.24 108.39)">2017</text></g></g></svg>