<svg xmlns="http://www.w3.org/2000/svg" viewBox="0 0 611.95 220.75"><defs><style>.cls-1{fill:#221e1f;}</style></defs><title>Asset 3</title><g id="Layer_2" data-name="Layer 2"><g id="Layer_1-2" data-name="Layer 1"><path class="cls-1" d="M569.58,94.25c-15.31-9.05-36.4-21.9-36.4-30,0-9.69,1.11-14.5,10.92-14.5,2.39,0,10,1.78,10,17.31l0,12.08h57.8C611.95,25.05,590.44,0,545.22,0,501.56,0,476,19.69,474.88,58.85,469.91,18.12,448.53,0,409.3,0c-44.65,0-70.38,22.47-70.38,63.43,0,40,23,53.31,41.62,67.22,15.83,11.81,39.06,22.79,39.06,30.73,0,11.09-6.9,12.63-12.13,12.63-10.24,0-11.34-5.52-11.34-18.74l.2-10.06H338.92v8.87q0,3.63.18,7L304.79,6.51H240.28L198.85,123.3V6.51H121.72L100,65.89,79.11,6.51H0V220.75H58.2V127.24l18.54,93.51H122.9l20.71-95.28v95.28h105l3.55-20.12h34.33l5.72,20.12h60.17l-6.66-30c10.58,22.55,33.09,30,64,30,43.16,0,63.27-15.34,66-51.88,4.88,39.81,30.6,51.88,69.89,51.88,46.64,0,66.36-17.91,66.36-61.14C611.95,111.26,588.14,105.23,569.58,94.25ZM260,132.86l11.1-55.48,10.21,55.48ZM543.39,174c-10.24,0-11.34-5.52-11.34-18.74l.2-10.06h-57c-4.33-35.31-25-41.17-41.55-50.95-15.31-9.05-36.4-21.9-36.4-30,0-9.69,1.11-14.5,10.92-14.5,2.39,0,10,1.78,10,17.31l0,12.08H476q0-1.44,0-2.85c4.89,29.29,24.3,42.34,40.46,54.39,15.83,11.81,39.06,22.79,39.06,30.73C555.52,172.46,548.62,174,543.39,174Z"/></g></g></svg>