<svg xmlns="http://www.w3.org/2000/svg" viewBox="0 0 88.62 88.62"><title>ml</title><g id="Layer_2" data-name="Layer 2"><g id="ML_logo_로고_1_Image" data-name="ML logo 로고 (1) Image"><path d="M30,59.79H16.08c-1.43,0-1.57-.16-1.55-1.59a4.85,4.85,0,0,1,0-1.54c.16-.43.67-1.07,1-1.05,1.17.08,1.11-.65,1.12-1.38,0-3.6,0-7.19,0-10.79s0-7.27,0-10.91c0-.75-.18-1.14-1-1.09s-1.19-.37-1.2-1.24c0-3,0-3,3-3,1.56,0,3.12.05,4.68,0a2.06,2.06,0,0,1,2,1.08c1.72,2.81,3.41,5.64,5.14,8.45a1.38,1.38,0,0,0,.87.62c.22,0,.54-.38.71-.65q2.65-4.18,5.26-8.39a2.06,2.06,0,0,1,2-1.06c2,0,4,0,6,0a1.14,1.14,0,0,1,1.32,1.3,11.24,11.24,0,0,0,0,1.32c.12,1-.16,1.6-1.32,1.63-.27,0-.75.58-.75.89,0,7.31,0,14.63,0,21.94,0,.77.05,1.48,1.17,1.34.23,0,.71.29.72.48a16.27,16.27,0,0,1,0,3.17c0,.2-.87.44-1.33.44-4.64,0-9.27,0-13.91,0Z"/><path d="M46.33,43.59q0-7.32,0-14.64c0-1.32.35-1.72,1.69-1.72,5.28,0,10.56,0,15.84-.06,1.08,0,1.26.56,1.26,1.44q0,9.6,0,19.2c0,1.78,0,1.78,1.8,1.75,1.12,0,2.24-.06,3.36,0,.84.05,1.35-.21,1.4-1.06s.5-1.1,1.25-1.11c4-.09,3.45-.14,3.46,3.12,0,2.6,0,5.2,0,7.8,0,1.07-.35,1.51-1.45,1.51-9,0-18,0-27-.07-1.36,0-1.56-.27-1.55-1.64,0-4.84,0-9.68,0-14.52Z"/><path d="M44.31,8.5A35.8,35.8,0,1,1,8.5,44.31,35.84,35.84,0,0,1,44.31,8.5m0-8.5A44.31,44.31,0,1,0,88.62,44.31,44.31,44.31,0,0,0,44.31,0Z"/></g></g></svg>