<svg xmlns="http://www.w3.org/2000/svg" viewBox="0 0 1135.77 516.26"><defs><style>.cls-1{fill:#3c3c3b;}</style></defs><title>poster-intro-b</title><g id="Layer_2" data-name="Layer 2"><g id="Layer_1-2" data-name="Layer 1"><path class="cls-1" d="M115.22,95.17l-3.11,115.07H67L75.73,3.11h46.65L172.14,135,221.9,3.11h46.65l8.71,207.13h-45.1L229.05,95.17,193,183.49H151.3Z"/><path class="cls-1" d="M457.95,149.9c0,31.41-21.77,63.44-80.24,63.44s-80.24-32-80.24-63.44V63.45C297.47,32,319.24,0,377.71,0s80.24,32,80.24,63.45ZM411.3,67.49c0-16.17-10.26-26.12-33.59-26.12s-33.59,10-33.59,26.12v78.37c0,16.17,10.26,26.12,33.59,26.12s33.59-10,33.59-26.12Z"/><path class="cls-1" d="M564,44.47V210.24H517.35V44.47H461.68V3.11h158V44.47Z"/><path class="cls-1" d="M632.73,210.24V3.11h46.65V210.24Z"/><path class="cls-1" d="M864.73,149.9c0,31.41-21.77,63.44-80.24,63.44s-80.24-32-80.24-63.44V63.45C704.25,32,726,0,784.49,0s80.24,32,80.24,63.45ZM818.08,67.49c0-16.17-10.26-26.12-33.59-26.12s-33.59,10-33.59,26.12v78.37c0,16.17,10.26,26.12,33.59,26.12s33.59-10,33.59-26.12Z"/><path class="cls-1" d="M932.53,74V210.24H888.05V3.11h57.23l68.11,142.75V3.11h44.47V210.24h-57.54Z"/><path class="cls-1" d="M82.11,450.32H46.65v62.82H0V306H84.59c50.38,0,69,19.9,69,58.78v27.06C153.64,430.73,132.49,450.32,82.11,450.32ZM107,369.15c0-14.93-5.29-21.77-24.88-21.77H46.65v62.51H82.11c20.53,0,24.88-7.77,24.88-22.7Z"/><path class="cls-1" d="M325,452.81c0,31.41-21.77,63.45-80.24,63.45s-80.24-32-80.24-63.45V366.35c0-31.41,21.77-63.45,80.24-63.45s80.24,32,80.24,63.45ZM278.35,370.4c0-16.17-10.26-26.12-33.59-26.12s-33.59,10-33.59,26.13v78.37c0,16.17,10.26,26.12,33.59,26.12s33.59-10,33.59-26.12Z"/><path class="cls-1" d="M409,516.26c-23.95,0-49.14-5.29-66.87-13.37l7.78-36.08c19,5.91,38.25,10,59.71,10,23.95,0,28.61-4.67,28.61-22.08,0-18.66-.93-20.84-34.83-28.3-50.07-10.88-57.54-20.84-57.54-65.62,0-41.36,14.62-57.85,71.53-57.85a301.5,301.5,0,0,1,62.82,6.84l-4.67,39.19c-23.64-4-38.87-5.91-57.54-5.91-20.84,0-25.5,3.73-25.5,19,0,19.9.93,20.22,33.59,28,56,13.37,58.78,24.26,58.78,65C484.85,496,471.48,516.26,409,516.26Z"/><path class="cls-1" d="M590.9,347.38V513.15H544.25V347.38H488.58V306h158v41.36Z"/><path class="cls-1" d="M658.07,513.15V306H788.38v41.36H704.72v37.94h77.13v41.36H704.72v45.1h83.66v41.36Z"/><path class="cls-1" d="M885.72,448.77H858.36v64.38H811.7V306h86.15c50.38,0,69,19.9,69,58.78v25.5c0,25.81-9.33,43.23-30.17,51.94l50.07,70.91H931.44Zm34.52-79.62c0-15.55-5.91-21.77-24.88-21.77h-37v61h37c19.9,0,24.88-7.15,24.88-22.7Z"/><path class="cls-1" d="M1059.88,516.26c-23.95,0-49.14-5.29-66.87-13.37l7.78-36.08c19,5.91,38.25,10,59.71,10,23.95,0,28.61-4.67,28.61-22.08,0-18.66-.93-20.84-34.83-28.3-50.07-10.88-57.54-20.84-57.54-65.62,0-41.36,14.62-57.85,71.53-57.85a301.5,301.5,0,0,1,62.82,6.84l-4.67,39.19c-23.64-4-38.87-5.91-57.54-5.91-20.84,0-25.5,3.73-25.5,19,0,19.9.93,20.22,33.59,28,56,13.37,58.78,24.26,58.78,65C1135.77,496,1122.39,516.26,1059.88,516.26Z"/></g></g></svg>