<svg xmlns="http://www.w3.org/2000/svg" viewBox="0 0 267.35 55.94"><defs><style>.cls-1{fill:#221e1f;}</style></defs><title>Asset 2</title><g id="Layer_2" data-name="Layer 2"><g id="Layer_1-2" data-name="Layer 1"><path class="cls-1" d="M204.85,13.73a8.87,8.87,0,0,0,6.37-2.59,7.06,7.06,0,0,0,2.49-4.78A4.7,4.7,0,0,0,212.42,3a4.38,4.38,0,0,0-3.48-1.64,10.08,10.08,0,0,0-6.52,2.39q-2.94,2.39-3,5Q199.18,13.73,204.85,13.73Z"/><path class="cls-1" d="M265.46,37.64a41.8,41.8,0,0,1-4.88,4.68q-3.58,3-5,3-1.89,0-2.39-.8a5.38,5.38,0,0,1-.4-2.89,52.75,52.75,0,0,1,1.24-6.12,46.2,46.2,0,0,0,1.34-8.11q.2-4.08-1.59-6.27-2.09-2.69-6.87-2.29a26.3,26.3,0,0,0-11.84,4.48,39.23,39.23,0,0,0-5.08,4,15.17,15.17,0,0,0,.3-3q0-6.47-4.58-6.47-1.49,0-5.57,3.88-5.77,5.48-6.27,5.87h0a2.19,2.19,0,0,0-.84,1.6q0,1.58,1.83,1.47a2.81,2.81,0,0,0,1.28-.4h0l.13-.1.2-.15c1.65-1.22,2.68-1.84,3-1.84q1,0,.9,2-1.09,5.42-2.17,9.73-1.22,1.17-2.71,2.41-3.58,3-5,3-3.19,0-3.08-4.28,1.49-9.35,2.79-15.43a8.37,8.37,0,0,0-1.14-5.82,4.87,4.87,0,0,0-4.83-1.94q-2.09.2-6.37,4l-6.29,5.7-.1.08a2.21,2.21,0,0,0-.86,1.63q0,1.58,1.83,1.47a2.8,2.8,0,0,0,1.33-.43h0l.13-.1.12-.09c1.7-1.26,2.75-1.91,3.13-1.91q1.79,0,1.79,2.59,0,.5-1.94,7.36c-.15.52-.29,1-.42,1.52A33.71,33.71,0,0,1,193.9,42q-3.58,2.79-5.77,2.79-3.68,0-3.48-4.68A64.1,64.1,0,0,1,186.24,28q.5-1.79,1.79-5.57-.9-1.69-4.28-3a21.36,21.36,0,0,0-7.66-1.29,24.21,24.21,0,0,0-3.78.3,26.79,26.79,0,0,0-17.72,10.45,27.44,27.44,0,0,0-5.39,11.25c-.75.71-1.57,1.44-2.47,2.19q-3.58,3-5,3-1.89,0-2.39-.8a5.38,5.38,0,0,1-.4-2.89,52.75,52.75,0,0,1,1.24-6.12,46.2,46.2,0,0,0,1.34-8.11q.2-4.08-1.59-6.27-2.09-2.69-6.87-2.29a14.76,14.76,0,0,0-7.66,3A26.5,26.5,0,0,0,121,26.1l-1.49,1.29a9.69,9.69,0,0,0-1.59-6.27q-2.09-2.69-7-2.29a17.7,17.7,0,0,0-10.25,4.48,18.33,18.33,0,0,0-3.48,4,8.72,8.72,0,0,0,.2-1.89A9.42,9.42,0,0,0,95.77,20a4.4,4.4,0,0,0-4.18-2.14q-1.49.1-5.67,4-4.63,4.31-5.87,5.42l-.1.08-.18.17-.12.1h0A2.05,2.05,0,0,0,79,29q0,1.63,1.83,1.59A2.93,2.93,0,0,0,82,30.27h0l.06,0a3.05,3.05,0,0,0,.79-.57l0,0a7.53,7.53,0,0,1,2.51-1.45q1.09,0,.9,1.79a54.89,54.89,0,0,1-.95,7.22l-.06.36a41.51,41.51,0,0,1-9.54,5.36A39.44,39.44,0,0,1,60.14,46.6a6.19,6.19,0,0,1-5.37-2.49,30.28,30.28,0,0,0,16-7.46q6-5.37,5.57-10.45-.6-8-10.35-8a24.75,24.75,0,0,0-18.31,8q-7.07,7.27-7.17,15.33A16.85,16.85,0,0,0,41,45.86l.07.26h0l.06.21a8.16,8.16,0,0,1-7.34-1.11,14.42,14.42,0,0,1-2.1-1.77l-.17-.17,0,0c-5.3-5.42-2.6-10.4-2.6-10.4h0a22.54,22.54,0,0,0,7.86-6.34A26.62,26.62,0,0,0,42.44,14a16.39,16.39,0,0,0,.2-1.76q.61-9.84-8.1-10.57-7.7-.57-16.12,7.48a7.75,7.75,0,0,0,.29-1.66,9,9,0,0,0-1.16-5.24A4.2,4.2,0,0,0,13.68,0q-1.4,0-5.43,3.39-5.08,4.17-6,4.89l-.12.09,0,0,0,0h0a2.06,2.06,0,0,0-.84,1.47q0,1.5,1.68,1.47A2.67,2.67,0,0,0,4.12,11l0,0Q6.66,9.44,7.31,9.48q1.58.1,1.19,1.93c-.23,2.71-1.41,5.21-4,15S.42,42.75.08,46.13q-.84,9,6.76,9.71,8.34.8,12.58-8.91a6.41,6.41,0,0,1-2.93.56A3,3,0,0,1,14.35,46q-1.62-2.45-1.23-7.11c0-.34.06-.62.08-.86a2.32,2.32,0,0,0,.05-.41c0-.28.08-.5.12-.69.16-.56.48-1.14,1.11-1.2a1,1,0,0,1,1.06.43,2.68,2.68,0,0,1,.34.56c.34,1,.74,2.19.74,2.19h0a33.3,33.3,0,0,0,6.67,11,21.08,21.08,0,0,0,9.14,5.77,8.76,8.76,0,0,0,2.19.27h.09a5,5,0,0,0,.56,0l.13,0c4.94-.38,8.57-4.24,8.57-4.24h0l.1.11L44,51.65l.22.23.25.27.24.22.16.16-.11-.11.29.27q3.46,3,9.44,3a42.47,42.47,0,0,0,21.4-6.07,41.07,41.07,0,0,0,8.62-6.2c0,.36-.05.71-.06,1q-.2,5.28,2.19,7.86,2.89,3.08,9.75,2.89-.9-2.19-.7-7.76a28.93,28.93,0,0,1,3.18-11.84q2.89-5.67,5.37-5.67,2.89,0,2.69,3.68a24.94,24.94,0,0,1-1,5.67,26.47,26.47,0,0,0-1,6.37q-.2,5.08,2.29,7.27Q110,55.36,117,55.16a15.23,15.23,0,0,1-.8-6.57,27.58,27.58,0,0,1,4.08-12.54q3.58-6.17,6.17-6.17,2.39,0,2.29,3.78a36.24,36.24,0,0,1-1.24,7,36.27,36.27,0,0,0-1.24,7.66q-.2,7.17,6.27,7.17,6.67,0,13.34-5.77a37,37,0,0,0,3.06-3A12.63,12.63,0,0,0,150,50.48q2.19,4.58,7.86,4.68a20.55,20.55,0,0,0,8.66-2,23.55,23.55,0,0,0,6.87-4.38q-.3,6.67,6.17,6.67,6.67,0,13.34-5.77,1.18-1,2.23-2.13c0,.26,0,.51,0,.73a7.48,7.48,0,0,0,1.54,5.18,5.78,5.78,0,0,0,4.73,2q6.67,0,13.34-5.77,1.23-1.08,2.33-2.22.6,8.67,12.3,8.39-.9-2.09-.7-8.46a21.26,21.26,0,0,1,4.51-12.24q3.91-5.27,7.22-5.27,2.2,0,2,3.68a41.76,41.76,0,0,1-1.14,6.92,41.51,41.51,0,0,0-1.14,7.81q-.2,7.17,6.27,7.17,6.67,0,13.34-5.77a33.58,33.58,0,0,0,7.66-9.55ZM52.9,44.17h0l.69,0Zm.28-5.23A14,14,0,0,1,56.36,31q3.08-4.13,6.07-4.13,2.29,0,2.19,2.69-.1,2-3,5.18a22.46,22.46,0,0,1-8.46,5.47ZM16.82,22.84q.5-3.51,3.83-7.68,3.64-4.62,6.89-4.42,3,.19,2.66,3.71-.29,3.15-3.34,7.25-3.65,4.81-7.38,4.76a2.4,2.4,0,0,1-2.27-1A4.08,4.08,0,0,1,16.82,22.84Zm158.37,8q-.2,3.58-3.58,8.36-3.58,5.08-7.07,5.08-3.09,0-3-4.18.1-3.28,3.38-7.86,3.68-5.17,7.66-5.37A2.22,2.22,0,0,1,175,28.09,7.83,7.83,0,0,1,175.19,30.88Z"/><path class="cls-1" d="M29.54,40.65c-.09-.17-.18-.33-.26-.5h0S29.37,40.34,29.54,40.65Z"/></g></g></svg>