<svg xmlns="http://www.w3.org/2000/svg" viewBox="0 0 873.59 516.26"><defs><style>.cls-1{fill:#3c3c3b;}</style></defs><title>usb-intro-b</title><g id="Layer_2" data-name="Layer 2"><g id="Layer_1-2" data-name="Layer 1"><path class="cls-1" d="M348.32,3.11V149.9c0,31.41-19.59,63.44-78.06,63.44s-78.06-32-78.06-63.44V3.11h46.65V145.55c0,16.79,8.09,26.44,31.41,26.44s31.41-9.64,31.41-26.44V3.11Z"/><path class="cls-1" d="M435.4,213.35c-23.95,0-49.14-5.29-66.87-13.37l7.78-36.08c19,5.91,38.25,10,59.71,10,23.95,0,28.61-4.67,28.61-22.08,0-18.66-.93-20.84-34.83-28.3-50.07-10.88-57.54-20.84-57.54-65.62C372.26,16.48,386.88,0,443.79,0a301.53,301.53,0,0,1,62.82,6.84L502,46c-23.64-4-38.87-5.91-57.54-5.91-20.84,0-25.5,3.73-25.5,19,0,19.9.93,20.22,33.59,28,56,13.37,58.78,24.26,58.78,65C511.28,193.13,497.91,213.35,435.4,213.35Z"/><path class="cls-1" d="M619.82,210.24H531.49V3.11h81.79c43.23,0,59.09,17.42,59.09,45.41V69.67c0,14.93-6.53,25.5-23,32.66a39.14,39.14,0,0,1,30.48,38.25v20.22C679.84,190,661.18,210.24,619.82,210.24Zm5.91-154.88c0-9-5.6-14.62-18.66-14.62H578.14V88h28.92c12.44,0,18.66-6.22,18.66-14.62Zm7.46,86.46c0-11.51-7.15-17.42-19.59-17.42H578.14v48.21h28.92c14.62,0,26.13-3.11,26.13-18Z"/><path class="cls-1" d="M160.48,452.81c0,31.41-21.77,63.45-80.24,63.45S0,484.22,0,452.81V366.35c0-31.41,21.77-63.45,80.24-63.45s80.24,32,80.24,63.45ZM113.83,370.4c0-16.17-10.26-26.12-33.59-26.12s-33.59,10-33.59,26.13v78.37c0,16.17,10.26,26.12,33.59,26.12s33.59-10,33.59-26.12Z"/><path class="cls-1" d="M257.82,448.77H230.45v64.38H183.8V306h86.15c50.38,0,69,19.9,69,58.78v25.5c0,25.81-9.33,43.23-30.17,51.94l50.07,70.91H303.54Zm34.52-79.62c0-15.55-5.91-21.77-24.88-21.77h-37v61h37c19.9,0,24.88-7.15,24.88-22.7Z"/><path class="cls-1" d="M451.57,513.15H371.33V306h80.24c51,0,70,25.81,70,53.8v99.52C521.55,487,502.57,513.15,451.57,513.15ZM474.9,372.57c0-16.17-5.6-25.19-28.92-25.19H418v124.4h28c23.33,0,28.92-9,28.92-25.19Z"/><path class="cls-1" d="M544.87,513.15V306H675.18v41.36H591.52v37.94h77.13v41.36H591.52v45.1h83.66v41.36Z"/><path class="cls-1" d="M772.52,448.77H745.15v64.38H698.5V306h86.15c50.38,0,69,19.9,69,58.78v25.5c0,25.81-9.33,43.23-30.17,51.94l50.07,70.91H818.24ZM807,369.15c0-15.55-5.91-21.77-24.88-21.77h-37v61h37c19.9,0,24.88-7.15,24.88-22.7Z"/></g></g></svg>