<svg xmlns="http://www.w3.org/2000/svg" viewBox="0 0 678.16 310.98"><defs><style>.cls-1{fill:#3c3c3c;}</style></defs><title>wow-intro-b</title><g id="Layer_2" data-name="Layer 2"><g id="Layer_1-2" data-name="Layer 1"><path class="cls-1" d="M207,105.25h40.71v25H167.51V105.84c14.3-14.69,16.88-17.08,28.79-30.58C215.76,53,217.95,51.83,217.95,38.33V34.75c0-7-4.57-9.33-15.69-9.33-9.53,0-24.23,1.59-32.77,3.77l-3.77-24A161.09,161.09,0,0,1,203.65,0c30.58,0,42.89,9.53,42.89,31.18v5.16c0,18.86-.2,22.44-18.27,44.28C218.74,92.14,212.78,99.09,207,105.25Z"/><path class="cls-1" d="M352.39,97.1c0,19.86-10.33,35.15-43.89,35.15S264.61,117,264.61,97.1v-62C264.61,15.29,274.94,0,308.5,0s43.89,15.29,43.89,35.15Zm-59.18-4c0,9.93,2.78,14.1,15.29,14.1s15.29-4.17,15.29-14.1v-54c0-9.93-2.78-14.1-15.29-14.1s-15.29,4.17-15.29,14.1Z"/><path class="cls-1" d="M394.09,130.27V35.15L371.65,47.26,359.34,23.63,396.87,2h25.82V130.27Z"/><path class="cls-1" d="M478.68,130.27H449.29l42.3-103.06h-53V2h82.81V26.21Z"/><path class="cls-1" d="M153.1,309H115.18L92.94,208.51,70.5,309H32.57L0,176.74H29.39l22.44,94.52,23-94.52H111.2l22.64,94.52,22.24-94.52h29.39Z"/><path class="cls-1" d="M293.9,270.47c0,20.06-13.9,40.51-51.23,40.51s-51.23-20.45-51.23-40.51v-55.2c0-20.06,13.9-40.51,51.23-40.51s51.23,20.45,51.23,40.51Zm-29.79-52.62c0-10.33-6.55-16.68-21.45-16.68s-21.45,6.35-21.45,16.68v50c0,10.33,6.55,16.68,21.45,16.68s21.45-6.35,21.45-16.68Z"/><path class="cls-1" d="M453,309H415L392.8,208.51,370.36,309H332.43L299.86,176.74h29.39l22.44,94.52,23-94.52h36.34l22.64,94.52,22.24-94.52h29.39Z"/><path class="cls-1" d="M495.27,309V176.74h84v26.41H525.05v28.2h50v26.41h-50V309Z"/><path class="cls-1" d="M594.16,309V176.74h84v26.41H623.95v28.2h50v26.41h-50V309Z"/></g></g></svg>