<svg xmlns="http://www.w3.org/2000/svg" xmlns:xlink="http://www.w3.org/1999/xlink" viewBox="0 0 1151.27 527.93"><defs><style>.cls-1,.cls-2{fill:none;}.cls-2{stroke:#3e3a39;stroke-miterlimit:10;stroke-width:3px;}.cls-3{fill:url(#새_패턴_9);}.cls-4{fill:#3c3c3b;}</style><pattern id="새_패턴_9" data-name="새 패턴 9" width="35" height="448.67" patternUnits="userSpaceOnUse" viewBox="0 0 35 448.67"><rect class="cls-1" width="35" height="448.67"/><line class="cls-2" x1="141.93" y1="448.67" x2="33.07" y2="897.34"/><line class="cls-2" x1="134.93" y1="448.67" x2="26.07" y2="897.34"/><line class="cls-2" x1="127.93" y1="448.67" x2="19.07" y2="897.34"/><line class="cls-2" x1="120.93" y1="448.67" x2="12.07" y2="897.34"/><line class="cls-2" x1="113.93" y1="448.67" x2="5.07" y2="897.34"/><line class="cls-2" x1="106.93" y1="448.67" x2="-1.93" y2="897.34"/><line class="cls-2" x1="99.93" y1="448.67" x2="-8.93" y2="897.34"/><line class="cls-2" x1="92.93" y1="448.67" x2="-15.93" y2="897.34"/><line class="cls-2" x1="85.93" y1="448.67" x2="-22.93" y2="897.34"/><line class="cls-2" x1="78.93" y1="448.67" x2="-29.93" y2="897.34"/><line class="cls-2" x1="71.93" y1="448.67" x2="-36.93" y2="897.34"/><line class="cls-2" x1="64.93" y1="448.67" x2="-43.93" y2="897.34"/><line class="cls-2" x1="57.93" y1="448.67" x2="-50.93" y2="897.34"/><line class="cls-2" x1="50.93" y1="448.67" x2="-57.93" y2="897.34"/><line class="cls-2" x1="43.93" y1="448.67" x2="-64.93" y2="897.34"/><line class="cls-2" x1="36.93" y1="448.67" x2="-71.93" y2="897.34"/><line class="cls-2" x1="29.93" y1="448.67" x2="-78.93" y2="897.34"/><line class="cls-2" x1="22.93" y1="448.67" x2="-85.93" y2="897.34"/><line class="cls-2" x1="15.93" y1="448.67" x2="-92.93" y2="897.34"/><line class="cls-2" x1="8.93" y1="448.67" x2="-99.93" y2="897.34"/><line class="cls-2" x1="1.93" y1="448.67" x2="-106.93" y2="897.34"/><line class="cls-2" x1="141.93" x2="33.07" y2="448.67"/><line class="cls-2" x1="134.93" x2="26.07" y2="448.67"/><line class="cls-2" x1="127.93" x2="19.07" y2="448.67"/><line class="cls-2" x1="120.93" x2="12.07" y2="448.67"/><line class="cls-2" x1="113.93" x2="5.07" y2="448.67"/><line class="cls-2" x1="106.93" x2="-1.93" y2="448.67"/><line class="cls-2" x1="99.93" x2="-8.93" y2="448.67"/><line class="cls-2" x1="92.93" x2="-15.93" y2="448.67"/><line class="cls-2" x1="85.93" x2="-22.93" y2="448.67"/><line class="cls-2" x1="78.93" x2="-29.93" y2="448.67"/><line class="cls-2" x1="71.93" x2="-36.93" y2="448.67"/><line class="cls-2" x1="64.93" x2="-43.93" y2="448.67"/><line class="cls-2" x1="57.93" x2="-50.93" y2="448.67"/><line class="cls-2" x1="50.93" x2="-57.93" y2="448.67"/><line class="cls-2" x1="43.93" x2="-64.93" y2="448.67"/><line class="cls-2" x1="36.93" x2="-71.93" y2="448.67"/><line class="cls-2" x1="29.93" x2="-78.93" y2="448.67"/><line class="cls-2" x1="22.93" x2="-85.93" y2="448.67"/><line class="cls-2" x1="15.93" x2="-92.93" y2="448.67"/><line class="cls-2" x1="8.93" x2="-99.93" y2="448.67"/><line class="cls-2" x1="1.93" x2="-106.93" y2="448.67"/><line class="cls-2" x1="141.93" y1="-448.67" x2="33.07"/><line class="cls-2" x1="134.93" y1="-448.67" x2="26.07"/><line class="cls-2" x1="127.93" y1="-448.67" x2="19.07"/><line class="cls-2" x1="120.93" y1="-448.67" x2="12.07"/><line class="cls-2" x1="113.93" y1="-448.67" x2="5.07"/><line class="cls-2" x1="106.93" y1="-448.67" x2="-1.93"/><line class="cls-2" x1="99.93" y1="-448.67" x2="-8.93"/><line class="cls-2" x1="92.93" y1="-448.67" x2="-15.93"/><line class="cls-2" x1="85.93" y1="-448.67" x2="-22.93"/><line class="cls-2" x1="78.93" y1="-448.67" x2="-29.93"/><line class="cls-2" x1="71.93" y1="-448.67" x2="-36.93"/><line class="cls-2" x1="64.93" y1="-448.67" x2="-43.93"/><line class="cls-2" x1="57.93" y1="-448.67" x2="-50.93"/><line class="cls-2" x1="50.93" y1="-448.67" x2="-57.93"/><line class="cls-2" x1="43.93" y1="-448.67" x2="-64.93"/><line class="cls-2" x1="36.93" y1="-448.67" x2="-71.93"/><line class="cls-2" x1="29.93" y1="-448.67" x2="-78.93"/><line class="cls-2" x1="22.93" y1="-448.67" x2="-85.93"/><line class="cls-2" x1="15.93" y1="-448.67" x2="-92.93"/><line class="cls-2" x1="8.93" y1="-448.67" x2="-99.93"/><line class="cls-2" x1="1.93" y1="-448.67" x2="-106.93"/></pattern></defs><title>wow-intro-p</title><g id="Layer_2" data-name="Layer 2"><g id="Layer_1-2" data-name="Layer 1"><path class="cls-3" d="M351.45,178.67h69.11v42.48H284.37V179.68c24.27-24.95,28.65-29,48.88-51.92C366.29,90,370,88,370,65.06V59c0-11.8-7.75-15.84-26.63-15.84-16.18,0-41.13,2.7-55.62,6.41L281.33,8.77C302.24,3.37,326.17,0,345.72,0c51.92,0,72.82,16.18,72.82,52.93v8.77c0,32-.34,38.09-31,75.18C371.34,156.42,361.23,168.22,351.45,178.67Z"/><path class="cls-4" d="M598.22,164.85c0,33.71-17.53,59.67-74.5,59.67s-74.5-26-74.5-59.67V59.67C449.22,26,466.75,0,523.72,0s74.5,26,74.5,59.67Zm-100.46-6.74c0,16.86,4.72,23.93,26,23.93s26-7.08,26-23.93V66.41c0-16.86-4.72-23.93-26-23.93s-26,7.08-26,23.93Z"/><path class="cls-3" d="M669,221.15V59.67L630.92,80.23,610,40.12,673.74,3.37h43.83V221.15Z"/><path class="cls-4" d="M812.63,221.15H762.74l71.81-175h-90V3.37H885.11V44.5Z"/><path class="cls-3" d="M498.94,459.16c0,34-23.6,68.77-87,68.77s-87-34.72-87-68.77V365.44c0-34,23.6-68.77,87-68.77s87,34.72,87,68.77Zm-50.57-89.34c0-17.53-11.13-28.32-36.41-28.32s-36.41,10.79-36.41,28.32v85c0,17.53,11.12,28.32,36.41,28.32s36.41-10.79,36.41-28.32Z"/><path class="cls-4" d="M769,524.56H704.59L666.83,354,628.74,524.56H564.35L509.06,300H559L597,460.51,636.15,300h61.69l38.43,160.47L774,300h49.89Z"/><path class="cls-4" d="M259.91,524.56H195.53L157.77,354,119.68,524.56H55.29L0,300H49.89L88,460.51,127.09,300h61.69l38.43,160.47L265,300h49.89Z"/><path class="cls-4" d="M840.78,524.56V300h142.6v44.84h-92v47.87h85v44.83h-85v87Z"/><path class="cls-4" d="M1008.67,524.56V300h142.6v44.84h-92v47.87h85v44.83h-85v87Z"/></g></g></svg>