<svg xmlns="http://www.w3.org/2000/svg" xmlns:xlink="http://www.w3.org/1999/xlink" viewBox="0 0 111.81 127.25"><defs><style>.cls-1,.cls-4{fill:none;}.cls-2{fill:#3e3a39;}.cls-3{fill:#fff;}.cls-4{stroke:#3e3a39;stroke-miterlimit:10;stroke-width:3px;}.cls-5{fill:url(#새_패턴_10);}.cls-6{fill:url(#새_패턴_9);}.cls-7{fill:url(#새_패턴_9-3);}</style><pattern id="새_패턴_10" data-name="새 패턴 10" width="135" height="230" patternTransform="translate(-140.45 224.78) scale(0.9)" patternUnits="userSpaceOnUse" viewBox="0 0 135 230"><rect class="cls-1" width="135" height="230"/><rect class="cls-2" x="66.37" y="171.28" width="137.26" height="117.44"/><polygon class="cls-3" points="116.31 230.57 122.62 229.67 116.31 228.77 118.93 225.28 115.55 227.82 114.54 214.9 113.54 227.82 110.16 225.28 112.78 228.77 106.47 229.67 112.78 230.57 110.16 234.06 113.54 231.52 114.54 244.44 115.55 231.52 118.93 234.06 116.31 230.57"/><polygon class="cls-3" points="76.48 219.6 78.12 219.37 76.48 219.13 77.16 218.23 76.28 218.89 76.02 215.53 75.76 218.88 74.88 218.23 75.56 219.13 73.92 219.37 75.56 219.6 74.88 220.51 75.76 219.85 76.02 223.2 76.28 219.85 77.16 220.51 76.48 219.6"/><polygon class="cls-3" points="106.96 203.94 109.23 203.61 106.96 203.29 107.9 202.03 106.69 202.95 106.32 198.29 105.96 202.95 104.74 202.03 105.69 203.29 103.41 203.61 105.69 203.94 104.74 205.19 105.96 204.28 106.32 208.94 106.69 204.28 107.9 205.19 106.96 203.94"/><polygon class="cls-3" points="126.82 184.71 132.23 183.94 126.82 183.17 129.07 180.18 126.17 182.35 125.31 171.28 124.44 182.35 121.55 180.18 123.79 183.17 118.39 183.94 123.79 184.71 121.55 187.7 124.44 185.52 125.31 196.59 126.17 185.52 129.07 187.7 126.82 184.71"/><path class="cls-3" d="M120.93,203.61a8.84,8.84,0,0,0-1.77.73,12.11,12.11,0,0,0-.77,2.76,12.78,12.78,0,0,0-.93-2.89,7.32,7.32,0,0,0-1.61-.6,8.84,8.84,0,0,0,1.77-.73,12.11,12.11,0,0,0,.77-2.76,12.11,12.11,0,0,0,.77,2.76A8.84,8.84,0,0,0,120.93,203.61Z"/><path class="cls-3" d="M72.66,196.86a11.69,11.69,0,0,0,2.34-1c.41-.35,1-3.65,1-3.65s.77,3.43,1.22,3.82a9.68,9.68,0,0,0,2.13.79,11.68,11.68,0,0,0-2.34,1c-.41.35-1,3.65-1,3.65s-.61-3.3-1-3.65A11.69,11.69,0,0,0,72.66,196.86Z"/><path class="cls-3" d="M130.8,194a11.34,11.34,0,0,0,2.27-.94c.4-.34,1-3.55,1-3.55s.74,3.33,1.19,3.71a9.42,9.42,0,0,0,2.07.77,11.34,11.34,0,0,0-2.27.94c-.4.34-1,3.55-1,3.55s-.6-3.21-1-3.55A11.34,11.34,0,0,0,130.8,194Z"/><path class="cls-3" d="M85.62,209.48A16.71,16.71,0,0,0,89,208.1c.58-.5,1.46-5.22,1.46-5.22s1.1,4.91,1.75,5.47a13.85,13.85,0,0,0,3.05,1.13,16.71,16.71,0,0,0-3.34,1.38c-.58.5-1.46,5.22-1.46,5.22s-.88-4.72-1.46-5.22A16.71,16.71,0,0,0,85.62,209.48Z"/><path class="cls-3" d="M130.45,207.1a5.07,5.07,0,0,0,1-.42,6.94,6.94,0,0,0,.44-1.58,7.33,7.33,0,0,0,.53,1.66,4.19,4.19,0,0,0,.93.34,5.06,5.06,0,0,0-1,.42,6.94,6.94,0,0,0-.44,1.58,6.94,6.94,0,0,0-.44-1.58A5.06,5.06,0,0,0,130.45,207.1Z"/><path class="cls-3" d="M102.77,213a5.07,5.07,0,0,0,1-.42,6.94,6.94,0,0,0,.44-1.58,7.33,7.33,0,0,0,.53,1.66,4.19,4.19,0,0,0,.93.34,5.06,5.06,0,0,0-1,.42,6.94,6.94,0,0,0-.44,1.58,6.94,6.94,0,0,0-.44-1.58A5.06,5.06,0,0,0,102.77,213Z"/><path class="cls-3" d="M67.12,209.68a2.83,2.83,0,0,0,.57-.23,3.86,3.86,0,0,0,.25-.88,4.1,4.1,0,0,0,.3.93,2.34,2.34,0,0,0,.52.19,2.84,2.84,0,0,0-.57.23,3.88,3.88,0,0,0-.25.88,3.86,3.86,0,0,0-.25-.88A2.83,2.83,0,0,0,67.12,209.68Z"/><path class="cls-3" d="M86.89,230.27a2.83,2.83,0,0,0,.57-.23,3.86,3.86,0,0,0,.25-.88,4.1,4.1,0,0,0,.3.93,2.34,2.34,0,0,0,.52.19,2.84,2.84,0,0,0-.57.23,3.88,3.88,0,0,0-.25.88,3.86,3.86,0,0,0-.25-.88A2.83,2.83,0,0,0,86.89,230.27Z"/><path class="cls-3" d="M75.21,211.2a2.83,2.83,0,0,0,.57-.23,3.86,3.86,0,0,0,.25-.88,4.1,4.1,0,0,0,.3.93,2.34,2.34,0,0,0,.52.19,2.84,2.84,0,0,0-.57.23,3.88,3.88,0,0,0-.25.88,3.86,3.86,0,0,0-.25-.88A2.83,2.83,0,0,0,75.21,211.2Z"/><path class="cls-3" d="M81.18,186.72a2.83,2.83,0,0,0,.57-.23,3.86,3.86,0,0,0,.25-.88,4.1,4.1,0,0,0,.3.93,2.34,2.34,0,0,0,.52.19,2.84,2.84,0,0,0-.57.23,3.88,3.88,0,0,0-.25.88,3.86,3.86,0,0,0-.25-.88A2.83,2.83,0,0,0,81.18,186.72Z"/><path class="cls-3" d="M94.41,193.37a2.83,2.83,0,0,0,.57-.23,3.86,3.86,0,0,0,.25-.88,4.1,4.1,0,0,0,.3.93,2.34,2.34,0,0,0,.52.19,2.84,2.84,0,0,0-.57.23,3.88,3.88,0,0,0-.25.88,3.86,3.86,0,0,0-.25-.88A2.83,2.83,0,0,0,94.41,193.37Z"/><path class="cls-3" d="M91,176.64a2.83,2.83,0,0,0,.57-.23,3.86,3.86,0,0,0,.25-.88,4.1,4.1,0,0,0,.3.93,2.34,2.34,0,0,0,.52.19,2.84,2.84,0,0,0-.57.23,3.88,3.88,0,0,0-.25.88,3.86,3.86,0,0,0-.25-.88A2.83,2.83,0,0,0,91,176.64Z"/><path class="cls-3" d="M105.78,189a2.83,2.83,0,0,0,.57-.23,3.86,3.86,0,0,0,.25-.88,4.1,4.1,0,0,0,.3.93,2.34,2.34,0,0,0,.52.19,2.84,2.84,0,0,0-.57.23,3.88,3.88,0,0,0-.25.88,3.86,3.86,0,0,0-.25-.88A2.83,2.83,0,0,0,105.78,189Z"/><path class="cls-3" d="M115.85,177.76a2.83,2.83,0,0,0,.57-.23,3.86,3.86,0,0,0,.25-.88,4.1,4.1,0,0,0,.3.93,2.34,2.34,0,0,0,.52.19,2.84,2.84,0,0,0-.57.23,3.88,3.88,0,0,0-.25.88,3.86,3.86,0,0,0-.25-.88A2.83,2.83,0,0,0,115.85,177.76Z"/><path class="cls-3" d="M71,176.64a2.83,2.83,0,0,0,.57-.23,3.86,3.86,0,0,0,.25-.88,4.1,4.1,0,0,0,.3.93,2.34,2.34,0,0,0,.52.19,2.84,2.84,0,0,0-.57.23,3.88,3.88,0,0,0-.25.88,3.86,3.86,0,0,0-.25-.88A2.83,2.83,0,0,0,71,176.64Z"/><path class="cls-3" d="M100.09,178.87a2.83,2.83,0,0,0,.57-.23,3.86,3.86,0,0,0,.25-.88,4.1,4.1,0,0,0,.3.93,2.34,2.34,0,0,0,.52.19,2.84,2.84,0,0,0-.57.23,3.88,3.88,0,0,0-.25.88,3.86,3.86,0,0,0-.25-.88A2.83,2.83,0,0,0,100.09,178.87Z"/><path class="cls-3" d="M82,192.84a2.83,2.83,0,0,0,.57-.23,3.86,3.86,0,0,0,.25-.88,4.1,4.1,0,0,0,.3.93,2.34,2.34,0,0,0,.52.19,2.84,2.84,0,0,0-.57.23,3.88,3.88,0,0,0-.25.88,3.86,3.86,0,0,0-.25-.88A2.83,2.83,0,0,0,82,192.84Z"/><path class="cls-3" d="M97.82,183.94a2.83,2.83,0,0,0,.57-.23,3.86,3.86,0,0,0,.25-.88,4.1,4.1,0,0,0,.3.93,2.34,2.34,0,0,0,.52.19,2.84,2.84,0,0,0-.57.23,3.88,3.88,0,0,0-.25.88,3.86,3.86,0,0,0-.25-.88A2.83,2.83,0,0,0,97.82,183.94Z"/><path class="cls-3" d="M77.75,187.84a2.83,2.83,0,0,0,.57-.23,3.86,3.86,0,0,0,.25-.88,4.1,4.1,0,0,0,.3.93,2.34,2.34,0,0,0,.52.19,2.84,2.84,0,0,0-.57.23,3.88,3.88,0,0,0-.25.88,3.86,3.86,0,0,0-.25-.88A2.83,2.83,0,0,0,77.75,187.84Z"/><polygon class="cls-3" points="129.94 220.45 131.58 220.22 129.94 219.98 130.62 219.08 129.74 219.74 129.48 216.38 129.22 219.74 128.34 219.08 129.02 219.98 127.38 220.22 129.02 220.45 128.34 221.36 129.22 220.7 129.48 224.05 129.74 220.7 130.62 221.36 129.94 220.45"/><path class="cls-3" d="M134.28,230.14a2.83,2.83,0,0,0,.57-.23,3.86,3.86,0,0,0,.25-.88,4.1,4.1,0,0,0,.3.93,2.34,2.34,0,0,0,.52.19,2.84,2.84,0,0,0-.57.23,3.88,3.88,0,0,0-.25.88,3.86,3.86,0,0,0-.25-.88A2.83,2.83,0,0,0,134.28,230.14Z"/><path class="cls-3" d="M131.38,213.78a2.83,2.83,0,0,0,.57-.23,3.86,3.86,0,0,0,.25-.88,4.1,4.1,0,0,0,.3.93,2.34,2.34,0,0,0,.52.19,2.84,2.84,0,0,0-.57.23,3.88,3.88,0,0,0-.25.88,3.86,3.86,0,0,0-.25-.88A2.83,2.83,0,0,0,131.38,213.78Z"/><path class="cls-3" d="M93.39,190.08a2.83,2.83,0,0,0-.57.23,3.86,3.86,0,0,0-.25.88,4.1,4.1,0,0,0-.3-.93,2.34,2.34,0,0,0-.52-.19,2.84,2.84,0,0,0,.57-.23,3.88,3.88,0,0,0,.25-.88,3.86,3.86,0,0,0,.25.88A2.83,2.83,0,0,0,93.39,190.08Z"/><path class="cls-3" d="M123.58,220.48a2.83,2.83,0,0,0,.57-.23,3.86,3.86,0,0,0,.25-.88,4.1,4.1,0,0,0,.3.93,2.34,2.34,0,0,0,.52.19,2.84,2.84,0,0,0-.57.23,3.88,3.88,0,0,0-.25.88,3.86,3.86,0,0,0-.25-.88A2.83,2.83,0,0,0,123.58,220.48Z"/><path class="cls-3" d="M122.55,217.2a2.83,2.83,0,0,0-.57.23,3.86,3.86,0,0,0-.25.88,4.1,4.1,0,0,0-.3-.93,2.34,2.34,0,0,0-.52-.19,2.84,2.84,0,0,0,.57-.23,3.88,3.88,0,0,0,.25-.88,3.86,3.86,0,0,0,.25.88A2.83,2.83,0,0,0,122.55,217.2Z"/><rect class="cls-2" x="-68.63" y="171.28" width="137.26" height="117.44"/><polygon class="cls-3" points="25.94 208.51 35.84 207.1 25.94 205.69 30.05 200.22 24.75 204.2 23.17 183.94 21.59 204.2 16.29 200.22 20.4 205.69 10.5 207.1 20.4 208.51 16.29 213.99 21.59 210 23.17 230.27 24.75 210 30.05 213.99 25.94 208.51"/><path class="cls-3" d="M68.63,206a11,11,0,0,0-2.2.91c-.38.33-1,3.43-1,3.43s-.72-3.23-1.15-3.6a9.1,9.1,0,0,0-2-.74,11,11,0,0,0,2.2-.91c.38-.33,1-3.43,1-3.43s.58,3.1,1,3.43A11,11,0,0,0,68.63,206Z"/><path class="cls-3" d="M31.67,190.08a7.07,7.07,0,0,0,1.41-.58,9.67,9.67,0,0,0,.62-2.21,10.22,10.22,0,0,0,.74,2.31,5.85,5.85,0,0,0,1.29.48,7.06,7.06,0,0,0-1.41.58,9.69,9.69,0,0,0-.62,2.21,9.69,9.69,0,0,0-.62-2.21A7.07,7.07,0,0,0,31.67,190.08Z"/><path class="cls-3" d="M-4.2,194A11.34,11.34,0,0,0-1.93,193c.4-.34,1-3.55,1-3.55s.74,3.33,1.19,3.71a9.42,9.42,0,0,0,2.07.77,11.34,11.34,0,0,0-2.27.94c-.4.34-1,3.55-1,3.55s-.6-3.21-1-3.55A11.34,11.34,0,0,0-4.2,194Z"/><path class="cls-3" d="M14.41,236.15a16.71,16.71,0,0,0,3.34-1.38c.58-.5,1.46-5.22,1.46-5.22s1.1,4.91,1.75,5.47A13.85,13.85,0,0,0,24,236.15a16.71,16.71,0,0,0-3.34,1.38c-.58.5-1.46,5.22-1.46,5.22s-.88-4.72-1.46-5.22A16.71,16.71,0,0,0,14.41,236.15Z"/><path class="cls-3" d="M44.34,181.12a11.34,11.34,0,0,0,2.27-.94c.4-.34,1-3.55,1-3.55s.74,3.33,1.19,3.71a9.42,9.42,0,0,0,2.07.77,11.34,11.34,0,0,0-2.27.94c-.4.34-1,3.55-1,3.55s-.6-3.21-1-3.55A11.34,11.34,0,0,0,44.34,181.12Z"/><path class="cls-3" d="M14.19,230.27a5.07,5.07,0,0,0,1-.42,6.94,6.94,0,0,0,.44-1.58,7.33,7.33,0,0,0,.53,1.66,4.19,4.19,0,0,0,.93.34,5.06,5.06,0,0,0-1,.42,6.94,6.94,0,0,0-.44,1.58,6.94,6.94,0,0,0-.44-1.58A5.06,5.06,0,0,0,14.19,230.27Z"/><path class="cls-3" d="M34.38,198.44a5.07,5.07,0,0,0,1-.42,6.94,6.94,0,0,0,.44-1.58,7.33,7.33,0,0,0,.53,1.66,4.19,4.19,0,0,0,.93.34,5.06,5.06,0,0,0-1,.42,6.94,6.94,0,0,0-.44,1.58,6.94,6.94,0,0,0-.44-1.58A5.06,5.06,0,0,0,34.38,198.44Z"/><path class="cls-3" d="M37.29,209.48a5.07,5.07,0,0,0,1-.42,6.94,6.94,0,0,0,.44-1.58,7.33,7.33,0,0,0,.53,1.66,4.19,4.19,0,0,0,.93.34,5.06,5.06,0,0,0-1,.42,6.94,6.94,0,0,0-.44,1.58,6.94,6.94,0,0,0-.44-1.58A5.06,5.06,0,0,0,37.29,209.48Z"/><path class="cls-3" d="M46.14,212.32a5.07,5.07,0,0,0,1-.42,6.94,6.94,0,0,0,.44-1.58,7.33,7.33,0,0,0,.53,1.66,4.19,4.19,0,0,0,.93.34,5.06,5.06,0,0,0-1,.42,6.94,6.94,0,0,0-.44,1.58,6.94,6.94,0,0,0-.44-1.58A5.06,5.06,0,0,0,46.14,212.32Z"/><path class="cls-3" d="M35.84,228.27a5.07,5.07,0,0,0,1-.42,6.94,6.94,0,0,0,.44-1.58,7.33,7.33,0,0,0,.53,1.66,4.19,4.19,0,0,0,.93.34,5.06,5.06,0,0,0-1,.42,6.94,6.94,0,0,0-.44,1.58,6.94,6.94,0,0,0-.44-1.58A5.06,5.06,0,0,0,35.84,228.27Z"/><path class="cls-3" d="M30.92,181.12a4.3,4.3,0,0,0,.86-.36,5.89,5.89,0,0,0,.38-1.34,6.23,6.23,0,0,0,.45,1.41,3.57,3.57,0,0,0,.79.29,4.3,4.3,0,0,0-.86.35,5.9,5.9,0,0,0-.38,1.34,5.9,5.9,0,0,0-.38-1.34A4.3,4.3,0,0,0,30.92,181.12Z"/><path class="cls-3" d="M.73,227.85a4.3,4.3,0,0,0,.86-.36A5.89,5.89,0,0,0,2,226.15a6.23,6.23,0,0,0,.45,1.41,3.57,3.57,0,0,0,.79.29,4.3,4.3,0,0,0-.86.35A5.9,5.9,0,0,0,2,229.55a5.9,5.9,0,0,0-.38-1.34A4.3,4.3,0,0,0,.73,227.85Z"/><path class="cls-3" d="M32.15,212.32a2.83,2.83,0,0,0,.57-.23,3.86,3.86,0,0,0,.25-.88,4.1,4.1,0,0,0,.3.93,2.34,2.34,0,0,0,.52.19,2.84,2.84,0,0,0-.57.23,3.88,3.88,0,0,0-.25.88,3.86,3.86,0,0,0-.25-.88A2.83,2.83,0,0,0,32.15,212.32Z"/><path class="cls-3" d="M48.24,217.67a2.83,2.83,0,0,0,.57-.23,3.86,3.86,0,0,0,.25-.88,4.1,4.1,0,0,0,.3.93,2.34,2.34,0,0,0,.52.19,2.84,2.84,0,0,0-.57.23,3.88,3.88,0,0,0-.25.88,3.86,3.86,0,0,0-.25-.88A2.83,2.83,0,0,0,48.24,217.67Z"/><path class="cls-3" d="M32.15,230.27a2.83,2.83,0,0,0,.57-.23,3.86,3.86,0,0,0,.25-.88,4.1,4.1,0,0,0,.3.93,2.34,2.34,0,0,0,.52.19,2.84,2.84,0,0,0-.57.23,3.88,3.88,0,0,0-.25.88,3.86,3.86,0,0,0-.25-.88A2.83,2.83,0,0,0,32.15,230.27Z"/><path class="cls-3" d="M29.68,226.15a2.83,2.83,0,0,0,.57-.23,3.86,3.86,0,0,0,.25-.88,4.1,4.1,0,0,0,.3.93,2.34,2.34,0,0,0,.52.19,2.84,2.84,0,0,0-.57.23,3.88,3.88,0,0,0-.25.88,3.86,3.86,0,0,0-.25-.88A2.83,2.83,0,0,0,29.68,226.15Z"/><path class="cls-3" d="M25.93,219.37a2.83,2.83,0,0,0,.57-.23,3.86,3.86,0,0,0,.25-.88,4.1,4.1,0,0,0,.3.93,2.34,2.34,0,0,0,.52.19,2.84,2.84,0,0,0-.57.23,3.88,3.88,0,0,0-.25.88,3.86,3.86,0,0,0-.25-.88A2.83,2.83,0,0,0,25.93,219.37Z"/><path class="cls-3" d="M58.43,187.84a2.83,2.83,0,0,0,.57-.23,3.86,3.86,0,0,0,.25-.88,4.1,4.1,0,0,0,.3.93,2.34,2.34,0,0,0,.52.19,2.84,2.84,0,0,0-.57.23,3.88,3.88,0,0,0-.25.88,3.86,3.86,0,0,0-.25-.88A2.83,2.83,0,0,0,58.43,187.84Z"/><path class="cls-3" d="M10.5,182.82a2.83,2.83,0,0,0,.57-.23,3.86,3.86,0,0,0,.25-.88,4.1,4.1,0,0,0,.3.93,2.34,2.34,0,0,0,.52.19,2.84,2.84,0,0,0-.57.23,3.88,3.88,0,0,0-.25.88,3.86,3.86,0,0,0-.25-.88A2.83,2.83,0,0,0,10.5,182.82Z"/><path class="cls-3" d="M52.26,201.68a2.83,2.83,0,0,0,.57-.23,3.86,3.86,0,0,0,.25-.88,4.1,4.1,0,0,0,.3.93,2.34,2.34,0,0,0,.52.19,2.84,2.84,0,0,0-.57.23,3.88,3.88,0,0,0-.25.88,3.86,3.86,0,0,0-.25-.88A2.83,2.83,0,0,0,52.26,201.68Z"/><path class="cls-3" d="M61.5,225a2.83,2.83,0,0,0,.57-.23,3.86,3.86,0,0,0,.25-.88,4.1,4.1,0,0,0,.3.93,2.34,2.34,0,0,0,.52.19,2.84,2.84,0,0,0-.57.23,3.88,3.88,0,0,0-.25.88,3.86,3.86,0,0,0-.25-.88A2.83,2.83,0,0,0,61.5,225Z"/><path class="cls-3" d="M16.45,223.2A2.83,2.83,0,0,0,17,223a3.86,3.86,0,0,0,.25-.88,4.1,4.1,0,0,0,.3.93,2.34,2.34,0,0,0,.52.19,2.84,2.84,0,0,0-.57.23,3.88,3.88,0,0,0-.25.88,3.86,3.86,0,0,0-.25-.88A2.83,2.83,0,0,0,16.45,223.2Z"/><path class="cls-3" d="M1.24,219.63a5.07,5.07,0,0,0,1-.42,6.94,6.94,0,0,0,.44-1.58,7.33,7.33,0,0,0,.53,1.66,4.19,4.19,0,0,0,.93.34,5.06,5.06,0,0,0-1,.42,6.94,6.94,0,0,0-.44,1.58,6.94,6.94,0,0,0-.44-1.58A5.06,5.06,0,0,0,1.24,219.63Z"/><path class="cls-3" d="M10.65,229.61a2.83,2.83,0,0,0,.57-.23,3.86,3.86,0,0,0,.25-.88,4.1,4.1,0,0,0,.3.93,2.34,2.34,0,0,0,.52.19,2.84,2.84,0,0,0-.57.23,3.88,3.88,0,0,0-.25.88,3.86,3.86,0,0,0-.25-.88A2.83,2.83,0,0,0,10.65,229.61Z"/><path class="cls-3" d="M-.72,230.14a2.83,2.83,0,0,0,.57-.23A3.86,3.86,0,0,0,.1,229a4.1,4.1,0,0,0,.3.93,2.34,2.34,0,0,0,.52.19,2.84,2.84,0,0,0-.57.23,3.88,3.88,0,0,0-.25.88,3.86,3.86,0,0,0-.25-.88A2.83,2.83,0,0,0-.72,230.14Z"/><path class="cls-3" d="M7.75,192.84a2.83,2.83,0,0,0,.57-.23,3.86,3.86,0,0,0,.25-.88,4.1,4.1,0,0,0,.3.93,2.34,2.34,0,0,0,.52.19,2.84,2.84,0,0,0-.57.23,3.88,3.88,0,0,0-.25.88,3.86,3.86,0,0,0-.25-.88A2.83,2.83,0,0,0,7.75,192.84Z"/><path class="cls-3" d="M6.73,189.55a2.83,2.83,0,0,0-.57.23,3.86,3.86,0,0,0-.25.88,4.1,4.1,0,0,0-.3-.93,2.34,2.34,0,0,0-.52-.19,2.84,2.84,0,0,0,.57-.23,3.88,3.88,0,0,0,.25-.88,3.86,3.86,0,0,0,.25.88A2.83,2.83,0,0,0,6.73,189.55Z"/><rect class="cls-2" x="133.87" y="56.28" width="137.26" height="117.44"/><path class="cls-3" d="M134.62,94.68a2.83,2.83,0,0,0,.57-.23,3.86,3.86,0,0,0,.25-.88,4.1,4.1,0,0,0,.3.93,2.34,2.34,0,0,0,.52.19,2.84,2.84,0,0,0-.57.23,3.88,3.88,0,0,0-.25.88,3.86,3.86,0,0,0-.25-.88A2.83,2.83,0,0,0,134.62,94.68Z"/><rect class="cls-2" x="-1.13" y="56.28" width="137.26" height="117.44"/><polygon class="cls-3" points="48.81 115.57 55.12 114.67 48.81 113.77 51.43 110.28 48.05 112.82 47.04 99.9 46.04 112.82 42.66 110.28 45.28 113.77 38.97 114.67 45.28 115.57 42.66 119.06 46.04 116.52 47.04 129.44 48.05 116.52 51.43 119.06 48.81 115.57"/><polygon class="cls-3" points="93.44 93.51 103.33 92.1 93.44 90.69 97.55 85.22 92.25 89.2 90.67 68.94 89.09 89.2 83.79 85.22 87.9 90.69 78 92.1 87.9 93.51 83.79 98.98 89.09 95 90.67 115.27 92.25 95 97.55 98.98 93.44 93.51"/><polygon class="cls-3" points="12.71 139.87 18.12 139.1 12.71 138.33 14.96 135.34 12.06 137.52 11.2 126.44 10.34 137.52 7.44 135.34 9.68 138.33 4.28 139.1 9.68 139.87 7.44 142.86 10.34 140.69 11.2 151.76 12.06 140.69 14.96 142.86 12.71 139.87"/><polygon class="cls-3" points="52.4 161.83 57.81 161.06 52.4 160.29 54.65 157.3 51.75 159.48 50.89 148.41 50.02 159.48 47.13 157.3 49.37 160.29 43.97 161.06 49.37 161.83 47.13 164.82 50.02 162.65 50.89 173.72 51.75 162.65 54.65 164.82 52.4 161.83"/><polygon class="cls-3" points="87.55 141.67 90.5 141.25 87.55 140.83 88.77 139.2 87.19 140.39 86.72 134.35 86.25 140.39 84.67 139.2 85.89 140.83 82.94 141.25 85.89 141.67 84.67 143.31 86.25 142.12 86.72 148.16 87.19 142.12 88.77 143.31 87.55 141.67"/><polygon class="cls-3" points="37.45 127.27 41.1 126.75 37.45 126.23 38.97 124.22 37.02 125.68 36.44 118.22 35.85 125.68 33.9 124.22 35.41 126.23 31.77 126.75 35.41 127.27 33.9 129.28 35.85 127.82 36.44 135.28 37.02 127.82 38.97 129.28 37.45 127.27"/><polygon class="cls-3" points="102.9 155.44 106.54 154.93 102.9 154.41 104.41 152.39 102.46 153.86 101.88 146.4 101.3 153.86 99.35 152.39 100.86 154.41 97.22 154.93 100.86 155.44 99.35 157.46 101.3 155.99 101.88 163.45 102.46 155.99 104.41 157.46 102.9 155.44"/><polygon class="cls-3" points="111.02 138.88 113.29 138.56 111.02 138.23 111.96 136.97 110.74 137.89 110.38 133.23 110.02 137.89 108.8 136.97 109.74 138.23 107.47 138.56 109.74 138.88 108.8 140.14 110.02 139.22 110.38 143.88 110.74 139.22 111.96 140.14 111.02 138.88"/><polygon class="cls-3" points="23.38 146.89 25.02 146.66 23.38 146.42 24.06 145.51 23.18 146.18 22.92 142.82 22.66 146.18 21.78 145.51 22.46 146.42 20.82 146.66 22.46 146.89 21.78 147.79 22.66 147.13 22.92 150.49 23.18 147.13 24.06 147.79 23.38 146.89"/><polygon class="cls-3" points="8.98 104.6 10.62 104.37 8.98 104.13 9.66 103.23 8.78 103.89 8.52 100.53 8.26 103.89 7.38 103.23 8.06 104.13 6.42 104.37 8.06 104.6 7.38 105.51 8.26 104.85 8.52 108.2 8.78 104.85 9.66 105.51 8.98 104.6"/><polygon class="cls-3" points="39.46 88.94 41.73 88.61 39.46 88.29 40.4 87.03 39.19 87.95 38.82 83.29 38.46 87.95 37.24 87.03 38.19 88.29 35.91 88.61 38.19 88.94 37.24 90.19 38.46 89.28 38.82 93.94 39.19 89.28 40.4 90.19 39.46 88.94"/><polygon class="cls-3" points="59.32 69.71 64.73 68.94 59.32 68.17 61.57 65.18 58.67 67.35 57.81 56.28 56.95 67.35 54.05 65.18 56.29 68.17 50.89 68.94 56.29 69.71 54.05 72.7 56.95 70.52 57.81 81.59 58.67 70.52 61.57 72.7 59.32 69.71"/><path class="cls-3" d="M53.43,88.61a8.84,8.84,0,0,0-1.77.73,12.11,12.11,0,0,0-.77,2.76A12.78,12.78,0,0,0,50,89.21a7.32,7.32,0,0,0-1.61-.6,8.84,8.84,0,0,0,1.77-.73,12.11,12.11,0,0,0,.77-2.76,12.11,12.11,0,0,0,.77,2.76A8.84,8.84,0,0,0,53.43,88.61Z"/><path class="cls-3" d="M66.56,122.91a7.5,7.5,0,0,0-1.5.62,10.28,10.28,0,0,0-.66,2.35,10.87,10.87,0,0,0-.79-2.46,6.23,6.23,0,0,0-1.37-.51,7.51,7.51,0,0,0,1.5-.62,10.29,10.29,0,0,0,.66-2.35,10.3,10.3,0,0,0,.66,2.35A7.51,7.51,0,0,0,66.56,122.91Z"/><path class="cls-3" d="M136.13,91a11,11,0,0,0-2.2.91c-.38.33-1,3.43-1,3.43s-.72-3.23-1.15-3.6a9.1,9.1,0,0,0-2-.74,11,11,0,0,0,2.2-.91c.38-.33,1-3.43,1-3.43s.58,3.1,1,3.43A11,11,0,0,0,136.13,91Z"/><path class="cls-3" d="M93.43,154.68"/><path class="cls-3" d="M5.16,81.86a11.69,11.69,0,0,0,2.34-1c.41-.35,1-3.65,1-3.65s.77,3.43,1.22,3.82a9.68,9.68,0,0,0,2.13.79,11.68,11.68,0,0,0-2.34,1c-.41.35-1,3.65-1,3.65s-.61-3.3-1-3.65A11.69,11.69,0,0,0,5.16,81.86Z"/><path class="cls-3" d="M99.17,75.08a7.07,7.07,0,0,0,1.41-.58,9.67,9.67,0,0,0,.62-2.21,10.22,10.22,0,0,0,.74,2.31,5.85,5.85,0,0,0,1.29.48,7.06,7.06,0,0,0-1.41.58,9.69,9.69,0,0,0-.62,2.21,9.69,9.69,0,0,0-.62-2.21A7.07,7.07,0,0,0,99.17,75.08Z"/><path class="cls-3" d="M13.68,161.06a11.34,11.34,0,0,0,2.27-.94c.4-.34,1-3.55,1-3.55s.74,3.33,1.19,3.71a9.42,9.42,0,0,0,2.07.77,11.34,11.34,0,0,0-2.27.94c-.4.34-1,3.55-1,3.55s-.6-3.21-1-3.55A11.34,11.34,0,0,0,13.68,161.06Z"/><path class="cls-3" d="M117.31,154.68a11.34,11.34,0,0,0,2.27-.94c.4-.34,1-3.55,1-3.55s.74,3.33,1.19,3.71a9.42,9.42,0,0,0,2.07.77,11.34,11.34,0,0,0-2.27.94c-.4.34-1,3.55-1,3.55s-.6-3.21-1-3.55A11.34,11.34,0,0,0,117.31,154.68Z"/><path class="cls-3" d="M118.12,134.07a11.34,11.34,0,0,0,2.27-.94c.4-.34,1-3.55,1-3.55s.74,3.33,1.19,3.71a9.42,9.42,0,0,0,2.07.77,11.34,11.34,0,0,0-2.27.94c-.4.34-1,3.55-1,3.55s-.6-3.21-1-3.55A11.34,11.34,0,0,0,118.12,134.07Z"/><path class="cls-3" d="M63.3,79A11.34,11.34,0,0,0,65.57,78c.4-.34,1-3.55,1-3.55s.74,3.33,1.19,3.71a9.42,9.42,0,0,0,2.07.77,11.34,11.34,0,0,0-2.27.94c-.4.34-1,3.55-1,3.55s-.6-3.21-1-3.55A11.34,11.34,0,0,0,63.3,79Z"/><path class="cls-3" d="M18.12,94.48a16.71,16.71,0,0,0,3.34-1.38c.58-.5,1.46-5.22,1.46-5.22s1.1,4.91,1.75,5.47a13.85,13.85,0,0,0,3.05,1.13,16.71,16.71,0,0,0-3.34,1.38c-.58.5-1.46,5.22-1.46,5.22s-.88-4.72-1.46-5.22A16.71,16.71,0,0,0,18.12,94.48Z"/><path class="cls-3" d="M81.91,121.15a16.71,16.71,0,0,0,3.34-1.38c.58-.5,1.46-5.22,1.46-5.22s1.1,4.91,1.75,5.47a13.85,13.85,0,0,0,3.05,1.13,16.71,16.71,0,0,0-3.34,1.38c-.58.5-1.46,5.22-1.46,5.22s-.88-4.72-1.46-5.22A16.71,16.71,0,0,0,81.91,121.15Z"/><path class="cls-3" d="M111.84,66.12a11.34,11.34,0,0,0,2.27-.94c.4-.34,1-3.55,1-3.55s.74,3.33,1.19,3.71a9.42,9.42,0,0,0,2.07.77,11.34,11.34,0,0,0-2.27.94c-.4.34-1,3.55-1,3.55s-.6-3.21-1-3.55A11.34,11.34,0,0,0,111.84,66.12Z"/><path class="cls-3" d="M64.75,146.66a11.34,11.34,0,0,0,2.27-.94c.4-.34,1-3.55,1-3.55s.74,3.33,1.19,3.71a9.42,9.42,0,0,0,2.07.77,11.34,11.34,0,0,0-2.27.94c-.4.34-1,3.55-1,3.55s-.6-3.21-1-3.55A11.34,11.34,0,0,0,64.75,146.66Z"/><path class="cls-3" d="M96.2,166.31a5.07,5.07,0,0,0,1-.42,6.94,6.94,0,0,0,.44-1.58,7.33,7.33,0,0,0,.53,1.66,4.19,4.19,0,0,0,.93.34,5.06,5.06,0,0,0-1,.42,6.94,6.94,0,0,0-.44,1.58,6.94,6.94,0,0,0-.44-1.58A5.06,5.06,0,0,0,96.2,166.31Z"/><path class="cls-3" d="M29.68,146.07a5.07,5.07,0,0,0,1-.42,6.94,6.94,0,0,0,.44-1.58,7.33,7.33,0,0,0,.53,1.66,4.19,4.19,0,0,0,.93.34,5.06,5.06,0,0,0-1,.42,6.94,6.94,0,0,0-.44,1.58,6.94,6.94,0,0,0-.44-1.58A5.06,5.06,0,0,0,29.68,146.07Z"/><path class="cls-3" d="M110.38,167.42a5.07,5.07,0,0,0,1-.42,6.94,6.94,0,0,0,.44-1.58,7.33,7.33,0,0,0,.53,1.66,4.19,4.19,0,0,0,.93.34,5.06,5.06,0,0,0-1,.42,6.94,6.94,0,0,0-.44,1.58,6.94,6.94,0,0,0-.44-1.58A5.06,5.06,0,0,0,110.38,167.42Z"/><path class="cls-3" d="M81.69,115.27a5.07,5.07,0,0,0,1-.42,6.94,6.94,0,0,0,.44-1.58,7.33,7.33,0,0,0,.53,1.66,4.19,4.19,0,0,0,.93.34,5.06,5.06,0,0,0-1,.42,6.94,6.94,0,0,0-.44,1.58,6.94,6.94,0,0,0-.44-1.58A5.06,5.06,0,0,0,81.69,115.27Z"/><path class="cls-3" d="M63,92.1a5.07,5.07,0,0,0,1-.42,6.94,6.94,0,0,0,.44-1.58,7.33,7.33,0,0,0,.53,1.66,4.19,4.19,0,0,0,.93.34,5.06,5.06,0,0,0-1,.42,6.94,6.94,0,0,0-.44,1.58A6.94,6.94,0,0,0,64,92.52,5.06,5.06,0,0,0,63,92.1Z"/><path class="cls-3" d="M101.88,83.44a5.07,5.07,0,0,0,1-.42,6.94,6.94,0,0,0,.44-1.58,7.33,7.33,0,0,0,.53,1.66,4.19,4.19,0,0,0,.93.34,5.06,5.06,0,0,0-1,.42,6.94,6.94,0,0,0-.44,1.58,6.94,6.94,0,0,0-.44-1.58A5.06,5.06,0,0,0,101.88,83.44Z"/><path class="cls-3" d="M35.27,98a5.07,5.07,0,0,0,1-.42A6.94,6.94,0,0,0,36.72,96a7.33,7.33,0,0,0,.53,1.66,4.19,4.19,0,0,0,.93.34,5.06,5.06,0,0,0-1,.42,6.94,6.94,0,0,0-.44,1.58,6.94,6.94,0,0,0-.44-1.58A5.06,5.06,0,0,0,35.27,98Z"/><path class="cls-3" d="M13.85,124a5.07,5.07,0,0,0,1-.42,6.94,6.94,0,0,0,.44-1.58,7.33,7.33,0,0,0,.53,1.66,4.19,4.19,0,0,0,.93.34,5.06,5.06,0,0,0-1,.42,6.94,6.94,0,0,0-.44,1.58,6.94,6.94,0,0,0-.44-1.58A5.06,5.06,0,0,0,13.85,124Z"/><path class="cls-3" d="M104.79,94.48a5.07,5.07,0,0,0,1-.42,6.94,6.94,0,0,0,.44-1.58,7.33,7.33,0,0,0,.53,1.66,4.19,4.19,0,0,0,.93.34,5.06,5.06,0,0,0-1,.42,6.94,6.94,0,0,0-.44,1.58,6.94,6.94,0,0,0-.44-1.58A5.06,5.06,0,0,0,104.79,94.48Z"/><path class="cls-3" d="M113.64,97.32a5.07,5.07,0,0,0,1-.42,6.94,6.94,0,0,0,.44-1.58,7.33,7.33,0,0,0,.53,1.66,4.19,4.19,0,0,0,.93.34,5.06,5.06,0,0,0-1,.42,6.94,6.94,0,0,0-.44,1.58,6.94,6.94,0,0,0-.44-1.58A5.06,5.06,0,0,0,113.64,97.32Z"/><path class="cls-3" d="M103.34,113.27a5.07,5.07,0,0,0,1-.42,6.94,6.94,0,0,0,.44-1.58,7.33,7.33,0,0,0,.53,1.66,4.19,4.19,0,0,0,.93.34,5.06,5.06,0,0,0-1,.42,6.94,6.94,0,0,0-.44,1.58,6.94,6.94,0,0,0-.44-1.58A5.06,5.06,0,0,0,103.34,113.27Z"/><path class="cls-3" d="M98,146.66a4.3,4.3,0,0,0,.86-.36,5.89,5.89,0,0,0,.38-1.34,6.23,6.23,0,0,0,.45,1.41,3.57,3.57,0,0,0,.79.29,4.3,4.3,0,0,0-.86.35,5.9,5.9,0,0,0-.38,1.34,5.9,5.9,0,0,0-.38-1.34A4.3,4.3,0,0,0,98,146.66Z"/><path class="cls-3" d="M66.78,154.68a4.3,4.3,0,0,0,.86-.36A5.89,5.89,0,0,0,68,153a6.23,6.23,0,0,0,.45,1.41,3.57,3.57,0,0,0,.79.29,4.3,4.3,0,0,0-.86.35,5.9,5.9,0,0,0-.38,1.34,5.9,5.9,0,0,0-.38-1.34A4.3,4.3,0,0,0,66.78,154.68Z"/><path class="cls-3" d="M98.42,66.12a4.3,4.3,0,0,0,.86-.36,5.89,5.89,0,0,0,.38-1.34,6.23,6.23,0,0,0,.45,1.41,3.57,3.57,0,0,0,.79.29,4.3,4.3,0,0,0-.86.35,5.9,5.9,0,0,0-.38,1.34,5.9,5.9,0,0,0-.38-1.34A4.3,4.3,0,0,0,98.42,66.12Z"/><path class="cls-3" d="M99.23,128.45a4.3,4.3,0,0,0,.86-.36,5.89,5.89,0,0,0,.38-1.34,6.23,6.23,0,0,0,.45,1.41,3.57,3.57,0,0,0,.79.29,4.3,4.3,0,0,0-.86.35,5.89,5.89,0,0,0-.38,1.34,5.9,5.9,0,0,0-.38-1.34A4.3,4.3,0,0,0,99.23,128.45Z"/><path class="cls-3" d="M68.23,112.85a4.3,4.3,0,0,0,.86-.36,5.89,5.89,0,0,0,.38-1.34,6.23,6.23,0,0,0,.45,1.41,3.57,3.57,0,0,0,.79.29,4.3,4.3,0,0,0-.86.35,5.9,5.9,0,0,0-.38,1.34,5.9,5.9,0,0,0-.38-1.34A4.3,4.3,0,0,0,68.23,112.85Z"/><path class="cls-3" d="M39.09,156a2.83,2.83,0,0,0,.57-.23,3.86,3.86,0,0,0,.25-.88,4.1,4.1,0,0,0,.3.93,2.34,2.34,0,0,0,.52.19,2.84,2.84,0,0,0-.57.23,3.88,3.88,0,0,0-.25.88,3.86,3.86,0,0,0-.25-.88A2.83,2.83,0,0,0,39.09,156Z"/><path class="cls-3" d="M5.67,150.44a2.83,2.83,0,0,0,.57-.23,3.86,3.86,0,0,0,.25-.88,4.1,4.1,0,0,0,.3.93,2.34,2.34,0,0,0,.52.19,2.84,2.84,0,0,0-.57.23,3.88,3.88,0,0,0-.25.88,3.86,3.86,0,0,0-.25-.88A2.83,2.83,0,0,0,5.67,150.44Z"/><path class="cls-3" d="M99.65,97.32a2.83,2.83,0,0,0,.57-.23,3.86,3.86,0,0,0,.25-.88,4.1,4.1,0,0,0,.3.93,2.34,2.34,0,0,0,.52.19,2.84,2.84,0,0,0-.57.23,3.88,3.88,0,0,0-.25.88,3.86,3.86,0,0,0-.25-.88A2.83,2.83,0,0,0,99.65,97.32Z"/><path class="cls-3" d="M-.38,94.68a2.83,2.83,0,0,0,.57-.23,3.86,3.86,0,0,0,.25-.88,4.1,4.1,0,0,0,.3.93,2.34,2.34,0,0,0,.52.19,2.84,2.84,0,0,0-.57.23,3.88,3.88,0,0,0-.25.88,3.86,3.86,0,0,0-.25-.88A2.83,2.83,0,0,0-.38,94.68Z"/><path class="cls-3" d="M19.39,115.27A2.83,2.83,0,0,0,20,115a3.86,3.86,0,0,0,.25-.88,4.1,4.1,0,0,0,.3.93,2.34,2.34,0,0,0,.52.19,2.84,2.84,0,0,0-.57.23,3.88,3.88,0,0,0-.25.88,3.86,3.86,0,0,0-.25-.88A2.83,2.83,0,0,0,19.39,115.27Z"/><path class="cls-3" d="M11.07,116.39a2.83,2.83,0,0,0,.57-.23,3.86,3.86,0,0,0,.25-.88,4.1,4.1,0,0,0,.3.93,2.34,2.34,0,0,0,.52.19,2.84,2.84,0,0,0-.57.23,3.88,3.88,0,0,0-.25.88,3.86,3.86,0,0,0-.25-.88A2.83,2.83,0,0,0,11.07,116.39Z"/><path class="cls-3" d="M26.1,135.19a2.83,2.83,0,0,0,.57-.23,3.86,3.86,0,0,0,.25-.88,4.1,4.1,0,0,0,.3.93,2.34,2.34,0,0,0,.52.19,2.84,2.84,0,0,0-.57.23,3.88,3.88,0,0,0-.25.88,3.86,3.86,0,0,0-.25-.88A2.83,2.83,0,0,0,26.1,135.19Z"/><path class="cls-3" d="M115.74,102.67a2.83,2.83,0,0,0,.57-.23,3.86,3.86,0,0,0,.25-.88,4.1,4.1,0,0,0,.3.93,2.34,2.34,0,0,0,.52.19,2.84,2.84,0,0,0-.57.23,3.88,3.88,0,0,0-.25.88,3.86,3.86,0,0,0-.25-.88A2.83,2.83,0,0,0,115.74,102.67Z"/><path class="cls-3" d="M99.65,115.27a2.83,2.83,0,0,0,.57-.23,3.86,3.86,0,0,0,.25-.88,4.1,4.1,0,0,0,.3.93,2.34,2.34,0,0,0,.52.19,2.84,2.84,0,0,0-.57.23,3.88,3.88,0,0,0-.25.88,3.86,3.86,0,0,0-.25-.88A2.83,2.83,0,0,0,99.65,115.27Z"/><path class="cls-3" d="M56.84,130.15a2.83,2.83,0,0,0,.57-.23,3.86,3.86,0,0,0,.25-.88,4.1,4.1,0,0,0,.3.93,2.34,2.34,0,0,0,.52.19,2.84,2.84,0,0,0-.57.23,3.88,3.88,0,0,0-.25.88,3.86,3.86,0,0,0-.25-.88A2.83,2.83,0,0,0,56.84,130.15Z"/><path class="cls-3" d="M31.78,140.22a2.83,2.83,0,0,0,.57-.23,3.86,3.86,0,0,0,.25-.88,4.1,4.1,0,0,0,.3.93,2.34,2.34,0,0,0,.52.19,2.84,2.84,0,0,0-.57.23,3.88,3.88,0,0,0-.25.88,3.86,3.86,0,0,0-.25-.88A2.83,2.83,0,0,0,31.78,140.22Z"/><path class="cls-3" d="M37.37,139.1a2.83,2.83,0,0,0,.57-.23,3.86,3.86,0,0,0,.25-.88,4.1,4.1,0,0,0,.3.93,2.34,2.34,0,0,0,.52.19,2.84,2.84,0,0,0-.57.23,3.88,3.88,0,0,0-.25.88,3.86,3.86,0,0,0-.25-.88A2.83,2.83,0,0,0,37.37,139.1Z"/><path class="cls-3" d="M39.9,135.19a2.83,2.83,0,0,0,.57-.23,3.86,3.86,0,0,0,.25-.88,4.1,4.1,0,0,0,.3.93,2.34,2.34,0,0,0,.52.19,2.84,2.84,0,0,0-.57.23,3.88,3.88,0,0,0-.25.88,3.86,3.86,0,0,0-.25-.88A2.83,2.83,0,0,0,39.9,135.19Z"/><path class="cls-3" d="M25.64,122.91a2.83,2.83,0,0,0,.57-.23,3.86,3.86,0,0,0,.25-.88,4.1,4.1,0,0,0,.3.93,2.34,2.34,0,0,0,.52.19,2.84,2.84,0,0,0-.57.23,3.88,3.88,0,0,0-.25.88,3.86,3.86,0,0,0-.25-.88A2.83,2.83,0,0,0,25.64,122.91Z"/><path class="cls-3" d="M97.18,111.15a2.83,2.83,0,0,0,.57-.23A3.86,3.86,0,0,0,98,110a4.1,4.1,0,0,0,.3.93,2.34,2.34,0,0,0,.52.19,2.84,2.84,0,0,0-.57.23,3.88,3.88,0,0,0-.25.88,3.86,3.86,0,0,0-.25-.88A2.83,2.83,0,0,0,97.18,111.15Z"/><path class="cls-3" d="M93.43,104.37a2.83,2.83,0,0,0,.57-.23,3.86,3.86,0,0,0,.25-.88,4.1,4.1,0,0,0,.3.93,2.34,2.34,0,0,0,.52.19,2.84,2.84,0,0,0-.57.23,3.88,3.88,0,0,0-.25.88,3.86,3.86,0,0,0-.25-.88A2.83,2.83,0,0,0,93.43,104.37Z"/><path class="cls-3" d="M3.47,161.06a2.83,2.83,0,0,0,.57-.23,3.86,3.86,0,0,0,.25-.88,4.1,4.1,0,0,0,.3.93,2.34,2.34,0,0,0,.52.19,2.84,2.84,0,0,0-.57.23,3.88,3.88,0,0,0-.25.88A3.86,3.86,0,0,0,4,161.3,2.83,2.83,0,0,0,3.47,161.06Z"/><path class="cls-3" d="M3.5,166.31a2.83,2.83,0,0,0,.57-.23,3.86,3.86,0,0,0,.25-.88,4.1,4.1,0,0,0,.3.93,2.34,2.34,0,0,0,.52.19,2.84,2.84,0,0,0-.57.23,3.88,3.88,0,0,0-.25.88,3.86,3.86,0,0,0-.25-.88A2.83,2.83,0,0,0,3.5,166.31Z"/><path class="cls-3" d="M75.25,162.45a2.83,2.83,0,0,0,.57-.23,3.86,3.86,0,0,0,.25-.88,4.1,4.1,0,0,0,.3.93,2.34,2.34,0,0,0,.52.19,2.84,2.84,0,0,0-.57.23,3.88,3.88,0,0,0-.25.88,3.86,3.86,0,0,0-.25-.88A2.83,2.83,0,0,0,75.25,162.45Z"/><path class="cls-3" d="M27.73,156.58a2.83,2.83,0,0,0,.57-.23,3.86,3.86,0,0,0,.25-.88,4.1,4.1,0,0,0,.3.93,2.34,2.34,0,0,0,.52.19,2.84,2.84,0,0,0-.57.23,3.88,3.88,0,0,0-.25.88,3.86,3.86,0,0,0-.25-.88A2.83,2.83,0,0,0,27.73,156.58Z"/><path class="cls-3" d="M35.1,165.2a2.83,2.83,0,0,0,.57-.23,3.86,3.86,0,0,0,.25-.88,4.1,4.1,0,0,0,.3.93,2.34,2.34,0,0,0,.52.19,2.84,2.84,0,0,0-.57.23,3.88,3.88,0,0,0-.25.88,3.86,3.86,0,0,0-.25-.88A2.83,2.83,0,0,0,35.1,165.2Z"/><path class="cls-3" d="M125.93,72.84a2.83,2.83,0,0,0,.57-.23,3.86,3.86,0,0,0,.25-.88,4.1,4.1,0,0,0,.3.93,2.34,2.34,0,0,0,.52.19,2.84,2.84,0,0,0-.57.23,3.88,3.88,0,0,0-.25.88,3.86,3.86,0,0,0-.25-.88A2.83,2.83,0,0,0,125.93,72.84Z"/><path class="cls-3" d="M78,67.82a2.83,2.83,0,0,0,.57-.23,3.86,3.86,0,0,0,.25-.88,4.1,4.1,0,0,0,.3.93,2.34,2.34,0,0,0,.52.19,2.84,2.84,0,0,0-.57.23,3.88,3.88,0,0,0-.25.88,3.86,3.86,0,0,0-.25-.88A2.83,2.83,0,0,0,78,67.82Z"/><path class="cls-3" d="M7.71,96.2A2.83,2.83,0,0,0,8.27,96a3.86,3.86,0,0,0,.25-.88,4.1,4.1,0,0,0,.3.93,2.34,2.34,0,0,0,.52.19,2.84,2.84,0,0,0-.57.23,3.88,3.88,0,0,0-.25.88,3.86,3.86,0,0,0-.25-.88A2.83,2.83,0,0,0,7.71,96.2Z"/><path class="cls-3" d="M13.68,71.72a2.83,2.83,0,0,0,.57-.23,3.86,3.86,0,0,0,.25-.88,4.1,4.1,0,0,0,.3.93,2.34,2.34,0,0,0,.52.19,2.84,2.84,0,0,0-.57.23,3.88,3.88,0,0,0-.25.88,3.86,3.86,0,0,0-.25-.88A2.83,2.83,0,0,0,13.68,71.72Z"/><path class="cls-3" d="M78.32,137.29a2.83,2.83,0,0,0,.57-.23,3.86,3.86,0,0,0,.25-.88,4.1,4.1,0,0,0,.3.93,2.34,2.34,0,0,0,.52.19,2.84,2.84,0,0,0-.57.23,3.88,3.88,0,0,0-.25.88,3.86,3.86,0,0,0-.25-.88A2.83,2.83,0,0,0,78.32,137.29Z"/><path class="cls-3" d="M26.91,78.37a2.83,2.83,0,0,0,.57-.23,3.86,3.86,0,0,0,.25-.88,4.1,4.1,0,0,0,.3.93,2.34,2.34,0,0,0,.52.19,2.84,2.84,0,0,0-.57.23,3.88,3.88,0,0,0-.25.88,3.86,3.86,0,0,0-.25-.88A2.83,2.83,0,0,0,26.91,78.37Z"/><path class="cls-3" d="M23.45,61.64A2.83,2.83,0,0,0,24,61.4a3.86,3.86,0,0,0,.25-.88,4.1,4.1,0,0,0,.3.93,2.34,2.34,0,0,0,.52.19,2.84,2.84,0,0,0-.57.23,3.88,3.88,0,0,0-.25.88,3.86,3.86,0,0,0-.25-.88A2.83,2.83,0,0,0,23.45,61.64Z"/><path class="cls-3" d="M38.28,74a2.83,2.83,0,0,0,.57-.23,3.86,3.86,0,0,0,.25-.88,4.1,4.1,0,0,0,.3.93,2.34,2.34,0,0,0,.52.19,2.84,2.84,0,0,0-.57.23,3.88,3.88,0,0,0-.25.88,3.86,3.86,0,0,0-.25-.88A2.83,2.83,0,0,0,38.28,74Z"/><path class="cls-3" d="M48.35,62.76a2.83,2.83,0,0,0,.57-.23,3.86,3.86,0,0,0,.25-.88,4.1,4.1,0,0,0,.3.93,2.34,2.34,0,0,0,.52.19,2.84,2.84,0,0,0-.57.23,3.88,3.88,0,0,0-.25.88,3.86,3.86,0,0,0-.25-.88A2.83,2.83,0,0,0,48.35,62.76Z"/><path class="cls-3" d="M3.5,61.64a2.83,2.83,0,0,0,.57-.23,3.86,3.86,0,0,0,.25-.88,4.1,4.1,0,0,0,.3.93,2.34,2.34,0,0,0,.52.19,2.84,2.84,0,0,0-.57.23,3.88,3.88,0,0,0-.25.88,3.86,3.86,0,0,0-.25-.88A2.83,2.83,0,0,0,3.5,61.64Z"/><path class="cls-3" d="M32.59,63.87a2.83,2.83,0,0,0,.57-.23,3.86,3.86,0,0,0,.25-.88,4.1,4.1,0,0,0,.3.93,2.34,2.34,0,0,0,.52.19,2.84,2.84,0,0,0-.57.23,3.88,3.88,0,0,0-.25.88,3.86,3.86,0,0,0-.25-.88A2.83,2.83,0,0,0,32.59,63.87Z"/><path class="cls-3" d="M14.49,77.84a2.83,2.83,0,0,0,.57-.23,3.86,3.86,0,0,0,.25-.88,4.1,4.1,0,0,0,.3.93,2.34,2.34,0,0,0,.52.19,2.84,2.84,0,0,0-.57.23,3.88,3.88,0,0,0-.25.88,3.86,3.86,0,0,0-.25-.88A2.83,2.83,0,0,0,14.49,77.84Z"/><path class="cls-3" d="M30.32,68.94a2.83,2.83,0,0,0,.57-.23,3.86,3.86,0,0,0,.25-.88,4.1,4.1,0,0,0,.3.93,2.34,2.34,0,0,0,.52.19,2.84,2.84,0,0,0-.57.23,3.88,3.88,0,0,0-.25.88,3.86,3.86,0,0,0-.25-.88A2.83,2.83,0,0,0,30.32,68.94Z"/><path class="cls-3" d="M10.25,72.84a2.83,2.83,0,0,0,.57-.23,3.86,3.86,0,0,0,.25-.88,4.1,4.1,0,0,0,.3.93,2.34,2.34,0,0,0,.52.19,2.84,2.84,0,0,0-.57.23,3.88,3.88,0,0,0-.25.88,3.86,3.86,0,0,0-.25-.88A2.83,2.83,0,0,0,10.25,72.84Z"/><path class="cls-3" d="M119.76,86.68a2.83,2.83,0,0,0,.57-.23,3.86,3.86,0,0,0,.25-.88,4.1,4.1,0,0,0,.3.93,2.34,2.34,0,0,0,.52.19,2.84,2.84,0,0,0-.57.23,3.88,3.88,0,0,0-.25.88,3.86,3.86,0,0,0-.25-.88A2.83,2.83,0,0,0,119.76,86.68Z"/><path class="cls-3" d="M89.86,162.45a2.83,2.83,0,0,0,.57-.23,3.86,3.86,0,0,0,.25-.88,4.1,4.1,0,0,0,.3.93,2.34,2.34,0,0,0,.52.19,2.84,2.84,0,0,0-.57.23,3.88,3.88,0,0,0-.25.88,3.86,3.86,0,0,0-.25-.88A2.83,2.83,0,0,0,89.86,162.45Z"/><path class="cls-3" d="M129,168.31a2.83,2.83,0,0,0,.57-.23,3.86,3.86,0,0,0,.25-.88,4.1,4.1,0,0,0,.3.93,2.34,2.34,0,0,0,.52.19,2.84,2.84,0,0,0-.57.23,3.88,3.88,0,0,0-.25.88,3.86,3.86,0,0,0-.25-.88A2.83,2.83,0,0,0,129,168.31Z"/><path class="cls-3" d="M129,110a2.83,2.83,0,0,0,.57-.23,3.86,3.86,0,0,0,.25-.88,4.1,4.1,0,0,0,.3.93,2.34,2.34,0,0,0,.52.19,2.84,2.84,0,0,0-.57.23,3.88,3.88,0,0,0-.25.88,3.86,3.86,0,0,0-.25-.88A2.83,2.83,0,0,0,129,110Z"/><path class="cls-3" d="M84,108.2a2.83,2.83,0,0,0,.57-.23,3.86,3.86,0,0,0,.25-.88,4.1,4.1,0,0,0,.3.93,2.34,2.34,0,0,0,.52.19,2.84,2.84,0,0,0-.57.23,3.88,3.88,0,0,0-.25.88,3.86,3.86,0,0,0-.25-.88A2.83,2.83,0,0,0,84,108.2Z"/><path class="cls-3" d="M117.55,145a2.83,2.83,0,0,0,.57-.23,3.86,3.86,0,0,0,.25-.88,4.1,4.1,0,0,0,.3.93,2.34,2.34,0,0,0,.52.19,2.84,2.84,0,0,0-.57.23,3.88,3.88,0,0,0-.25.88,3.86,3.86,0,0,0-.25-.88A2.83,2.83,0,0,0,117.55,145Z"/><path class="cls-3" d="M24.82,140.22a2.83,2.83,0,0,0,.57-.23,3.86,3.86,0,0,0,.25-.88,4.1,4.1,0,0,0,.3.93,2.34,2.34,0,0,0,.52.19,2.84,2.84,0,0,0-.57.23,3.88,3.88,0,0,0-.25.88,3.86,3.86,0,0,0-.25-.88A2.83,2.83,0,0,0,24.82,140.22Z"/><polygon class="cls-3" points="62.44 105.45 64.08 105.22 62.44 104.98 63.12 104.08 62.24 104.74 61.98 101.38 61.72 104.74 60.84 104.08 61.52 104.98 59.88 105.22 61.52 105.45 60.84 106.36 61.72 105.7 61.98 109.05 62.24 105.7 63.12 106.36 62.44 105.45"/><path class="cls-3" d="M68.74,104.63a5.07,5.07,0,0,0,1-.42,6.94,6.94,0,0,0,.44-1.58,7.33,7.33,0,0,0,.53,1.66,4.19,4.19,0,0,0,.93.34,5.06,5.06,0,0,0-1,.42,6.94,6.94,0,0,0-.44,1.58,6.94,6.94,0,0,0-.44-1.58A5.06,5.06,0,0,0,68.74,104.63Z"/><path class="cls-3" d="M78.15,114.61a2.83,2.83,0,0,0,.57-.23,3.86,3.86,0,0,0,.25-.88,4.1,4.1,0,0,0,.3.93,2.34,2.34,0,0,0,.52.19,2.84,2.84,0,0,0-.57.23,3.88,3.88,0,0,0-.25.88,3.86,3.86,0,0,0-.25-.88A2.83,2.83,0,0,0,78.15,114.61Z"/><path class="cls-3" d="M66.78,115.14a2.83,2.83,0,0,0,.57-.23,3.86,3.86,0,0,0,.25-.88,4.1,4.1,0,0,0,.3.93,2.34,2.34,0,0,0,.52.19,2.84,2.84,0,0,0-.57.23,3.88,3.88,0,0,0-.25.88,3.86,3.86,0,0,0-.25-.88A2.83,2.83,0,0,0,66.78,115.14Z"/><path class="cls-3" d="M74.15,123.76a2.83,2.83,0,0,0,.57-.23,3.86,3.86,0,0,0,.25-.88,4.1,4.1,0,0,0,.3.93,2.34,2.34,0,0,0,.52.19,2.84,2.84,0,0,0-.57.23,3.88,3.88,0,0,0-.25.88,3.86,3.86,0,0,0-.25-.88A2.83,2.83,0,0,0,74.15,123.76Z"/><path class="cls-3" d="M63.88,98.78a2.83,2.83,0,0,0,.57-.23,3.86,3.86,0,0,0,.25-.88,4.1,4.1,0,0,0,.3.93,2.34,2.34,0,0,0,.52.19,2.84,2.84,0,0,0-.57.23,3.88,3.88,0,0,0-.25.88,3.86,3.86,0,0,0-.25-.88A2.83,2.83,0,0,0,63.88,98.78Z"/><path class="cls-3" d="M58.12,164.94a6.3,6.3,0,0,0,1.26-.52,8.62,8.62,0,0,0,.55-2,9.1,9.1,0,0,0,.66,2.06,5.22,5.22,0,0,0,1.15.43,6.29,6.29,0,0,0-1.26.52,8.63,8.63,0,0,0-.55,2,8.63,8.63,0,0,0-.55-2A6.29,6.29,0,0,0,58.12,164.94Z"/><path class="cls-3" d="M2.38,144a3.37,3.37,0,0,0,.67-.28,4.6,4.6,0,0,0,.29-1.05,4.87,4.87,0,0,0,.35,1.1,2.79,2.79,0,0,0,.62.23,3.38,3.38,0,0,0-.67.28,4.63,4.63,0,0,0-.29,1.05,4.62,4.62,0,0,0-.29-1.05A3.37,3.37,0,0,0,2.38,144Z"/><path class="cls-3" d="M77.25,128.45"/><path class="cls-3" d="M25.89,75.08a2.83,2.83,0,0,0-.57.23,3.86,3.86,0,0,0-.25.88,4.1,4.1,0,0,0-.3-.93,2.34,2.34,0,0,0-.52-.19,2.84,2.84,0,0,0,.57-.23,3.88,3.88,0,0,0,.25-.88,3.86,3.86,0,0,0,.25.88A2.83,2.83,0,0,0,25.89,75.08Z"/><path class="cls-3" d="M56.08,105.48a2.83,2.83,0,0,0,.57-.23,3.86,3.86,0,0,0,.25-.88,4.1,4.1,0,0,0,.3.93,2.34,2.34,0,0,0,.52.19,2.84,2.84,0,0,0-.57.23,3.88,3.88,0,0,0-.25.88,3.86,3.86,0,0,0-.25-.88A2.83,2.83,0,0,0,56.08,105.48Z"/><path class="cls-3" d="M55.05,102.2a2.83,2.83,0,0,0-.57.23,3.86,3.86,0,0,0-.25.88,4.1,4.1,0,0,0-.3-.93,2.34,2.34,0,0,0-.52-.19A2.84,2.84,0,0,0,54,102a3.88,3.88,0,0,0,.25-.88,3.86,3.86,0,0,0,.25.88A2.83,2.83,0,0,0,55.05,102.2Z"/><path class="cls-3" d="M75.25,77.84a2.83,2.83,0,0,0,.57-.23,3.86,3.86,0,0,0,.25-.88,4.1,4.1,0,0,0,.3.93,2.34,2.34,0,0,0,.52.19,2.84,2.84,0,0,0-.57.23,3.88,3.88,0,0,0-.25.88,3.86,3.86,0,0,0-.25-.88A2.83,2.83,0,0,0,75.25,77.84Z"/><path class="cls-3" d="M74.23,74.55a2.83,2.83,0,0,0-.57.23,3.86,3.86,0,0,0-.25.88,4.1,4.1,0,0,0-.3-.93,2.34,2.34,0,0,0-.52-.19,2.84,2.84,0,0,0,.57-.23,3.88,3.88,0,0,0,.25-.88,3.86,3.86,0,0,0,.25.88A2.83,2.83,0,0,0,74.23,74.55Z"/><path class="cls-3" d="M66.56,134.07a5.05,5.05,0,0,0,1-.42,6.92,6.92,0,0,0,.44-1.58,7.31,7.31,0,0,0,.53,1.65,4.19,4.19,0,0,0,.92.34,5.05,5.05,0,0,0-1,.42,6.92,6.92,0,0,0-.44,1.58,6.93,6.93,0,0,0-.44-1.58A5.06,5.06,0,0,0,66.56,134.07Z"/><rect class="cls-2" x="-136.13" y="56.28" width="137.26" height="117.44"/><path class="cls-3" d="M1.13,91a11,11,0,0,0-2.2.91c-.38.33-1,3.43-1,3.43s-.72-3.23-1.15-3.6a9.1,9.1,0,0,0-2-.74A11,11,0,0,0-3,90.11c.38-.33,1-3.43,1-3.43s.58,3.1,1,3.43A11,11,0,0,0,1.13,91Z"/><rect class="cls-2" x="66.37" y="-58.72" width="137.26" height="117.44"/><polygon class="cls-3" points="116.31 0.57 122.62 -0.33 116.31 -1.23 118.93 -4.72 115.55 -2.18 114.54 -15.1 113.54 -2.18 110.16 -4.72 112.78 -1.23 106.47 -0.33 112.78 0.57 110.16 4.05 113.54 1.52 114.54 14.44 115.55 1.52 118.93 4.05 116.31 0.57"/><polygon class="cls-3" points="80.21 24.87 85.62 24.1 80.21 23.33 82.46 20.34 79.56 22.52 78.7 11.45 77.84 22.52 74.94 20.34 77.18 23.33 71.78 24.1 77.18 24.87 74.94 27.86 77.84 25.69 78.7 36.76 79.56 25.69 82.46 27.86 80.21 24.87"/><polygon class="cls-3" points="119.9 46.83 125.31 46.06 119.9 45.3 122.15 42.3 119.25 44.48 118.39 33.41 117.53 44.48 114.63 42.3 116.87 45.3 111.47 46.06 116.87 46.83 114.63 49.82 117.53 47.65 118.39 58.72 119.25 47.65 122.15 49.82 119.9 46.83"/><polygon class="cls-3" points="104.95 12.27 108.6 11.75 104.95 11.23 106.47 9.22 104.52 10.68 103.94 3.23 103.35 10.68 101.4 9.22 102.91 11.23 99.27 11.75 102.91 12.27 101.4 14.29 103.35 12.82 103.94 20.28 104.52 12.82 106.47 14.29 104.95 12.27"/><polygon class="cls-3" points="90.88 31.89 92.52 31.66 90.88 31.42 91.56 30.52 90.68 31.18 90.42 27.82 90.16 31.18 89.28 30.52 89.96 31.42 88.33 31.66 89.96 31.89 89.28 32.8 90.16 32.13 90.42 35.49 90.68 32.13 91.56 32.8 90.88 31.89"/><path class="cls-3" d="M134.06,7.91a7.5,7.5,0,0,0-1.5.62,10.28,10.28,0,0,0-.66,2.35,10.87,10.87,0,0,0-.79-2.46,6.23,6.23,0,0,0-1.37-.51,7.51,7.51,0,0,0,1.5-.62,10.29,10.29,0,0,0,.66-2.35,10.3,10.3,0,0,0,.66,2.35A7.51,7.51,0,0,0,134.06,7.91Z"/><path class="cls-3" d="M81.18,46.06a11.34,11.34,0,0,0,2.27-.94c.4-.34,1-3.55,1-3.55s.74,3.33,1.19,3.71a9.42,9.42,0,0,0,2.07.77,11.34,11.34,0,0,0-2.27.94c-.4.34-1,3.55-1,3.55s-.6-3.21-1-3.55A11.34,11.34,0,0,0,81.18,46.06Z"/><path class="cls-3" d="M132.25,31.66a11.34,11.34,0,0,0,2.27-.94c.4-.34,1-3.55,1-3.55s.74,3.33,1.19,3.71a9.42,9.42,0,0,0,2.07.77,11.34,11.34,0,0,0-2.27.94c-.4.34-1,3.55-1,3.55s-.6-3.21-1-3.55A11.34,11.34,0,0,0,132.25,31.66Z"/><path class="cls-3" d="M97.18,31.07a5.07,5.07,0,0,0,1-.42,6.94,6.94,0,0,0,.44-1.58,7.33,7.33,0,0,0,.53,1.66,4.19,4.19,0,0,0,.93.34,5.06,5.06,0,0,0-1,.42,6.94,6.94,0,0,0-.44,1.58,6.94,6.94,0,0,0-.44-1.58A5.06,5.06,0,0,0,97.18,31.07Z"/><path class="cls-3" d="M81.35,9a5.07,5.07,0,0,0,1-.42A6.94,6.94,0,0,0,82.81,7a7.33,7.33,0,0,0,.53,1.66,4.19,4.19,0,0,0,.93.34,5.06,5.06,0,0,0-1,.42A6.94,6.94,0,0,0,82.81,11a6.94,6.94,0,0,0-.44-1.58A5.06,5.06,0,0,0,81.35,9Z"/><path class="cls-3" d="M134.28,39.68a4.3,4.3,0,0,0,.86-.36,5.89,5.89,0,0,0,.38-1.34,6.23,6.23,0,0,0,.45,1.41,3.57,3.57,0,0,0,.79.29,4.3,4.3,0,0,0-.86.35,5.9,5.9,0,0,0-.38,1.34,5.9,5.9,0,0,0-.38-1.34A4.3,4.3,0,0,0,134.28,39.68Z"/><path class="cls-3" d="M106.59,41a2.83,2.83,0,0,0,.57-.23,3.86,3.86,0,0,0,.25-.88,4.1,4.1,0,0,0,.3.93,2.34,2.34,0,0,0,.52.19,2.84,2.84,0,0,0-.57.23,3.88,3.88,0,0,0-.25.88,3.86,3.86,0,0,0-.25-.88A2.83,2.83,0,0,0,106.59,41Z"/><path class="cls-3" d="M73.17,35.44a2.83,2.83,0,0,0,.57-.23,3.86,3.86,0,0,0,.25-.88,4.1,4.1,0,0,0,.3.93,2.34,2.34,0,0,0,.52.19,2.84,2.84,0,0,0-.57.23,3.88,3.88,0,0,0-.25.88,3.86,3.86,0,0,0-.25-.88A2.83,2.83,0,0,0,73.17,35.44Z"/><path class="cls-3" d="M86.89.27A2.83,2.83,0,0,0,87.46,0a3.86,3.86,0,0,0,.25-.88,4.1,4.1,0,0,0,.3.93,2.34,2.34,0,0,0,.52.19A2.84,2.84,0,0,0,88,.5a3.88,3.88,0,0,0-.25.88A3.86,3.86,0,0,0,87.46.5,2.83,2.83,0,0,0,86.89.27Z"/><path class="cls-3" d="M78.57,1.39a2.83,2.83,0,0,0,.57-.23,3.86,3.86,0,0,0,.25-.88,4.1,4.1,0,0,0,.3.93,2.34,2.34,0,0,0,.52.19,2.84,2.84,0,0,0-.57.23,3.88,3.88,0,0,0-.25.88,3.86,3.86,0,0,0-.25-.88A2.83,2.83,0,0,0,78.57,1.39Z"/><path class="cls-3" d="M93.6,20.19a2.83,2.83,0,0,0,.57-.23,3.86,3.86,0,0,0,.25-.88,4.1,4.1,0,0,0,.3.93,2.34,2.34,0,0,0,.52.19,2.84,2.84,0,0,0-.57.23,3.88,3.88,0,0,0-.25.88,3.86,3.86,0,0,0-.25-.88A2.83,2.83,0,0,0,93.6,20.19Z"/><path class="cls-3" d="M124.34,15.15a2.83,2.83,0,0,0,.57-.23,3.86,3.86,0,0,0,.25-.88,4.1,4.1,0,0,0,.3.93,2.34,2.34,0,0,0,.52.19,2.84,2.84,0,0,0-.57.23,3.88,3.88,0,0,0-.25.88,3.86,3.86,0,0,0-.25-.88A2.83,2.83,0,0,0,124.34,15.15Z"/><path class="cls-3" d="M99.28,25.22a2.83,2.83,0,0,0,.57-.23,3.86,3.86,0,0,0,.25-.88,4.1,4.1,0,0,0,.3.93,2.34,2.34,0,0,0,.52.19,2.84,2.84,0,0,0-.57.23,3.88,3.88,0,0,0-.25.88,3.86,3.86,0,0,0-.25-.88A2.83,2.83,0,0,0,99.28,25.22Z"/><path class="cls-3" d="M104.87,24.1a2.83,2.83,0,0,0,.57-.23,3.86,3.86,0,0,0,.25-.88,4.1,4.1,0,0,0,.3.93,2.34,2.34,0,0,0,.52.19,2.84,2.84,0,0,0-.57.23,3.88,3.88,0,0,0-.25.88,3.86,3.86,0,0,0-.25-.88A2.83,2.83,0,0,0,104.87,24.1Z"/><path class="cls-3" d="M107.4,20.19A2.83,2.83,0,0,0,108,20a3.86,3.86,0,0,0,.25-.88,4.1,4.1,0,0,0,.3.93,2.34,2.34,0,0,0,.52.19,2.84,2.84,0,0,0-.57.23,3.88,3.88,0,0,0-.25.88,3.86,3.86,0,0,0-.25-.88A2.83,2.83,0,0,0,107.4,20.19Z"/><path class="cls-3" d="M93.14,7.91a2.83,2.83,0,0,0,.57-.23,3.86,3.86,0,0,0,.25-.88,4.1,4.1,0,0,0,.3.93,2.34,2.34,0,0,0,.52.19,2.84,2.84,0,0,0-.57.23,3.88,3.88,0,0,0-.25.88,3.86,3.86,0,0,0-.25-.88A2.83,2.83,0,0,0,93.14,7.91Z"/><path class="cls-3" d="M71,46.06a2.83,2.83,0,0,0,.57-.23,3.86,3.86,0,0,0,.25-.88,4.1,4.1,0,0,0,.3.93,2.34,2.34,0,0,0,.52.19,2.84,2.84,0,0,0-.57.23,3.88,3.88,0,0,0-.25.88,3.86,3.86,0,0,0-.25-.88A2.83,2.83,0,0,0,71,46.06Z"/><path class="cls-3" d="M71,51.31a2.83,2.83,0,0,0,.57-.23,3.86,3.86,0,0,0,.25-.88,4.1,4.1,0,0,0,.3.93,2.34,2.34,0,0,0,.52.19,2.84,2.84,0,0,0-.57.23,3.88,3.88,0,0,0-.25.88,3.86,3.86,0,0,0-.25-.88A2.83,2.83,0,0,0,71,51.31Z"/><path class="cls-3" d="M95.23,41.58a2.83,2.83,0,0,0,.57-.23,3.86,3.86,0,0,0,.25-.88,4.1,4.1,0,0,0,.3.93,2.34,2.34,0,0,0,.52.19,2.84,2.84,0,0,0-.57.23,3.88,3.88,0,0,0-.25.88,3.86,3.86,0,0,0-.25-.88A2.83,2.83,0,0,0,95.23,41.58Z"/><path class="cls-3" d="M102.6,50.2a2.83,2.83,0,0,0,.57-.23,3.86,3.86,0,0,0,.25-.88,4.1,4.1,0,0,0,.3.93,2.34,2.34,0,0,0,.52.19,2.84,2.84,0,0,0-.57.23,3.88,3.88,0,0,0-.25.88,3.86,3.86,0,0,0-.25-.88A2.83,2.83,0,0,0,102.6,50.2Z"/><path class="cls-3" d="M92.32,25.22a2.83,2.83,0,0,0,.57-.23,3.86,3.86,0,0,0,.25-.88,4.1,4.1,0,0,0,.3.93,2.34,2.34,0,0,0,.52.19,2.84,2.84,0,0,0-.57.23,3.88,3.88,0,0,0-.25.88,3.86,3.86,0,0,0-.25-.88A2.83,2.83,0,0,0,92.32,25.22Z"/><path class="cls-3" d="M134.28.14a2.83,2.83,0,0,0,.57-.23A3.86,3.86,0,0,0,135.1-1a4.1,4.1,0,0,0,.3.93,2.34,2.34,0,0,0,.52.19,2.84,2.84,0,0,0-.57.23,3.88,3.88,0,0,0-.25.88,3.86,3.86,0,0,0-.25-.88A2.83,2.83,0,0,0,134.28.14Z"/><path class="cls-3" d="M125.62,49.94a6.3,6.3,0,0,0,1.26-.52,8.62,8.62,0,0,0,.55-2,9.1,9.1,0,0,0,.66,2.06,5.22,5.22,0,0,0,1.15.43,6.29,6.29,0,0,0-1.26.52,8.63,8.63,0,0,0-.55,2,8.63,8.63,0,0,0-.55-2A6.29,6.29,0,0,0,125.62,49.94Z"/><path class="cls-3" d="M69.88,29a3.37,3.37,0,0,0,.67-.28,4.6,4.6,0,0,0,.29-1.05,4.87,4.87,0,0,0,.35,1.1,2.79,2.79,0,0,0,.62.23,3.38,3.38,0,0,0-.67.28,4.63,4.63,0,0,0-.29,1.05,4.62,4.62,0,0,0-.29-1.05A3.37,3.37,0,0,0,69.88,29Z"/><path class="cls-3" d="M134.06,19.07a5.05,5.05,0,0,0,1-.42,6.92,6.92,0,0,0,.44-1.58,7.31,7.31,0,0,0,.53,1.65,4.19,4.19,0,0,0,.92.34,5.05,5.05,0,0,0-1,.42,6.92,6.92,0,0,0-.44,1.58,6.93,6.93,0,0,0-.44-1.58A5.06,5.06,0,0,0,134.06,19.07Z"/><rect class="cls-2" x="-68.63" y="-58.72" width="137.26" height="117.44"/><polygon class="cls-3" points="25.94 -21.49 35.84 -22.9 25.94 -24.3 30.05 -29.78 24.75 -25.8 23.17 -46.06 21.59 -25.8 16.29 -29.78 20.4 -24.3 10.5 -22.9 20.4 -21.49 16.29 -16.02 21.59 -20 23.17 0.27 24.75 -20 30.05 -16.02 25.94 -21.49"/><polygon class="cls-3" points="20.05 26.67 23 26.25 20.05 25.83 21.27 24.2 19.69 25.39 19.22 19.35 18.75 25.39 17.17 24.2 18.39 25.83 15.44 26.25 18.39 26.67 17.17 28.31 18.75 27.12 19.22 33.16 19.69 27.12 21.27 28.31 20.05 26.67"/><polygon class="cls-3" points="35.4 40.44 39.04 39.93 35.4 39.41 36.91 37.39 34.96 38.86 34.38 31.4 33.8 38.86 31.85 37.39 33.36 39.41 29.72 39.93 33.36 40.44 31.85 42.46 33.8 40.99 34.38 48.45 34.96 40.99 36.91 42.46 35.4 40.44"/><polygon class="cls-3" points="43.52 23.88 45.79 23.55 43.52 23.23 44.46 21.97 43.24 22.89 42.88 18.23 42.52 22.89 41.3 21.97 42.24 23.23 39.97 23.55 42.24 23.88 41.3 25.14 42.52 24.22 42.88 28.88 43.24 24.22 44.46 25.14 43.52 23.88"/><path class="cls-3" d="M25.93,39.68"/><path class="cls-3" d="M49.81,39.68a11.34,11.34,0,0,0,2.27-.94c.4-.34,1-3.55,1-3.55s.74,3.33,1.19,3.71a9.42,9.42,0,0,0,2.07.77,11.34,11.34,0,0,0-2.27.94c-.4.34-1,3.55-1,3.55s-.6-3.21-1-3.55A11.34,11.34,0,0,0,49.81,39.68Z"/><path class="cls-3" d="M50.62,19.07a11.34,11.34,0,0,0,2.27-.94c.4-.34,1-3.55,1-3.55s.74,3.33,1.19,3.71a9.42,9.42,0,0,0,2.07.77,11.34,11.34,0,0,0-2.27.94c-.4.34-1,3.55-1,3.55s-.6-3.21-1-3.55A11.34,11.34,0,0,0,50.62,19.07Z"/><path class="cls-3" d="M14.41,6.15a16.71,16.71,0,0,0,3.34-1.38c.58-.5,1.46-5.22,1.46-5.22S20.32,4.46,21,5A13.85,13.85,0,0,0,24,6.15a16.71,16.71,0,0,0-3.34,1.38c-.58.5-1.46,5.22-1.46,5.22S18.34,8,17.76,7.53A16.71,16.71,0,0,0,14.41,6.15Z"/><path class="cls-3" d="M-2.75,31.66a11.34,11.34,0,0,0,2.27-.94c.4-.34,1-3.55,1-3.55s.74,3.33,1.19,3.71a9.42,9.42,0,0,0,2.07.77,11.34,11.34,0,0,0-2.27.94c-.4.34-1,3.55-1,3.55s-.6-3.21-1-3.55A11.34,11.34,0,0,0-2.75,31.66Z"/><path class="cls-3" d="M28.7,51.31a5.07,5.07,0,0,0,1-.42,6.94,6.94,0,0,0,.44-1.58A7.33,7.33,0,0,0,30.68,51a4.19,4.19,0,0,0,.93.34,5.06,5.06,0,0,0-1,.42,6.94,6.94,0,0,0-.44,1.58,6.94,6.94,0,0,0-.44-1.58A5.06,5.06,0,0,0,28.7,51.31Z"/><path class="cls-3" d="M42.88,52.42a5.07,5.07,0,0,0,1-.42,6.94,6.94,0,0,0,.44-1.58,7.33,7.33,0,0,0,.53,1.66,4.19,4.19,0,0,0,.93.34,5.06,5.06,0,0,0-1,.42,6.94,6.94,0,0,0-.44,1.58,6.94,6.94,0,0,0-.44-1.58A5.06,5.06,0,0,0,42.88,52.42Z"/><path class="cls-3" d="M14.19.27a5.07,5.07,0,0,0,1-.42,6.94,6.94,0,0,0,.44-1.58,7.33,7.33,0,0,0,.53,1.66,4.19,4.19,0,0,0,.93.34,5.06,5.06,0,0,0-1,.42,6.94,6.94,0,0,0-.44,1.58A6.94,6.94,0,0,0,15.2.69,5.06,5.06,0,0,0,14.19.27Z"/><path class="cls-3" d="M35.84-1.73a5.07,5.07,0,0,0,1-.42,6.94,6.94,0,0,0,.44-1.58,7.33,7.33,0,0,0,.53,1.66,4.19,4.19,0,0,0,.93.34,5.06,5.06,0,0,0-1,.42A6.94,6.94,0,0,0,37.29.27a6.94,6.94,0,0,0-.44-1.58A5.06,5.06,0,0,0,35.84-1.73Z"/><path class="cls-3" d="M30.49,31.66a4.3,4.3,0,0,0,.86-.36A5.89,5.89,0,0,0,31.73,30a6.23,6.23,0,0,0,.45,1.41,3.57,3.57,0,0,0,.79.29,4.3,4.3,0,0,0-.86.35,5.9,5.9,0,0,0-.38,1.34A5.9,5.9,0,0,0,31.35,32,4.3,4.3,0,0,0,30.49,31.66Z"/><path class="cls-3" d="M-.72,39.68a4.3,4.3,0,0,0,.86-.36A5.89,5.89,0,0,0,.52,38,6.23,6.23,0,0,0,1,39.39a3.57,3.57,0,0,0,.79.29A4.3,4.3,0,0,0,.89,40a5.9,5.9,0,0,0-.38,1.34A5.9,5.9,0,0,0,.14,40,4.3,4.3,0,0,0-.72,39.68Z"/><path class="cls-3" d="M31.73,13.45a4.3,4.3,0,0,0,.86-.36A5.89,5.89,0,0,0,33,11.75a6.23,6.23,0,0,0,.45,1.41,3.57,3.57,0,0,0,.79.29,4.3,4.3,0,0,0-.86.35A5.9,5.9,0,0,0,33,15.15a5.9,5.9,0,0,0-.38-1.34A4.3,4.3,0,0,0,31.73,13.45Z"/><path class="cls-3" d="M32.15.27A2.83,2.83,0,0,0,32.72,0,3.86,3.86,0,0,0,33-.85a4.1,4.1,0,0,0,.3.93,2.34,2.34,0,0,0,.52.19,2.84,2.84,0,0,0-.57.23,3.88,3.88,0,0,0-.25.88A3.86,3.86,0,0,0,32.72.5,2.83,2.83,0,0,0,32.15.27Z"/><path class="cls-3" d="M7.75,47.45a2.83,2.83,0,0,0,.57-.23,3.86,3.86,0,0,0,.25-.88,4.1,4.1,0,0,0,.3.93,2.34,2.34,0,0,0,.52.19,2.84,2.84,0,0,0-.57.23,3.88,3.88,0,0,0-.25.88,3.86,3.86,0,0,0-.25-.88A2.83,2.83,0,0,0,7.75,47.45Z"/><path class="cls-3" d="M10.82,22.29a2.83,2.83,0,0,0,.57-.23,3.86,3.86,0,0,0,.25-.88,4.1,4.1,0,0,0,.3.93,2.34,2.34,0,0,0,.52.19,2.84,2.84,0,0,0-.57.23,3.88,3.88,0,0,0-.25.88,3.86,3.86,0,0,0-.25-.88A2.83,2.83,0,0,0,10.82,22.29Z"/><path class="cls-3" d="M22.36,47.45a2.83,2.83,0,0,0,.57-.23,3.86,3.86,0,0,0,.25-.88,4.1,4.1,0,0,0,.3.93,2.34,2.34,0,0,0,.52.19,2.84,2.84,0,0,0-.57.23,3.88,3.88,0,0,0-.25.88,3.86,3.86,0,0,0-.25-.88A2.83,2.83,0,0,0,22.36,47.45Z"/><path class="cls-3" d="M61.5,53.31a2.83,2.83,0,0,0,.57-.23,3.86,3.86,0,0,0,.25-.88,4.1,4.1,0,0,0,.3.93,2.34,2.34,0,0,0,.52.19,2.84,2.84,0,0,0-.57.23,3.88,3.88,0,0,0-.25.88,3.86,3.86,0,0,0-.25-.88A2.83,2.83,0,0,0,61.5,53.31Z"/><path class="cls-3" d="M50,30a2.83,2.83,0,0,0,.57-.23,3.86,3.86,0,0,0,.25-.88,4.1,4.1,0,0,0,.3.93,2.34,2.34,0,0,0,.52.19,2.84,2.84,0,0,0-.57.23,3.88,3.88,0,0,0-.25.88,3.86,3.86,0,0,0-.25-.88A2.83,2.83,0,0,0,50,30Z"/><path class="cls-3" d="M10.65-.39a2.83,2.83,0,0,0,.57-.23,3.86,3.86,0,0,0,.25-.88,4.1,4.1,0,0,0,.3.93,2.34,2.34,0,0,0,.52.19,2.84,2.84,0,0,0-.57.23,3.88,3.88,0,0,0-.25.88,3.86,3.86,0,0,0-.25-.88A2.83,2.83,0,0,0,10.65-.39Z"/><path class="cls-3" d="M-.72.14A2.83,2.83,0,0,0-.15-.09,3.86,3.86,0,0,0,.1-1,4.1,4.1,0,0,0,.39,0,2.34,2.34,0,0,0,.91.14,2.84,2.84,0,0,0,.34.38a3.88,3.88,0,0,0-.25.88A3.86,3.86,0,0,0-.15.38,2.83,2.83,0,0,0-.72.14Z"/><path class="cls-3" d="M6.65,8.76a2.83,2.83,0,0,0,.57-.23,3.86,3.86,0,0,0,.25-.88,4.1,4.1,0,0,0,.3.93,2.34,2.34,0,0,0,.52.19A2.84,2.84,0,0,0,7.72,9a3.88,3.88,0,0,0-.25.88A3.86,3.86,0,0,0,7.22,9,2.83,2.83,0,0,0,6.65,8.76Z"/><path class="cls-3" d="M9.75,13.45"/><path class="cls-3" d="M-.94,19.07a5.05,5.05,0,0,0,1-.42,6.92,6.92,0,0,0,.44-1.58A7.31,7.31,0,0,0,1,18.73a4.19,4.19,0,0,0,.92.34,5.05,5.05,0,0,0-1,.42,6.92,6.92,0,0,0-.44,1.58,6.93,6.93,0,0,0-.44-1.58A5.06,5.06,0,0,0-.94,19.07Z"/></pattern><pattern id="새_패턴_9" data-name="새 패턴 9" width="35" height="448.67" patternTransform="matrix(0.66, 0.62, -0.29, 0.31, 360.26, 72.51)" patternUnits="userSpaceOnUse" viewBox="0 0 35 448.67"><rect class="cls-1" width="35" height="448.67"/><line class="cls-4" x1="141.85" y1="0.35" x2="33.15" y2="448.31"/><line class="cls-4" x1="134.85" y1="0.35" x2="26.15" y2="448.31"/><line class="cls-4" x1="127.85" y1="0.35" x2="19.15" y2="448.31"/><line class="cls-4" x1="120.85" y1="0.35" x2="12.15" y2="448.31"/><line class="cls-4" x1="113.85" y1="0.35" x2="5.15" y2="448.31"/><line class="cls-4" x1="106.85" y1="0.35" x2="-1.85" y2="448.31"/><line class="cls-4" x1="99.85" y1="0.35" x2="-8.85" y2="448.31"/><line class="cls-4" x1="92.85" y1="0.35" x2="-15.85" y2="448.31"/><line class="cls-4" x1="85.85" y1="0.35" x2="-22.85" y2="448.31"/><line class="cls-4" x1="78.85" y1="0.35" x2="-29.85" y2="448.31"/><line class="cls-4" x1="71.85" y1="0.35" x2="-36.85" y2="448.31"/><line class="cls-4" x1="64.85" y1="0.35" x2="-43.85" y2="448.31"/><line class="cls-4" x1="57.85" y1="0.35" x2="-50.85" y2="448.31"/><line class="cls-4" x1="50.85" y1="0.35" x2="-57.85" y2="448.31"/><line class="cls-4" x1="43.85" y1="0.35" x2="-64.85" y2="448.31"/><line class="cls-4" x1="36.85" y1="0.35" x2="-71.85" y2="448.31"/><line class="cls-4" x1="29.85" y1="0.35" x2="-78.85" y2="448.31"/><line class="cls-4" x1="22.85" y1="0.35" x2="-85.85" y2="448.31"/><line class="cls-4" x1="15.85" y1="0.35" x2="-92.85" y2="448.31"/><line class="cls-4" x1="8.85" y1="0.35" x2="-99.85" y2="448.31"/><line class="cls-4" x1="1.85" y1="0.35" x2="-106.85" y2="448.31"/></pattern><pattern id="새_패턴_9-3" data-name="새 패턴 9" width="35" height="448.67" patternTransform="matrix(0.41, -0.8, -0.38, -0.19, 207.86, 971.2)" patternUnits="userSpaceOnUse" viewBox="0 0 35 448.67"><rect class="cls-1" width="35" height="448.67"/><line class="cls-4" x1="141.85" y1="0.35" x2="33.15" y2="448.31"/><line class="cls-4" x1="134.85" y1="0.35" x2="26.15" y2="448.31"/><line class="cls-4" x1="127.85" y1="0.35" x2="19.15" y2="448.31"/><line class="cls-4" x1="120.85" y1="0.35" x2="12.15" y2="448.31"/><line class="cls-4" x1="113.85" y1="0.35" x2="5.15" y2="448.31"/><line class="cls-4" x1="106.85" y1="0.35" x2="-1.85" y2="448.31"/><line class="cls-4" x1="99.85" y1="0.35" x2="-8.85" y2="448.31"/><line class="cls-4" x1="92.85" y1="0.35" x2="-15.85" y2="448.31"/><line class="cls-4" x1="85.85" y1="0.35" x2="-22.85" y2="448.31"/><line class="cls-4" x1="78.85" y1="0.35" x2="-29.85" y2="448.31"/><line class="cls-4" x1="71.85" y1="0.35" x2="-36.85" y2="448.31"/><line class="cls-4" x1="64.85" y1="0.35" x2="-43.85" y2="448.31"/><line class="cls-4" x1="57.85" y1="0.35" x2="-50.85" y2="448.31"/><line class="cls-4" x1="50.85" y1="0.35" x2="-57.85" y2="448.31"/><line class="cls-4" x1="43.85" y1="0.35" x2="-64.85" y2="448.31"/><line class="cls-4" x1="36.85" y1="0.35" x2="-71.85" y2="448.31"/><line class="cls-4" x1="29.85" y1="0.35" x2="-78.85" y2="448.31"/><line class="cls-4" x1="22.85" y1="0.35" x2="-85.85" y2="448.31"/><line class="cls-4" x1="15.85" y1="0.35" x2="-92.85" y2="448.31"/><line class="cls-4" x1="8.85" y1="0.35" x2="-99.85" y2="448.31"/><line class="cls-4" x1="1.85" y1="0.35" x2="-106.85" y2="448.31"/></pattern></defs><title>wow-thumb06</title><g id="Layer_2" data-name="Layer 2"><g id="Layer_1-2" data-name="Layer 1"><rect class="cls-5" x="3.81" y="60.77" width="108" height="66.48"/><rect class="cls-6" x="3.78" y="47.76" width="108.03" height="13.01"/><polygon class="cls-7" points="101.62 0 0 36.65 4.42 48.89 106.04 12.24 101.62 0"/></g></g></svg>