<svg xmlns="http://www.w3.org/2000/svg" xmlns:xlink="http://www.w3.org/1999/xlink" viewBox="0 0 4134.46 350.13"><defs><style>.cls-1,.cls-2{fill:none;}.cls-2{stroke:#3e3a39;stroke-miterlimit:10;stroke-width:3px;}.cls-3{fill:url(#새_패턴_9);}</style><pattern id="새_패턴_9" data-name="새 패턴 9" width="35" height="448.67" patternTransform="translate(61.38 5972.64) scale(5.56)" patternUnits="userSpaceOnUse" viewBox="0 0 35 448.67"><rect class="cls-1" width="35" height="448.67"/><line class="cls-2" x1="141.85" y1="0.35" x2="33.15" y2="448.31"/><line class="cls-2" x1="134.85" y1="0.35" x2="26.15" y2="448.31"/><line class="cls-2" x1="127.85" y1="0.35" x2="19.15" y2="448.31"/><line class="cls-2" x1="120.85" y1="0.35" x2="12.15" y2="448.31"/><line class="cls-2" x1="113.85" y1="0.35" x2="5.15" y2="448.31"/><line class="cls-2" x1="106.85" y1="0.35" x2="-1.85" y2="448.31"/><line class="cls-2" x1="99.85" y1="0.35" x2="-8.85" y2="448.31"/><line class="cls-2" x1="92.85" y1="0.35" x2="-15.85" y2="448.31"/><line class="cls-2" x1="85.85" y1="0.35" x2="-22.85" y2="448.31"/><line class="cls-2" x1="78.85" y1="0.35" x2="-29.85" y2="448.31"/><line class="cls-2" x1="71.85" y1="0.35" x2="-36.85" y2="448.31"/><line class="cls-2" x1="64.85" y1="0.35" x2="-43.85" y2="448.31"/><line class="cls-2" x1="57.85" y1="0.35" x2="-50.85" y2="448.31"/><line class="cls-2" x1="50.85" y1="0.35" x2="-57.85" y2="448.31"/><line class="cls-2" x1="43.85" y1="0.35" x2="-64.85" y2="448.31"/><line class="cls-2" x1="36.85" y1="0.35" x2="-71.85" y2="448.31"/><line class="cls-2" x1="29.85" y1="0.35" x2="-78.85" y2="448.31"/><line class="cls-2" x1="22.85" y1="0.35" x2="-85.85" y2="448.31"/><line class="cls-2" x1="15.85" y1="0.35" x2="-92.85" y2="448.31"/><line class="cls-2" x1="8.85" y1="0.35" x2="-99.85" y2="448.31"/><line class="cls-2" x1="1.85" y1="0.35" x2="-106.85" y2="448.31"/></pattern></defs><title>Asset 14</title><g id="Layer_2" data-name="Layer 2"><g id="레이어_1" data-name="레이어 1"><rect class="cls-3" width="4134.46" height="350.13"/></g></g></svg>